<?xml version="1.0" encoding="UTF-8" standalone="no"?>
<svg
   width="282mm"
   height="40mm"
   viewBox="0 0 282 40"
   version="1.1"
   id="svg1152"
   inkscape:version="1.1.2 (0a00cf5339, 2022-02-04)"
   sodipodi:docname="BunnyNotes.svg"
   xmlns:inkscape="http://www.inkscape.org/namespaces/inkscape"
   xmlns:sodipodi="http://sodipodi.sourceforge.net/DTD/sodipodi-0.dtd"
   xmlns="http://www.w3.org/2000/svg"
   xmlns:svg="http://www.w3.org/2000/svg">
  <sodipodi:namedview
     id="namedview7"
     pagecolor="#ffffff"
     bordercolor="#666666"
     borderopacity="1.0"
     inkscape:pageshadow="2"
     inkscape:pageopacity="0.0"
     inkscape:pagecheckerboard="0"
     inkscape:document-units="mm"
     showgrid="false"
     inkscape:zoom="0.55953741"
     inkscape:cx="388.71396"
     inkscape:cy="-87.572339"
     inkscape:window-width="1920"
     inkscape:window-height="1013"
     inkscape:window-x="0"
     inkscape:window-y="0"
     inkscape:window-maximized="1"
     inkscape:current-layer="layer1" />
  <defs
     id="defs1149" />
  <g
     inkscape:label="Layer 1"
     inkscape:groupmode="layer"
     id="layer1">
    <path
       style="fill:#000000;stroke-width:0.264583;fill-opacity:1"
       d="m 39.007403,39.512445 c -3.092741,-0.67277 -5.637737,-2.46436 -7.618312,-5.36304 l -1.269572,-1.85808 -0.920948,1.01939 c -2.723452,3.01453 -8.571146,5.26413 -15.0582,5.79287 -3.567634,0.29078 -9.1312305,-0.0347 -10.4841725,-0.61332 -1.382104,-0.59111 -2.2831373,-1.74388 -2.5778937,-3.29813 -0.14451807,-0.76205 -0.41267587,-1.65023 -0.59590517,-1.97374 -0.40515905,-0.71534 -0.40104745,-2.43782 0.037383,-15.65829 C 0.88521193,6.5408462 0.98026613,5.9336762 2.4848885,5.0079342 c 1.328002,-0.817074 4.836631,-2.128906 7.2975308,-2.728454 3.0446207,-0.74176 7.9384677,-0.79663 10.2044177,-0.114412 2.943543,0.886222 5.120916,2.765209 5.562889,4.800553 0.0948,0.436563 0.414991,1.553832 0.711536,2.482821 0.630899,1.9764228 0.541123,3.8312428 -0.274706,5.6755528 l -0.524907,1.18664 1.032907,0.83007 1.032907,0.83006 v -0.64 c 0,-0.352 0.288729,-1.77821 0.641622,-3.16935 1.14209,-4.5022527 3.896781,-9.1699838 5.961087,-10.1008558 0.989271,-0.446099 1.246497,-0.447907 5.077589,-0.03567 3.852535,0.414539 4.44417,0.59684 4.455235,1.372796 0.004,0.278857 5.629161,-2.380767 6.263666,-2.961502 0.707988,-0.647992 8.24361,-1.98688494 11.131566,-1.97780394 2.143578,0.0067 3.186229,0.41017797 3.986004,1.54231594 0.764744,1.082553 2.281084,4.199763 2.975814,6.117516 l 0.609235,1.6817551 0.362394,-1.4160521 c 0.460835,-1.800712 2.193356,-4.967561 3.079676,-5.629294 0.513622,-0.383475 1.350724,-0.555575 3.421113,-0.703349 1.507606,-0.107606 3.208713,-0.321314 3.78024,-0.474907 1.942309,-0.521981 6.543471,-1.14030794 8.358902,-1.12331094 2.030785,0.01901 3.090354,0.44263797 3.87096,1.54764194 0.764746,1.082553 2.281086,4.199763 2.975816,6.117516 l 0.60923,1.6817551 0.3624,-1.4160521 c 0.46673,-1.823765 2.19713,-4.970157 3.10794,-5.65119 0.6156,-0.460297 1.200371,-0.540685 4.468708,-0.614318 2.67678,-0.06031 4.06296,0.01907 4.8103,0.275466 0.92012,0.31567 1.22973,0.303613 2.50509,-0.09755 1.8122,-0.570032 5.30277,-0.635626 6.29699,-0.118332 0.39296,0.204455 0.97806,0.654037 1.30022,0.999072 0.57665,0.617571 3.51529,6.3092631 3.51529,6.8085581 0,0.1408347 0.11305,0.3259447 0.25122,0.4113347 0.13818,0.0854 1.03715,-1.3903218 1.99772,-3.2793808 1.91516,-3.766368 2.52109,-4.436751 4.82453,-5.337728 1.32913,-0.519879 2.01931,-0.597659 5.36194,-0.604258 3.59363,-0.0071 3.93214,0.03654 5.34797,0.689276 1.59058,0.733305 1.99066,1.361318 1.73136,2.717751 -0.0801,0.419169 0.0502,0.807748 0.36697,1.094453 1.00284,0.907559 0.27559,4.4623968 -1.98555,9.7055268 -1.7179,3.98344 -2.79477,5.67289 -7.19926,11.29449 -5.39111,6.88086 -8.00495,9.42202 -11.85744,11.52774 -2.27379,1.24282 -3.32542,1.27428 -5.92562,0.17727 -3.79512,-1.60115 -5.41766,-3.09531 -4.95256,-4.56071 0.11832,-0.37278 0.0211,-0.74344 -0.28331,-1.07977 -0.44832,-0.49539 -0.48223,-0.4397 -1.0369,1.7029 -1.08607,4.1954 -2.04879,4.99968 -6.17171,5.15599 -1.35576,0.0514 -2.887428,0.0142 -3.403708,-0.0827 -1.32827,-0.24919 -3.13993,-2.18189 -4.58232,-4.88847 l -1.19063,-2.23416 -0.15731,2.28399 c -0.22288,3.23573 -0.965472,4.1549 -3.682629,4.55833 -1.379831,0.20487 -7.491998,-0.27605 -8.178602,-0.64351 -0.334846,-0.1792 -0.795851,-0.0852 -1.632376,0.33281 -0.887849,0.44367 -1.75337,0.60453 -3.630761,0.67482 -1.355756,0.0508 -2.887424,0.013 -3.403703,-0.0838 -1.328272,-0.24919 -3.139935,-2.18188 -4.582324,-4.88847 l -1.190625,-2.23415 -0.157319,2.28399 c -0.261757,3.80026 -1.179287,4.57202 -5.398931,4.54117 -3.707212,-0.0271 -6.113725,-0.33291 -6.737284,-0.85615 -0.289955,-0.2433 -0.706565,-1.145 -0.925801,-2.00377 -0.219237,-0.85877 -0.454509,-1.6173 -0.522825,-1.68562 -0.06832,-0.0683 -0.802105,0.47999 -1.63064,1.21845 -1.930167,1.72033 -4.646245,3.14383 -6.916423,3.6249 -2.147305,0.45503 -2.877926,0.45419 -4.992296,-0.006 z m 4.962501,-4.09451 c 5.603132,-1.73126 10.048632,-6.88991 11.911029,-13.8218 0.786186,-2.92621 0.853485,-8.72446 0.131162,-11.30067 -0.629383,-2.2447208 -1.895607,-4.8017048 -3.03974,-6.1383648 -0.864526,-1.010004 -0.994164,-1.0707 -1.957771,-0.916613 -1.569397,0.250957 -6.433791,2.706139 -7.645649,3.858953 -0.987367,0.939257 -1.05637,1.093231 -0.851199,1.899356 0.373425,1.4672188 0.220615,5.2526088 -0.28107,6.9626588 -0.496641,1.69286 -1.531104,3.04271 -2.331786,3.04271 -1.335952,0 -3.915463,1.91139 -4.820412,3.57187 -0.375716,0.6894 -0.40981,0.70679 -0.259334,0.1323 0.09529,-0.36381 0.367528,-0.88953 0.604978,-1.16828 0.746522,-0.87636 2.274279,-2.25668 2.505982,-2.26415 0.648756,-0.0209 1.215843,-1.26754 1.224233,-2.69127 0.01058,-1.79404 0.675873,-4.0389 2.409013,-8.1285438 0.828476,-1.95493 1.193077,-3.115266 1.013716,-3.226118 -0.154061,-0.09521 -1.86419,-0.321421 -3.800287,-0.50268 -3.20044,-0.299629 -3.607075,-0.288326 -4.476919,0.124442 -1.796476,0.852484 -4.47625,5.6272698 -5.459143,9.7270398 -0.727297,3.03364 -0.684035,3.96732 0.246491,5.3198 1.494213,2.17176 1.946016,4.86692 1.209887,7.2174 -0.133094,0.42496 -0.05408,0.60337 0.308684,0.69691 0.397137,0.10241 0.377153,0.13142 -0.107744,0.15642 -0.327422,0.0169 -0.595312,0.1385 -0.595312,0.27027 0,1.51321 5.02308,6.99637 5.746557,6.27289 0.08936,-0.0894 0.05333,-0.16264 -0.08006,-0.16285 -0.133395,-2.1e-4 -0.279051,-0.86342 -0.323678,-1.91823 -0.04916,-1.16185 -0.215318,-2.02214 -0.421524,-2.18243 -0.396071,-0.30787 -0.345646,-2.49808 0.07434,-3.22895 0.209354,-0.36432 0.241041,-0.22824 0.135779,0.58312 -0.07552,0.58208 -0.183206,1.28557 -0.239308,1.56331 -0.0561,0.27773 0.121545,0.78917 0.394772,1.13652 0.336227,0.42745 0.457377,0.90557 0.374861,1.4794 -0.06705,0.46632 0.04143,1.38363 0.241065,2.03848 0.330981,1.08564 0.477507,1.23042 1.661861,1.64206 1.760821,0.61199 4.430139,0.59352 6.496529,-0.045 z m -9.256916,-9.5346 c 0,-0.36381 0.06005,-0.51264 0.133453,-0.33073 0.0734,0.1819 0.0734,0.47955 0,0.66145 -0.0734,0.18191 -0.133453,0.0331 -0.133453,-0.33072 z m -2.952192,0.16468 c 0,-0.0549 0.208359,-0.2633 0.463021,-0.46302 0.419645,-0.32911 0.429003,-0.31975 0.0999,0.0999 -0.345644,0.44073 -0.562917,0.58089 -0.562917,0.36313 z m 1.491483,-1.35443 c 0.08395,-0.21876 0.318487,-0.39775 0.5212,-0.39775 0.20271,0 0.376113,-0.20836 0.385339,-0.46303 0.01217,-0.336 0.08631,-0.28916 0.270267,0.17071 0.139422,0.34855 0.191407,0.69581 0.115519,0.7717 -0.07588,0.0759 -0.137975,-0.0146 -0.137975,-0.20113 0,-0.25172 -0.168417,-0.22876 -0.653491,0.0891 -0.556581,0.36468 -0.630857,0.3692 -0.500859,0.0304 z m 44.357897,10.50882 c 1.652389,-0.73967 2.027449,-1.59512 3.099808,-7.07012 0.456041,-2.32833 1.234038,-6.25739 1.728885,-8.73125 1.399744,-6.99764 1.974012,-10.5560228 1.974012,-12.2317378 0,-1.324476 -0.105887,-1.656883 -0.753724,-2.366176 -0.414549,-0.453873 -1.107972,-1.008411 -1.540936,-1.232306 -1.142749,-0.590938 -3.830987,-0.875695 -6.626302,-0.701904 -2.054879,0.127756 -2.540273,0.247065 -3.084256,0.758113 -0.901793,0.847189 -2.189895,3.354951 -2.669963,5.198062 -0.456999,1.7545388 -0.463733,1.7632788 -1.728986,2.2440888 -0.509323,0.19356 -1.395982,0.68889 -1.970353,1.10075 -0.57437,0.41185 -1.192662,0.74882 -1.373981,0.74882 -0.181319,0 -1.036981,0.65485 -1.90147,1.45521 -1.370476,1.26882 -1.709936,1.45521 -2.650295,1.45521 -1.044527,0 -1.088112,0.0354 -1.383863,1.12448 -0.387541,1.42707 -1.309865,3.72937 -1.563418,3.9026 -0.106497,0.0728 -0.58352,1.20386 -1.060053,2.51354 -1.05873,2.90979 -1.372005,3.55062 -2.686405,5.49533 l -1.03179,1.52657 0.322403,1.74974 c 0.456705,2.47863 0.708244,2.70156 3.392974,3.00702 1.236927,0.14072 3.141927,0.25633 4.233334,0.25689 3.600558,0.002 4.333272,-1.01843 4.203435,-5.85315 -0.03976,-1.48047 0.03734,-2.62365 0.178353,-2.64441 0.136615,-0.0201 1.000342,1.37826 1.919396,3.10751 1.732839,3.26042 3.052813,4.92329 4.414441,5.56117 1.195459,0.56003 4.950473,0.34588 6.558754,-0.37405 z m 26.458334,0 c 1.65239,-0.73967 2.02745,-1.59512 3.09981,-7.07012 0.45604,-2.32833 1.23403,-6.25739 1.72888,-8.73125 1.39975,-6.99764 1.97401,-10.5560228 1.97401,-12.2317378 0,-1.324476 -0.10588,-1.656883 -0.75372,-2.366176 -0.41455,-0.453873 -1.10797,-1.008411 -1.54094,-1.232306 -1.14275,-0.590938 -3.83098,-0.875695 -6.6263,-0.701904 -2.054877,0.127756 -2.540268,0.247065 -3.084258,0.758113 -0.90179,0.847189 -2.18989,3.354951 -2.66996,5.198062 -0.457,1.7545388 -0.46373,1.7632788 -1.72898,2.2440888 -0.50933,0.19356 -1.39599,0.68889 -1.97036,1.10075 -0.574367,0.41185 -1.192659,0.74882 -1.373978,0.74882 -0.181319,0 -1.036981,0.65485 -1.90147,1.45521 -1.370476,1.26882 -1.709936,1.45521 -2.650295,1.45521 -1.044527,0 -1.088112,0.0354 -1.383863,1.12448 -0.508061,1.87086 -1.314998,3.67365 -1.951699,4.3603 -0.447993,0.48314 -0.721268,1.33833 -1.066382,3.3371 -0.255217,1.47812 -0.864285,4.29138 -1.353487,6.25169 -0.489204,1.9603 -0.793885,3.65976 -0.677074,3.77658 0.292965,0.29296 4.251635,0.72478 6.655687,0.72602 3.600558,0.002 4.333272,-1.01843 4.203435,-5.85315 -0.03976,-1.48047 0.03734,-2.62365 0.178353,-2.64441 0.136615,-0.0201 1.000343,1.37826 1.919393,3.10751 1.73284,3.26042 3.05282,4.92329 4.41444,5.56117 1.19546,0.56003 4.950478,0.34588 6.558758,-0.37405 z m -88.447298,-0.10364 c 6.605781,-0.91708 12.56006,-4.23937 13.903773,-7.75783 l 0.473305,-1.23933 -0.972889,-0.89128 c -1.296794,-1.18803 -2.435863,-1.38624 -3.842448,-0.66865 l -1.090579,0.55637 -2.052769,-0.54066 c -4.190953,-1.10382 -6.764113,-1.15938 -8.056074,-0.17395 -1.09026,0.83158 -3.674184,2.04781 -3.966644,1.86706 -0.1190777,-0.0736 -0.2165077,-1.12424 -0.2165077,-2.33476 0,-2.66175 0.165433,-2.85601 2.4483427,-2.87506 1.817926,-0.0152 2.718864,0.32954 2.975615,1.13849 0.234479,0.73878 0.963899,1.06576 2.721714,1.22007 0.831392,0.073 1.690213,0.20044 1.908495,0.28322 0.218281,0.0828 0.813593,0.24673 1.322916,0.36435 0.509323,0.11761 1.375701,0.329 1.925283,0.46974 0.843653,0.21606 1.190305,0.15918 2.226305,-0.36531 0.78677,-0.39832 1.377598,-0.54439 1.646592,-0.4071 0.230741,0.11777 1.053055,0.28547 1.827364,0.37267 l 1.407837,0.15854 -0.183666,-0.84965 c -0.530505,-2.45419 -2.473687,-4.94725 -5.431078,-6.96794 -1.007126,-0.68814 -1.831137,-1.36103 -1.831137,-1.49531 0,-0.13428 0.410885,-0.91694 0.91308,-1.73923 2.973626,-4.8690658 1.223161,-9.0981508 -4.352663,-10.5159468 -3.765344,-0.957435 -10.2826685,-0.0395 -14.9148115,2.100681 -2.765078,1.277546 -2.7642446,1.275006 -3.1104731,9.4908658 -0.1550537,3.67935 -0.30021737,9.32848 -0.32258527,12.55363 -0.038433,5.54104 -0.01061,5.90523 0.50556847,6.61458 0.8554109,1.17556 2.1830639,1.67993 5.0583469,1.92166 2.839548,0.23871 5.9985615,0.13785 9.0797875,-0.28992 z M 9.5357953,12.814315 c 0,-1.38791 0.05265,-1.51642 0.7276047,-1.77617 1.285777,-0.4948 2.946976,-0.38324 3.569949,0.23973 0.483089,0.48309 0.517101,0.65449 0.247351,1.24653 -0.356386,0.78218 -1.761845,1.46234 -3.420425,1.65527 l -1.1244797,0.13081 z M 118.9699,34.313165 c 4.12024,-2.1957 7.68622,-5.93076 14.51521,-15.20347 2.78129,-3.77656 6.62432,-12.6720448 6.43743,-14.9007568 -0.0678,-0.808503 -0.23469,-1.025104 -1.13778,-1.47665 -0.91897,-0.459481 -1.58099,-0.528487 -5.02709,-0.524006 -3.61628,0.0047 -4.09507,0.06174 -5.3911,0.642215 -1.59865,0.716017 -2.17984,1.488708 -4.38881,5.834916 -0.70264,1.3824518 -1.52045,2.8607318 -1.81737,3.2850718 -0.53472,0.7642 -0.54229,0.76605 -0.79738,0.19437 -0.2187,-0.49011 -0.4008,-0.55243 -1.20748,-0.41323 -0.52247,0.0902 -1.11329,0.38964 -1.31294,0.66552 -0.19965,0.27588 -0.5628,0.5016 -0.80698,0.5016 -0.67059,0 -1.07852,0.54314 -1.08303,1.44198 -0.005,0.91738 -0.17158,1.21278 -0.92199,1.63119 -0.29104,0.16228 -0.54212,0.579 -0.55795,0.92604 -0.0513,1.12564 -0.43796,2.19996 -1.11222,3.09061 l -0.66024,0.87212 0.56989,0.77082 c 0.31344,0.42395 0.56989,0.88587 0.56989,1.02649 0,0.14062 -1.17567,1.84208 -2.61261,3.78102 -2.72675,3.67937 -3.0916,4.36213 -2.80819,5.25507 0.21973,0.69232 1.88358,1.74163 4.23018,2.66776 2.44304,0.96419 3.40568,0.95177 5.32056,-0.0687 z m -7.15017,-8.59666 1.44926,-1.88661 -1.00045,-1.6162 c -0.55025,-0.88891 -1.06873,-1.61752 -1.15219,-1.61912 -0.0835,-0.002 -0.2855,0.6817 -0.449,1.51844 -0.1635,0.83675 -0.48341,2.41433 -0.71092,3.50573 -0.2275,1.09141 -0.475,2.28203 -0.54998,2.64584 l -0.13633,0.66145 0.55017,-0.66145 c 0.3026,-0.36381 1.20235,-1.51044 1.99944,-2.54808 z m -81.689733,-1.023 c -0.04954,-0.0495 -0.447022,-0.16719 -0.883285,-0.26145 l -0.793208,-0.17136 0.79375,0.67837 c 0.649134,0.55477 0.810062,0.60241 0.883285,0.26144 0.04924,-0.22931 0.049,-0.45746 -5.29e-4,-0.507 z m -14.508785,-1.45601 c 0,-0.14552 -0.112035,-0.26458 -0.248967,-0.26458 -0.136933,0 -0.322554,0.11906 -0.412491,0.26458 -0.08994,0.14552 0.02209,0.26459 0.248968,0.26459 0.226869,0 0.41249,-0.11907 0.41249,-0.26459 z m 68.270916,-3.48131 c 0.0046,-0.19533 0.183224,-0.58626 0.396875,-0.86874 0.544626,-0.72006 0.505534,-1.53213 -0.06843,-1.42159 -0.314465,0.0606 -0.60011,0.62334 -0.916318,1.80533 -0.590077,2.20574 -0.586211,2.32205 0.05029,1.51286 0.291042,-0.36999 0.532953,-0.83254 0.537581,-1.02786 z m -26.458334,0.0923 c 0.0046,-0.24608 0.183224,-0.67853 0.396875,-0.961 0.493625,-0.65263 0.50188,-1.47078 0.01484,-1.47078 -0.235731,0 -0.438158,0.41499 -0.548495,1.12447 -0.09618,0.61847 -0.238466,1.34775 -0.316185,1.62064 -0.09127,0.32045 -0.03758,0.43204 0.15162,0.31511 0.16111,-0.0996 0.296714,-0.38237 0.301342,-0.62844 z m 56.828926,-0.13166 c 0.34738,-0.36976 0.64069,-1.12576 0.74424,-1.91823 0.2018,-1.54437 0.51125,-2.23398 1.00245,-2.23398 0.23413,0 0.42892,-0.52384 0.56571,-1.52135 0.11475,-0.83675 0.1918,-1.59923 0.17124,-1.69442 -0.0206,-0.0952 0.13739,-0.31812 0.35102,-0.49541 0.21363,-0.1773 0.38842,-0.4718 0.38842,-0.65444 0,-0.18265 0.16536,-0.46933 0.36748,-0.63706 0.20211,-0.16774 0.50148,-0.8371667 0.66526,-1.4876108 0.16379,-0.650444 0.42972,-1.182624 0.59096,-1.182624 0.19635,0 0.18264,0.133183 -0.0415,0.40327 -0.18408,0.221797 -0.26336,0.474596 -0.17618,0.561774 0.0872,0.08718 -0.25304,0.9207261 -0.75604,1.8523308 -0.50301,0.9316 -0.91456,1.75036 -0.91456,1.81947 0,0.36193 1.07784,0.0544 1.30644,-0.37272 0.1467,-0.27411 0.68667,-0.57716 1.19993,-0.67345 0.55689,-0.10447 0.93322,-0.32934 0.93322,-0.55763 0,-0.63413 -1.61647,-4.1258378 -2.6261,-5.6726028 -1.62988,-2.496979 -3.05856,-3.052526 -6.10515,-2.374002 -1.99089,0.443403 -1.98144,0.430748 -1.08429,1.452547 0.72733,0.828391 0.82006,1.118896 0.82289,2.578033 0.002,0.904441 -0.2574,3.2600748 -0.57589,5.2347348 l -0.57907,3.59031 0.88454,1.56907 c 1.12442,1.99461 1.83641,3.02428 2.09121,3.02428 0.11025,0 0.45845,-0.27463 0.77378,-0.61029 z m -55.820843,-3.35845 c 0.462312,-0.62532 0.78821,-0.79375 1.535748,-0.79375 0.783275,0 1.223256,-0.254 2.520701,-1.45521 0.864489,-0.80037 1.725743,-1.45521 1.913896,-1.45521 0.470855,0 2.538158,-1.52525 2.538158,-1.87264 0,-0.15501 0.175525,-0.45735 0.390054,-0.67188 0.343686,-0.3436867 0.316595,-0.5852087 -0.227883,-2.0316228 -0.74018,-1.966299 -2.325579,-5.096237 -3.033178,-5.988179 -0.416367,-0.524839 -0.81072,-0.664221 -2.154253,-0.761403 -1.589762,-0.114993 -4.864981,0.209162 -7.998807,0.791658 l -1.514695,0.281541 1.060696,1.205014 c 1.258565,1.429805 2.722581,4.323803 3.305403,6.5339718 0.230243,0.87312 0.487257,2.80789 0.57114,4.29948 0.08389,1.49158 0.23209,2.71198 0.329346,2.71198 0.09726,0 0.440909,-0.35719 0.763674,-0.79375 z m 26.458334,0 c 0.462312,-0.62532 0.78821,-0.79375 1.535748,-0.79375 0.783275,0 1.223256,-0.254 2.520701,-1.45521 0.864489,-0.80037 1.725743,-1.45521 1.913896,-1.45521 0.470855,0 2.538156,-1.52525 2.538156,-1.87264 0,-0.15501 0.17553,-0.45735 0.39006,-0.67188 0.34368,-0.3436867 0.31659,-0.5852087 -0.22789,-2.0316228 -0.73859,-1.962068 -2.325258,-5.095942 -3.028992,-5.982635 -0.665133,-0.838056 -2.580526,-1.00434 -6.35807,-0.551976 -2.643449,0.316556 -4.393253,0.764278 -3.063885,0.783956 0.722074,0.01069 2.788242,1.33911 3.510065,2.256757 0.782635,0.994959 0.760183,3.130996 -0.08483,8.0700408 -0.361002,2.11005 -0.657516,3.98528 -0.658915,4.16719 -0.0043,0.55492 0.39674,0.3718 1.013954,-0.46302 z m -16.891497,-5.87119 c 0,-0.34777 -0.60134,-0.13 -0.733177,0.26551 -0.06445,0.19334 0.05651,0.25247 0.314193,0.15359 0.230441,-0.0884 0.418984,-0.27703 0.418984,-0.4191 z m 26.458338,0 c 0,-0.34777 -0.60134,-0.13 -0.73318,0.26551 -0.0644,0.19334 0.0565,0.25247 0.31419,0.15359 0.23044,-0.0884 0.41899,-0.27703 0.41899,-0.4191 z"
       id="path1237" />
    <path
       style="fill:#000000;stroke-width:0.264583;fill-opacity:1"
       d="m 164.08807,39.3069 c -1.20305,-0.60899 -2.4088,-2.09053 -3.78343,-4.64878 l -1.16441,-2.16704 -0.15732,2.28399 c -0.26176,3.80026 -1.17929,4.57202 -5.39893,4.54117 -3.71003,-0.0271 -6.11428,-0.33281 -6.73357,-0.85614 -0.77856,-0.65793 -2.31287,-6.61348 -3.04501,-11.81946 -0.66324,-4.71612 -1.45832,-12.85687 -1.70149,-17.4213644 -0.24002,-4.5055301 -0.11023,-5.8755401 0.6264,-6.6121701 0.70748,-0.70749 8.08697,-2.06259997 11.17923,-2.05287997 2.14357,0.007 3.18623,0.41018 3.986,1.54231997 0.76474,1.08255 2.28108,4.19976 2.97581,6.11751 l 0.60924,1.6817598 0.36239,-1.4160594 c 0.46731,-1.8259804 2.19782,-4.9709904 3.10951,-5.6511904 0.64157,-0.47865 1.1215,-0.5296 4.98942,-0.5296 4.18473,0 4.3068,0.016 5.50846,0.72242 1.4625,0.85975 2.60757,2.14354 2.60757,2.92346 0,0.50764 0.0968,0.47138 0.99219,-0.37152 1.56942,-1.47751 2.98417,-2.48248 4.69635,-3.33605 2.29163,-1.14246 4.04322,-1.48528997 6.78873,-1.32874997 2.85247,0.16263997 4.99536,1.09365997 6.82977,2.96732997 l 1.18308,1.2084 0.27213,-1.11976 c 0.20001,-0.82303 0.51752,-1.28505 1.19817,-1.7435 l 0.92604,-0.62373 11.37708,0.0873 c 11.22019,0.0861 11.39533,0.0957 12.7,0.69577 2.20581,1.01453 3.14044,2.28558 3.63667,4.94571 0.0636,0.3407 0.25459,0.008 0.53636,-0.93315 0.82815,-2.76715 3.22893,-4.70457 6.5432,-5.28031 2.02093,-0.35106997 12.90472,0.0571 14.75445,0.55329 1.3599,0.36482 2.36128,1.46106 2.57934,2.82369 0.0867,0.54142 0.32951,1.37539 0.5397,1.85327 0.21019,0.47788 0.39055,1.25178 0.4008,1.71979 l 0.0187,0.8509204 0.3516,-0.9552504 c 1.25293,-3.40411 4.28357,-5.86333 8.60425,-6.98193997 2.43001,-0.62912997 6.67715,-0.57583997 9.39541,0.11786997 2.78035,0.70956 6.22777,2.42497 7.691,3.82699 0.99078,0.94934 1.17385,1.28433 1.18096,2.16104 0.005,0.57064 0.18322,1.26865 0.39687,1.5511304 0.21366,0.28247 0.38765,1.0563794 0.38665,1.7197891 -0.002,1.10388 -0.20524,1.48083 -2.39982,4.443535 l -2.398,3.23733 0.93098,1.52517 c 0.51203,0.83885 1.00715,1.88236 1.10025,2.31892 0.0931,0.43656 0.41178,1.55345 0.70817,2.48197 1.09159,3.41971 0.24565,6.65296 -2.43113,9.29199 -3.28511,3.23879 -8.49583,4.81438 -13.83721,4.18404 -3.75905,-0.44361 -8.33349,-2.42023 -9.01665,-3.8961 -0.26514,-0.57277 -0.32869,-0.43735 -0.62088,1.32292 -0.5549,3.34295 -1.14226,3.58696 -9.60473,3.99004 -6.65858,0.31716 -8.3468,0.15443 -10.78527,-1.03957 -2.18008,-1.06748 -3.10085,-2.37509 -3.95716,-5.61966 -0.65308,-2.47456 -1.63937,-8.26404 -1.65084,-9.69037 -0.006,-0.74579 -0.0812,-1.70755 -0.16715,-2.13723 -0.15383,-0.76919 -0.17526,-0.77811 -1.38906,-0.57801 -0.67805,0.11178 -2.4532,0.21033 -3.94479,0.219 -1.49159,0.009 -2.71198,0.0731 -2.71198,0.14306 0,0.07 0.35755,1.46899 0.79457,3.10885 2.12671,7.98042 3.17417,12.18453 3.17417,12.74 0,1.27332 -0.51033,1.40764 -7.5732,1.99341 -3.65594,0.30321 -7.01095,0.55129 -7.45558,0.55129 -1.0305,0 -1.55537,-0.53269 -1.9018,-1.93014 -0.1517,-0.61191 -0.47265,-1.72439 -0.71323,-2.47217 -0.40766,-1.26711 -0.40681,-1.64505 0.0125,-5.55625 0.24746,-2.30816 0.61516,-5.08933 0.81711,-6.18039 0.20195,-1.09106 0.33917,-2.01176 0.30494,-2.04599 -0.0342,-0.0342 -1.03884,0.0131 -2.23244,0.1051 -1.92796,0.14868 -2.18189,0.22939 -2.27497,0.72307 -0.84681,4.49156 -1.76173,6.99037 -3.5784,9.77322 -2.97961,4.56431 -6.8873,7.32528 -11.50609,8.12961 -2.17736,0.37917 -4.32204,0.0432 -6.63572,-1.0395 -2.07685,-0.97188 -3.54521,-2.29419 -4.93647,-4.44547 l -1.09284,-1.68983 -0.57475,2.22019 c -1.12295,4.33783 -2.01152,5.02815 -6.61846,5.1418 -2.29973,0.0567 -3.09359,-0.0209 -3.78341,-0.37012 z m 6.37341,-4.00864 c 1.65239,-0.73967 2.02745,-1.59512 3.09981,-7.07012 0.45604,-2.32833 1.23404,-6.25739 1.72889,-8.73125 1.39974,-6.99765 1.97401,-10.5560241 1.97401,-12.2317445 0,-1.32448 -0.10589,-1.65688 -0.75372,-2.36618 -0.41455,-0.45387 -1.10798,-1.00841 -1.54094,-1.2323 -1.14275,-0.59094 -3.83099,-0.8757 -6.6263,-0.70191 -2.05488,0.12776 -2.54027,0.24707 -3.08426,0.75812 -0.90179,0.84719 -2.18989,3.35495 -2.66996,5.1980604 -0.457,1.7545291 -0.46373,1.7632691 -1.72899,2.2440891 -0.50932,0.19356 -1.39598,0.68889 -1.97035,1.10074 -0.57437,0.411865 -1.19266,0.748835 -1.37398,0.748835 -0.18132,0 -1.03698,0.65484 -1.90147,1.45521 -1.37048,1.26882 -1.70994,1.45521 -2.6503,1.45521 -1.04452,0 -1.08811,0.0354 -1.38386,1.12448 -0.53568,1.97258 -1.32899,3.69012 -2.0332,4.40196 l -0.68386,0.69126 0.70684,-0.97453 c 0.38877,-0.53599 0.71064,-1.1313 0.71526,-1.32292 0.005,-0.19161 0.18323,-0.57949 0.39688,-0.86197 0.21365,-0.28247 0.38846,-0.73942 0.38846,-1.01544 0,-0.44235 -0.13332,-0.48045 -1.12448,-0.32128 -0.61846,0.0993 -1.47019,0.34791 -1.89273,0.55243 -0.42254,0.20451 -1.19645,0.35694 -1.7198,0.33872 l -0.95153,-0.0331 1.05833,-0.18637 c 0.58208,-0.10251 1.51936,-0.38526 2.08283,-0.62835 0.56348,-0.24308 1.28523,-0.44197 1.60389,-0.44197 0.33697,0 0.82493,-0.33211 1.16624,-0.79375 0.46231,-0.62531 0.78821,-0.79375 1.53574,-0.79375 0.78328,0 1.22326,-0.254 2.52071,-1.45521 0.86448,-0.80036 1.72574,-1.4552 1.91389,-1.4552 0.47086,0 2.53816,-1.525255 2.53816,-1.872645 0,-0.15501 0.17552,-0.45735 0.39005,-0.67188 0.34369,-0.3436897 0.3166,-0.5852097 -0.22788,-2.0316195 -0.74018,-1.9663 -2.32558,-5.09624 -3.03318,-5.98818 -0.41636,-0.52484 -0.81072,-0.66422 -2.15425,-0.76141 -2.94688,-0.21315 -10.60193,1.02375 -11.42409,1.84591 -0.40783,0.40783 -0.48398,0.92372 -0.48398,3.27867 0,1.53708 0.12853,4.5434095 0.28562,6.6807345 l 0.28563,3.88604 0.86151,0.8183 0.86152,0.81831 -0.74839,0.28248 c -0.63066,0.23805 -0.72917,0.40068 -0.62622,1.03378 0.0672,0.41322 0.25515,2.00145 0.41767,3.52942 0.30111,2.83092 0.57672,3.57395 1.23233,3.32237 0.21498,-0.0825 0.29631,-0.0249 0.19543,0.13829 -0.095,0.15377 -0.33935,0.21567 -0.54291,0.13756 -0.51045,-0.19588 -0.46635,0.45891 0.27175,4.03462 0.34089,1.65145 0.78926,3.1721 0.99639,3.37922 0.4352,0.4352 3.91763,0.8897 6.82842,0.8912 3.60055,0.002 4.33327,-1.01844 4.20343,-5.85315 -0.0398,-1.48047 0.0373,-2.62365 0.17835,-2.64442 0.13662,-0.0201 1.00035,1.37827 1.9194,3.10751 1.73284,3.26043 3.05281,4.9233 4.41444,5.56117 1.19546,0.56004 4.95047,0.34589 6.55875,-0.37404 z M 146.07939,25.4143 c -0.0258,-0.49905 0.17074,-0.82307 0.69157,-1.14018 0.72363,-0.44059 0.72448,-0.44027 0.15636,0.0586 -0.31419,0.2759 -0.6254,0.78899 -0.69158,1.14018 -0.11774,0.62485 -0.12109,0.62359 -0.15635,-0.0586 z m 1.94834,-2.61012 c 0.26339,-0.29104 0.53842,-0.52916 0.61118,-0.52916 0.0728,0 -0.0832,0.23812 -0.3466,0.52916 -0.26339,0.29104 -0.53842,0.52917 -0.61118,0.52917 -0.0728,0 0.0832,-0.23813 0.3466,-0.52917 z m 38.23229,12.85394 c 0,-0.0609 0.0676,-0.28683 0.15024,-0.50216 0.10051,-0.26194 -0.19647,-0.58636 -0.89745,-0.98033 -0.85692,-0.48162 -1.07698,-0.77205 -1.20859,-1.59512 -0.0895,-0.55969 -0.33934,-1.06165 -0.56295,-1.13104 -0.28982,-0.0899 -0.27355,-0.11322 0.0583,-0.0834 0.29527,0.0265 0.56555,0.41637 0.7538,1.08733 0.23604,0.84128 0.5224,1.16679 1.4631,1.66314 0.64329,0.33942 1.3334,0.77995 1.53358,0.97894 0.30333,0.30154 0.52686,0.30434 1.34177,0.0168 3.10623,-1.09594 6.46699,-3.78648 8.53671,-6.83428 3.15969,-4.65285 4.48919,-10.55325 3.52729,-15.65435 -1.28844,-6.8328045 -5.55321,-11.0049945 -11.25619,-11.0118545 -3.68529,-0.004 -7.06592,1.5449 -10.03491,4.59894 l -1.43594,1.47707 -0.85775,4.9785145 c -0.47176,2.73817 -1.28386,7.00256 -1.80467,9.47641 -0.52081,2.47386 -0.94716,4.83844 -0.94745,5.25464 -5.3e-4,0.9022 1.37643,3.58346 2.27302,4.42577 0.35028,0.32906 0.63686,0.45848 0.63686,0.28759 0,-0.17089 0.11533,-0.3107 0.25628,-0.3107 0.14096,0 0.18605,0.18302 0.1002,0.40673 -0.31815,0.82909 2.01025,2.5275 4.34674,3.17065 1.17577,0.32364 4.02803,0.52242 4.02803,0.28072 z m -5.92379,-5.08874 1.5315,-1.49521 0.23382,0.70146 c 0.1286,0.38581 0.34296,0.70147 0.47635,0.70147 0.1334,0 0.24254,0.12007 0.24254,0.26682 0,0.16122 -0.20249,0.14037 -0.51161,-0.0527 -0.28138,-0.17573 -0.50541,-0.3851 -0.49783,-0.46527 0.067,-0.70932 -0.29837,-0.50564 -1.75575,0.97872 -0.46434,0.47295 -0.93566,0.8599 -1.04738,0.8599 -0.11172,0 0.48604,-0.67285 1.32836,-1.49522 z m 2.21963,-3.25166 c 0,-0.13694 0.1177,-0.32172 0.26155,-0.41062 0.14998,-0.0927 0.19434,0.0135 0.10398,0.24897 -0.17589,0.45837 -0.36553,0.54223 -0.36553,0.16165 z m 0.46781,-1.63664 c -0.10945,-0.74567 0.0833,-1.02711 1.95434,-2.85345 2.25345,-2.19962 2.50775,-2.85454 1.3922,-3.58547 -0.83569,-0.54757 -1.45986,-1.95143 -1.25042,-2.81243 0.68558,-2.81854 4.31523,-2.12175 4.31523,0.8284 0,1.11225 -0.1273,1.28104 -4.22881,5.60691 -1.66675,1.75794 -1.96695,2.21112 -1.89829,2.86573 0.10914,1.04043 -0.1304,0.99855 -0.28425,-0.0497 z m 5.08844,-7.10193 c 0,-0.14095 -0.1786,-0.18774 -0.39688,-0.10398 -0.21828,0.0838 -0.39687,0.19909 -0.39687,0.25628 0,0.0572 0.17859,0.10398 0.39687,0.10398 0.21828,0 0.39688,-0.11532 0.39688,-0.25628 z m -0.79375,16.61009 c 0,-0.34776 -0.60134,-0.13 -0.73318,0.26551 -0.0645,0.19335 0.0565,0.25248 0.31419,0.1536 0.23044,-0.0884 0.41899,-0.27703 0.41899,-0.41911 z m 53.2467,0.25087 c 0.0603,-0.18077 -0.13818,-0.45205 -0.44097,-0.60286 -0.36909,-0.18382 -0.59898,-0.6205 -0.69756,-1.32498 -0.0809,-0.57794 -0.3138,-1.31216 -0.51761,-1.63161 -0.37016,-0.58016 -0.37213,-0.57949 -1.74725,0.59531 -0.75717,0.64687 -1.50376,1.17613 -1.6591,1.17613 -0.30576,0 -1.22931,1.27018 -1.05227,1.44722 0.55276,0.55276 5.94395,0.85322 6.11476,0.34079 z m 5.78452,0.069 c 1.94566,-0.14241 3.79725,-0.42858 4.44194,-0.68653 1.68385,-0.67375 1.92396,-1.37327 2.08162,-6.0644 l 0.13424,-3.99402 -0.82237,-0.69197 c -0.57206,-0.48135 -1.59492,-0.86797 -3.3605,-1.27018 -2.42188,-0.55173 -2.56158,-0.55698 -3.05026,-0.11473 -0.28168,0.25491 -0.51214,0.60536 -0.51214,0.77876 0,0.1734 -0.41672,0.74436 -0.92604,1.2688 -0.64575,0.6649 -0.92605,1.19673 -0.92605,1.75706 0,0.63893 -0.20325,0.93401 -0.99218,1.44041 -1.29173,0.82914 -3.50573,3.01176 -3.50573,3.45604 0,0.19077 0.17859,0.49507 0.39687,0.67623 0.22571,0.18732 0.39688,0.76417 0.39688,1.33748 0,0.81379 0.11475,1.04406 0.59531,1.19463 0.32742,0.10258 0.87926,0.40826 1.22631,0.67929 0.72403,0.56543 0.45788,0.55256 4.8221,0.23313 z m -30.05935,-1.0692 c 5.14412,-0.39258 5.53329,-0.49005 5.64137,-1.41288 0.0884,-0.7553 -1.9201,-8.89732 -2.42397,-9.82599 -0.15791,-0.29104 -0.25743,-0.63163 -0.22115,-0.75685 0.0363,-0.12523 -0.23609,-1.39731 -0.60525,-2.82686 -0.36916,-1.42955 -0.67121,-2.71013 -0.67121,-2.84575 0,-0.13567 1.81484,-0.30761 4.0349,-0.38226 2.21919,-0.0746 4.25238,-0.22586 4.51818,-0.33609 0.73841,-0.30619 0.90875,-1.05952 1.11071,-4.911825 0.21837,-4.1654495 -0.036,-5.4852795 -1.3009,-6.7501995 -1.62388,-1.62387 -2.60574,-1.76192 -13.47641,-1.89483 -10.29581,-0.12588 -11.71972,-0.0484 -12.62838,0.68741 -0.98358,0.79646 -0.99216,2.5823 -0.022,4.5758 1.04147,2.1399998 1.54899,4.1377295 1.78259,7.0167745 l 0.18528,2.28339 3.25018,-0.17375 c 1.7876,-0.0956 3.30857,-0.0793 3.37993,0.0362 0.0714,0.11546 -0.0481,1.03966 -0.26548,2.05377 -0.21738,1.01411 -0.60954,3.09399 -0.87148,4.62196 -0.46331,2.70265 -0.4628,2.79099 0.0185,3.25146 0.65289,0.62459 0.64141,0.93202 -0.0127,0.34006 -0.49326,-0.4464 -0.51342,-0.41609 -0.72068,1.08348 -0.36053,2.60857 -0.27769,5.766 0.16527,6.29975 0.43032,0.5185 0.63886,0.51547 9.13266,-0.13275 z m -7.80521,-6.44398 c 0,-0.0549 0.20836,-0.2633 0.46302,-0.46302 0.41965,-0.3291 0.42901,-0.31975 0.0999,0.0999 -0.34564,0.44073 -0.56292,0.58089 -0.56292,0.36312 z m 1.30193,-1.02458 c 0.23995,-0.3171 0.71538,-0.46302 1.50859,-0.46302 1.19427,0 1.54854,-0.23564 2.57163,-1.71047 0.26804,-0.3864 0.92289,-0.89853 1.45521,-1.13807 0.53232,-0.23953 1.26551,-0.6933 1.62931,-1.00836 0.3638,-0.31507 1.01865,-0.65134 1.45521,-0.74726 0.58077,-0.12762 0.68726,-0.10235 0.39687,0.0942 -0.21828,0.14772 -0.58678,0.2704 -0.81888,0.27263 -0.23211,0.002 -0.64143,0.24649 -0.9096,0.54282 -0.26817,0.29632 -1.00108,0.76591 -1.6287,1.04354 -0.72745,0.32178 -1.34382,0.84832 -1.70026,1.45244 -0.68243,1.15663 -1.21564,1.46316 -2.54516,1.46316 -0.56255,0 -1.18971,0.14883 -1.3937,0.33073 -0.31552,0.28136 -0.31859,0.26161 -0.0205,-0.13229 z m 24.44865,7.60131 c 0.0254,-0.14124 1.05833,-1.06598 2.29526,-2.05497 1.23692,-0.98898 3.00478,-2.47475 3.92858,-3.30172 0.92379,-0.82697 1.90605,-1.66218 2.18281,-1.85603 0.27675,-0.19385 0.50319,-0.59165 0.50319,-0.88401 0,-0.65072 0.4596,-1.55272 1.06202,-2.08427 0.65786,-0.58046 0.82112,-1.38537 0.39568,-1.95069 -0.30202,-0.40132 -0.84051,-0.52152 -2.83352,-0.63248 -1.35335,-0.0754 -2.54312,-0.26511 -2.64394,-0.42169 -0.33812,-0.52512 0.37019,-0.96389 1.55601,-0.96389 1.75618,0 2.19994,-0.33617 2.19512,-1.66295 -0.006,-1.59574 -0.26513,-1.87226 -1.70479,-1.8178 -1.35745,0.0513 -2.25991,-0.30372 -2.25991,-0.88914 0,-0.48326 0.53471,-0.58765 3.96875,-0.77483 3.10236,-0.1691 7.79607,-1.14297 8.85603,-1.83749 1.20627,-0.79037 1.31694,-1.393575 1.0228,-5.5748145 -0.32275,-4.58799 -0.49937,-4.95938 -2.67049,-5.61539 -1.26645,-0.38266 -2.6445,-0.461 -8.26668,-0.46996 -6.36369,-0.0101 -6.81604,0.0216 -7.96473,0.55848 -1.58155,0.73922 -3.05754,2.04852 -3.65495,3.24218 -0.28408,0.5676 -0.71715,2.74754 -1.07407,5.4065195 -1.03828,7.734885 -0.4678,17.232625 1.24728,20.765545 0.69602,1.43374 2.12515,2.69257 3.05684,2.69257 0.29187,0 0.41018,0.11842 0.29863,0.29891 -0.10599,0.17148 -0.0478,0.25326 0.13652,0.19182 0.17669,-0.0589 0.34209,-0.22265 0.36756,-0.3639 z m 35.49133,-1.05912 c 3.75061,-0.98282 6.79417,-3.18733 8.24299,-5.97053 0.99279,-1.90718 1.0414,-4.46318 0.12409,-6.52502 -1.0617,-2.38638 -3.76318,-4.58712 -7.49805,-6.10823 -0.40018,-0.16298 -0.7276,-0.4855 -0.7276,-0.71671 0,-0.52478 0.51907,-0.38626 3.04133,0.81165 1.01788,0.48343 1.85803,0.8585 1.867,0.83348 0.009,-0.025 1.19052,-1.65282 2.6257,-3.617355 2.24496,-3.0730194 2.62615,-3.7453591 2.72932,-4.8140895 0.11001,-1.1395 0.0471,-1.30871 -0.76044,-2.04631 -2.01978,-1.84478 -7.2859,-3.94918 -8.61655,-3.44326 -0.38234,0.14536 -0.75803,0.20144 -0.83486,0.1246 -0.0768,-0.0768 -7.9e-4,-0.13969 0.16898,-0.13969 0.16978,0 0.30869,-0.11906 0.30869,-0.26458 0,-0.14552 -0.35719,-0.26459 -0.79375,-0.26459 -0.56788,0 -0.80249,0.13177 -0.82445,0.46302 -0.0269,0.40597 -0.0464,0.40176 -0.15826,-0.0341 -0.11698,-0.45585 -0.33966,-0.48556 -2.68129,-0.35766 -6.96102,0.38021 -11.57982,4.64069 -11.06045,10.2023995 0.20537,2.199325 0.63993,2.853915 2.0531,3.092665 0.89031,0.15042 1.15613,0.1003 1.35527,-0.25555 0.22749,-0.4065 0.30003,-0.40841 0.88771,-0.0233 0.57946,0.37969 0.71487,0.3806 1.43222,0.01 0.43653,-0.22575 0.96092,-0.8134 1.16793,-1.30883 0.20662,-0.49453 0.66354,-1.087755 1.01537,-1.318285 0.35183,-0.23052 1.10583,-1.22205 1.67557,-2.2033897 0.56974,-0.9813394 1.48799,-2.2798198 2.04055,-2.8855198 0.59621,-0.65354 0.89209,-1.17083 0.72777,-1.27238 -0.44448,-0.27471 -0.3211,-0.59578 0.2904,-0.75569 0.40157,-0.10501 0.4849,-0.066 0.28526,0.13367 -0.15511,0.15512 -0.21567,0.45494 -0.13457,0.66628 0.0868,0.22629 -0.2851,0.83843 -0.90478,1.48911 -0.57873,0.60767 -1.38667,1.7001704 -1.79542,2.4277801 -0.40875,0.7275994 -1.26106,1.8833594 -1.89402,2.5683494 -0.63296,0.684995 -1.15083,1.424845 -1.15083,1.644115 0,0.21927 -0.4279,0.68944 -0.95089,1.04482 -1.0764,0.73143 -2.22591,2.28287 -2.2205,2.99691 0.009,1.15579 0.41108,1.66713 2.267,2.88122 1.0795,0.70619 1.96272,1.37688 1.96272,1.49042 0,0.40149 -0.81749,0.19811 -1.86718,-0.46453 -0.58461,-0.36905 -1.17696,-0.60051 -1.31635,-0.51437 -0.51398,0.31767 -4.83795,6.10953 -5.20161,6.96745 -0.85694,2.02165 0.50148,3.61427 4.24803,4.98042 3.17413,1.15743 7.54448,1.34873 10.87485,0.47603 z M 257.25821,20.48843 c -1.18265,-1.54101 -1.76324,-2.81646 -2.37835,-5.22489 l -0.47303,-1.85209 -0.18199,1.42311 c -0.10605,0.82934 -0.38549,1.62554 -0.66975,1.90829 -0.58828,0.58515 -4.75107,1.72736 -7.622,2.09136 -1.14401,0.14504 -2.13929,0.32298 -2.21173,0.39542 -0.0724,0.0724 0.066,0.35017 0.30765,0.61718 0.24164,0.26701 0.44021,0.71423 0.44126,0.99381 0.002,0.43761 0.43046,0.59187 3.08231,1.10879 4.82294,0.94012 5.91161,1.61551 5.91161,3.6675 0,0.36389 0.12202,0.88963 0.27117,1.1683 0.23945,0.44743 0.5176,0.18238 2.37902,-2.26698 l 2.10786,-2.77365 z m -11.73152,1.77095 c 0,-0.13693 -0.17859,-0.24897 -0.39687,-0.24897 -0.40916,0 -0.52565,0.3122 -0.22768,0.61017 0.21138,0.21139 0.62455,-0.0276 0.62455,-0.3612 z m -101.33947,-3.6224 c -0.002,-0.10914 -0.11947,-0.37704 -0.26053,-0.59532 -0.2074,-0.32093 -0.25726,-0.28295 -0.26053,0.19844 -0.002,0.32742 0.11501,0.59531 0.26053,0.59531 0.14552,0 0.26276,-0.0893 0.26053,-0.19843 z m 114.36256,-0.66146 c -0.0693,-0.59696 0.0978,-1.15069 0.54636,-1.81088 0.62624,-0.92164 0.63064,-0.96069 0.1427,-1.26542 -0.39906,-0.24921 -0.58076,-0.23716 -0.87605,0.0581 -0.27129,0.27129 -0.66408,0.31926 -1.44496,0.17647 -0.58981,-0.10786 -1.07239,-0.14837 -1.07239,-0.09 0,0.28148 2.55221,3.79162 2.75687,3.79162 0.026,0 0.002,-0.38695 -0.0525,-0.85989 z m -97.68976,-7.392555 c 0,-0.34776 -0.60134,-0.13 -0.73317,0.26551 -0.0644,0.19335 0.0565,0.25248 0.31419,0.1536 0.23044,-0.0884 0.41898,-0.27703 0.41898,-0.41911 z"
       id="path1337" />
  </g>
</svg>
