<svg xmlns:inkscape="http://www.inkscape.org/namespaces/inkscape" xmlns:sodipodi="http://sodipodi.sourceforge.net/DTD/sodipodi-0.dtd" xmlns="http://www.w3.org/2000/svg" xmlns:svg="http://www.w3.org/2000/svg" width="216mm" height="40mm" viewBox="0 0 216 40" version="1.1" id="svg5" inkscape:version="1.1.2 (0a00cf5339, 2022-02-04)" sodipodi:docname="CashOut.svg">
    <sodipodi:namedview id="namedview7" pagecolor="#ffffff" bordercolor="#666666" borderopacity="1.0" inkscape:pageshadow="2" inkscape:pageopacity="0.0" inkscape:pagecheckerboard="0" inkscape:document-units="mm" showgrid="false" inkscape:zoom="3.594473" inkscape:cx="792.74486" inkscape:cy="77.062757" inkscape:window-width="1920" inkscape:window-height="1013" inkscape:window-x="0" inkscape:window-y="0" inkscape:window-maximized="1" inkscape:current-layer="layer1" />
    <defs id="defs2" />
    <g inkscape:label="Layer 1" inkscape:groupmode="layer" id="layer1">
        <path style="fill:#2d5840;fill-opacity:1;stroke-width:0.264583" d="m 98.799979,39.577403 c -2.164248,-0.19251 -2.573925,-0.50141 -2.833815,-2.13676 -0.0827,-0.52042 -0.322337,-1.33721 -0.532527,-1.81509 -0.249467,-0.56719 -0.382157,-1.78441 -0.382157,-3.50573 0,-2.78937 -0.400446,-3.59144 -0.622982,-1.24779 -0.564404,5.94408 -0.729393,7.19939 -1.028271,7.82351 l -0.339664,0.7093 -4.489876,0.0728 c -2.927507,0.0475 -4.743911,-0.0324 -5.21991,-0.22957 -1.015563,-0.42066 -1.635929,-1.55073 -2.455759,-4.47346 -0.387776,-1.38245 -0.734663,-2.54332 -0.770856,-2.57972 -0.03619,-0.0364 -0.589089,0.41691 -1.228661,1.00736 -5.390349,4.97634 -15.83281,5.40217 -21.84762,0.89091 l -0.829646,-0.62225 0.0359,2.41786 0.03589,2.41787 -0.926041,0.54909 c -0.762659,0.45221 -1.36951,0.54909 -3.439584,0.54909 -2.22272,0 -2.689685,-0.0865 -4.035917,-0.74757 -1.736445,-0.85268 -2.475034,-1.79076 -4.005234,-5.08707 l -0.988999,-2.13046 -2.363814,0.80755 -2.363814,0.80755 -2.65e-4,1.81207 c -2.56e-4,1.6652 -0.06353,1.87117 -0.780674,2.54108 -1.009518,0.94303 -3.602069,1.68323 -5.991685,1.71069 -2.354848,0.0271 -2.752932,-0.25736 -2.752932,-1.96689 0,-0.87789 -0.12084,-1.30858 -0.396875,-1.41451 -0.265843,-0.10201 -0.396875,-0.52018 -0.396875,-1.26655 v -1.11427 l -0.977829,1.14238 c -3.58911,4.19307 -9.899947,4.99295 -15.381725,1.94958 C 9.6253943,35.414463 6.6279661,32.716483 5.2380997,30.823113 2.4607182,27.039553 0.06023836,19.495313 0.07066036,14.582833 0.08370436,8.4376839 2.8305052,3.373846 7.3605195,1.143726 8.9010029,0.38534606 9.4730313,0.25296606 11.614162,0.15931606 c 2.864381,-0.12527 4.241633,0.15871 6.840445,1.41047994 4.290935,2.06682 8.169965,6.6946982 9.944843,11.864687 0.705075,2.0538 0.647116,2.11023 1.683081,-1.63887 1.376389,-4.9810679 3.611073,-8.696777 6.083152,-10.114717 5.492144,-3.1501998 11.920768,3.20659 16.610587,16.424967 0.989335,2.78846 2.323129,7.49918 2.323129,8.20487 0,0.82883 0.325692,0.61798 1.322917,-0.85643 0.509323,-0.75304 1.432057,-1.9921 2.050521,-2.75346 0.618463,-0.76136 1.124479,-1.47644 1.124479,-1.58908 0,-0.11263 -0.458483,-0.8648 -1.018852,-1.67149 -1.05033,-1.51201 -1.444787,-2.45079 -2.435794,-5.797 -0.780114,-2.63412 -0.645279,-5.6566988 0.337984,-7.5764876 0.862581,-1.6841694 3.095725,-3.7982194 4.968745,-4.7037594 4.641615,-2.24406988 11.270131,-2.07723988 16.433073,0.4136 1.782644,0.86002 1.793706,0.86167 2.047574,0.30449 0.140385,-0.30811 0.712874,-0.78226 1.272196,-1.05365 0.869098,-0.42169997 1.574726,-0.48535997 4.853408,-0.43784997 4.458108,0.0646 6.13524,0.23525 6.75327,0.68716997 0.264716,0.19356 0.503439,0.85038 0.590812,1.62556 0.08064,0.71542 0.316847,1.471 0.524907,1.67906 0.310769,0.31076 0.364696,1.4686994 0.30213,6.487147 -0.06788,5.44445 -0.02981,6.11779 0.350018,6.19094 0.588373,0.11331 0.68023,-0.46793 1.12069,-7.09113 0.403227,-6.063547 0.802874,-7.925687 1.847918,-8.610437 0.897254,-0.58790997 2.549205,-0.69106997 7.232795,-0.4517 4.86877,0.24884 5.24552,0.40792 5.52051,2.33108 0.082,0.57339 0.34607,1.45924 0.58684,1.9685597 0.36469,0.7714297 0.43534,1.8315991 0.42315,6.3499973 -0.0223,8.2776 -0.7588,14.44682 -2.5278,21.175 -0.93212,3.54523 -1.88385,5.4614 -3.04826,6.13723 -0.96015,0.55729 -3.93561,0.77587 -6.932651,0.50929 z m -45.261415,-4.04377 c 1.614339,-0.5373 1.618308,-0.55114 1.285552,-4.48511 -0.410956,-4.8585 -1.285602,-8.99361 -2.765568,-13.07493 -0.685993,-1.89177 -1.355902,-3.57314 -1.488691,-3.73638 -0.416502,-0.51202 -2.090899,-0.63981 -2.900138,-0.22133 -0.410369,0.21221 -1.198523,0.38746 -1.751452,0.38944 -1.529037,0.005 -2.029282,0.21793 -2.517844,1.06919 -0.308226,0.53706 -0.653782,0.77929 -1.111702,0.77929 -0.808646,0 -1.212239,0.6727 -1.212239,2.02053 0,0.75755 -0.197921,1.20118 -0.824143,1.84728 l -0.824142,0.8503 0.691851,0.90706 c 0.894268,1.17245 0.883944,1.73072 -0.03575,1.9335 -0.400183,0.0882 -1.341242,0.32863 -2.091243,0.53421 -0.750001,0.20558 -1.494142,0.37378 -1.653646,0.37378 -0.458859,0 -0.339006,-1.05463 0.260622,-2.29329 0.455605,-0.94116 0.736442,-1.18749 1.62732,-1.42738 0.59218,-0.15945 1.212472,-0.42933 1.378426,-0.59973 0.82001,-0.84194 1.206125,-1.71747 1.206125,-2.73492 0,-1.16965 0.646559,-1.94051 1.627597,-1.94051 0.317236,0 0.572061,-0.41464 0.856827,-1.3942 0.222917,-0.76682 0.763836,-1.86814 1.202039,-2.4474 0.438203,-0.57925 0.800045,-1.18127 0.804093,-1.3378 0.004,-0.15653 0.298455,-0.5580797 0.654238,-0.8923197 0.355785,-0.3342397 0.767035,-0.9523894 0.913892,-1.3736591 0.241768,-0.6935397 0.153156,-0.9093397 -0.9373,-2.2826788 C 41.899022,0.91573603 38.056713,0.08505606 34.832765,3.596706 c -2.364406,2.5753994 -4.322696,7.307837 -5.128048,12.392507 -0.149818,0.94589 -0.378653,2.31511 -0.508521,3.04271 -0.182007,1.01971 -0.1514,1.41865 0.13354,1.74063 0.504968,0.57059 0.456287,1.56712 -0.205782,4.2125 -0.410615,1.64066 -0.591283,3.33642 -0.667957,6.26946 l -0.105103,4.02051 0.953328,0.17884 c 1.957473,0.36723 5.853198,-0.55695 6.943419,-1.64717 0.615839,-0.61583 0.651483,-0.78648 0.491159,-2.35135 -0.160128,-1.56294 -0.128524,-1.71509 0.428763,-2.06416 0.66681,-0.41768 4.953047,-1.86934 5.082876,-1.72147 0.04513,0.0514 0.699571,1.35796 1.454314,2.90345 0.75474,1.5455 1.715868,3.13919 2.135844,3.54155 1.514721,1.4512 5.4317,2.17319 7.69797,1.41892 z m 38.304804,-0.0576 c 0.442971,-0.53375 0.749988,-2.56004 0.958152,-6.32376 l 0.186581,-3.37344 h 1.274419 1.274417 l 0.088,4.65194 c 0.0802,4.24236 0.13322,4.68496 0.601587,5.02708 0.380457,0.27791 1.398811,0.37515 3.928736,0.37515 4.229,0 4.86063,-0.23879 5.80764,-2.19554 0.70284,-1.45225 2.09058,-6.70839 2.60475,-9.86564 l 0.30531,-1.87472 -1.02378,-1.56486 c -0.56307,-0.86068 -1.11747,-1.60602 -1.23199,-1.65632 -1.25471,-0.5511 -2.85491,-2.95429 -2.80741,-4.21617 0.0268,-0.71182 0.0292,-0.71082 0.22173,0.0943 0.31412,1.31322 1.32832,2.90246 2.16927,3.39922 0.42939,0.25365 1.20893,1.10613 1.73231,1.8944 0.52339,0.78827 0.98688,1.43323 1.03,1.43323 0.0431,0 0.0827,-0.20836 0.088,-0.46302 0.005,-0.25467 0.14246,-1.86665 0.30487,-3.58219 0.32979,-3.48376 0.25129,-3.75414 -1.15073,-3.96372 -0.46785,-0.0699 -1.53927,-0.27831 -2.38094,-0.46306 -1.35452,-0.29733 -1.56727,-0.28654 -1.85208,0.0939 -0.28927,0.38639 -0.40953,0.35256 -1.19044,-0.33491 -0.76707,-0.67527 -4.005531,-2.04968 -5.084445,-2.15783 -1.216544,-0.12196 -1.219654,-0.11488 -1.542571,3.51599 -0.17087,1.9212 -0.412467,3.59489 -0.536887,3.71931 -0.12442,0.12442 -0.868297,0.18964 -1.653056,0.14493 l -1.426842,-0.0813 0.101759,-7.9616697 c 0.09718,-7.6034173 0.07932,-7.9706773 -0.396875,-8.1618373 -0.274249,-0.1101 -2.522697,-0.25692 -4.996551,-0.32629 -3.997569,-0.11208 -4.598726,-0.0724 -5.404144,0.35664 -1.527807,0.81386 -1.630217,1.29039 -0.489241,2.27655 1.893478,1.6365597 1.904273,3.0760388 0.04199,5.5980573 l -1.160063,1.5710197 v 4.28269 c 0,3.1305 0.106773,4.58531 0.396875,5.40755 0.521814,1.47898 0.503905,3.84117 -0.04194,5.53127 -0.374224,1.15873 -0.396742,1.70042 -0.152976,3.68024 0.336843,2.73578 1.333089,5.23122 2.232538,5.59214 0.334515,0.13423 2.468867,0.25161 4.743003,0.26083 3.163374,0.0128 4.204393,-0.0671 4.431051,-0.3402 z m -70.585747,-1.48417 c 4.246115,-1.59961 7.089312,-5.75291 7.727461,-11.28817 0.210463,-1.82554 0.2169,-1.8236 -4.348507,-1.31244 -2.231107,0.24981 -4.067741,0.476 -4.081412,0.50266 -0.01368,0.0267 -0.182092,0.44311 -0.374274,0.92545 -0.526834,1.32223 -1.947739,2.16573 -3.648282,2.16573 -2.440895,0 -4.543245,-1.34321 -5.59095,-3.5721 -1.4503057,-3.0854 0.05458,-6.12511 3.181128,-6.42553 1.126683,-0.10826 1.289113,-0.1994 1.289113,-0.72335 0,-0.32972 -0.162197,-0.66173 -0.360436,-0.7378 -0.200227,-0.0768 -0.624655,-1.23608 -0.954858,-2.608 C 13.769674,9.5599833 13.382078,8.3004942 13.235282,8.1194242 13.088486,7.9383642 13.025264,7.4926345 13.094794,7.1289148 13.293525,6.0893254 12.737069,5.8341254 11.320342,6.3151151 c -0.670232,0.22755 -1.4087477,0.41373 -1.6411467,0.41373 -0.2323997,0 -0.8193274,0.2452197 -1.3042821,0.5449397 C 7.2364968,7.9773642 5.9395834,8.3510542 5.7425617,8.0322642 5.6592517,7.8974642 5.069084,7.7871745 4.431081,7.7871745 c -0.8780728,0 -1.2544902,-0.13489 -1.5487492,-0.5550097 C 2.5106663,6.7015451 2.4822183,6.6986351 2.2346477,7.1660648 2.0922277,7.4349445 1.724269,8.4723039 1.4169634,9.4713133 -2.1944164,21.211433 7.5257095,35.540833 18.454607,34.588193 c 0.873125,-0.0761 2.134481,-0.34444 2.803014,-0.59629 z m 49.996462,-1.20548 c 6.882815,-1.78351 10.665505,-7.381 8.37257,-12.38943 -1.213609,-2.65087 -3.330919,-4.49572 -6.758496,-5.88879 -0.823285,-0.33461 -1.496882,-0.76332 -1.496882,-0.95271 0,-0.54045 1.063326,-0.29744 3.040702,0.69494 l 1.803022,0.90488 2.472931,-3.33266 C 80.048039,9.9896433 81.305466,8.2425242 81.48221,7.9401242 81.974222,7.0983148 81.882388,5.8182454 81.274547,5.045496 79.885006,3.278986 73.832672,0.63914603 72.411204,1.179586 c -0.394044,0.14982 -0.779307,0.20953 -0.856137,0.1327 -0.07683,-0.0768 0.0062,-0.13969 0.1846,-0.13969 0.178364,0 0.250711,-0.11907 0.160774,-0.26458997 -0.08994,-0.14552 -0.454152,-0.26458 -0.809365,-0.26458 -0.482698,0 -0.654945,0.15038 -0.681874,0.59530997 l -0.03603,0.59531 -0.114663,-0.59531 C 70.152848,0.69016603 70.000916,0.64342603 68.323188,0.64342603 c -5.122608,0 -9.300321,2.24288997 -11.14062,5.98106907 -0.770385,1.5648691 -0.81911,1.8306688 -0.709263,3.8688879 0.06487,1.20372 0.279794,2.44466 0.477602,2.75763 0.476803,0.75442 2.305711,1.07567 2.876174,0.5052 0.359582,-0.35958 0.453779,-0.3551 0.89313,0.0425 0.460584,0.41683 0.547614,0.41408 1.398366,-0.0441 0.498967,-0.26871 0.983837,-0.72999 1.077491,-1.02506 0.09366,-0.29508 0.676297,-1.08135 1.29476,-1.74727 0.618464,-0.66592 1.393219,-1.7465394 1.721681,-2.4013891 0.328459,-0.6548397 1.064601,-1.7011291 1.635871,-2.3250885 0.71201,-0.7776797 0.989976,-1.2878994 0.883836,-1.6223094 -0.09912,-0.3123 0.0013,-0.54781 0.279384,-0.65447 0.320169,-0.12286 0.391734,-0.0559 0.272468,0.25489 -0.08896,0.23183 -0.161751,0.59303 -0.161751,0.80266 0,0.2096297 -0.45612,0.8844994 -1.0136,1.4997091 -0.55748,0.6152197 -1.383281,1.7734191 -1.835116,2.5737785 -0.451834,0.8003697 -1.24587,1.8655194 -1.764525,2.3670094 -0.518654,0.50149 -0.943009,1.10364 -0.943009,1.33813 0,0.23448 -0.506016,0.78375 -1.124479,1.2206 -1.478823,1.04456 -2.183366,2.35297 -1.946601,3.61504 0.174848,0.93202 0.772459,1.45199 3.761822,3.27313 0.472025,0.28756 0.473713,0.31508 0.03031,0.49384 -0.307691,0.12405 -0.840364,-0.0561 -1.545132,-0.52246 -1.046355,-0.69244 -1.090139,-0.69867 -1.61272,-0.22926 -0.295442,0.26538 -1.594429,1.88531 -2.886641,3.59983 -2.048166,2.71754 -2.349474,3.2535 -2.349474,4.17922 0,1.30606 0.634378,2.00556 2.818969,3.10834 3.668149,1.85168 8.370202,2.31389 12.541965,1.23288 z m -52.717408,-8.86645 c 1.067263,-0.65069 1.77768,-2.14775 1.375661,-2.89892 -0.737735,-1.37847 -3.173378,-2.51489 -4.958754,-2.31366 -0.993762,0.11202 -1.417709,0.33045 -2.112283,1.08837 -1.095531,1.19543 -1.140076,2.18504 -0.14138,3.14086 1.598724,1.53008 4.216604,1.97113 5.836756,0.98335 z m 5.606473,-4.76612 c 5.103498,-1.48854 5.055196,-1.43625 4.063363,-4.39907 C 26.724434,10.327433 25.325346,7.9666942 22.587523,5.2735957 19.36027,2.099056 16.293225,0.76932603 12.236898,0.78603603 9.4568816,0.79743603 7.3415178,1.425446 6.0495844,2.622766 c -0.6117037,0.56691 -0.6918507,0.84389 -0.6918507,2.39101 0,1.8982088 0.306792,2.7733585 0.9722314,2.7733585 0.233448,0 1.0049537,-0.35719 1.7144571,-0.7937497 0.7095067,-0.4365597 1.5709071,-0.7937494 1.9142281,-0.7937494 0.3433177,0 1.1050717,-0.16966 1.6927827,-0.37701 0.984639,-0.3473997 1.104014,-0.3378497 1.519833,0.12163 0.303091,0.33491 0.395875,0.7193297 0.282575,1.1707594 -0.09278,0.3696697 -0.06087,0.6721197 0.0709,0.6721197 0.131776,0 0.305306,0.3274197 0.38562,0.7275994 0.533201,2.6567591 1.113404,4.4987391 1.548352,4.9155691 0.308237,0.2954 0.444183,0.67485 0.349105,0.97442 -0.12228,0.38527 0.08835,0.59926 0.98095,0.99658 1.077974,0.47985 3.385627,2.66821 3.385627,3.21061 0,0.1393 0.120716,0.57078 0.268261,0.95885 0.201962,0.5312 0.381786,0.65746 0.727605,0.51087 0.252637,-0.10708 1.590436,-0.52461 2.972884,-0.92782 z m 36.03509,-1.96079 c -0.07582,-0.64948 0.06684,-1.15638 0.494488,-1.75696 0.579522,-0.81386 0.583535,-0.85691 0.112037,-1.20168 -0.412972,-0.30197 -0.554426,-0.29839 -0.909605,0.023 -0.313288,0.28352 -0.672378,0.32384 -1.407547,0.15803 -0.54283,-0.12243 -0.986962,-0.13269 -0.986962,-0.0228 0,0.40596 2.471166,3.71323 2.774498,3.71323 0.01633,0 -0.01828,-0.41079 -0.07691,-0.91286 z m 19.518998,-0.0793 c -0.0079,-0.92979 -0.03284,-0.95989 -0.396875,-0.47859 -0.418349,0.5531 -0.493665,1.0128 -0.212071,1.29439 0.403521,0.40353 0.616862,0.11772 0.608946,-0.8158 z m -32.138462,-3.44065 c 0.582083,-0.16808 1.385922,-0.37286 1.786308,-0.45506 l 0.727977,-0.14945 -1.0516,-2.09153 C 48.44308,9.8266933 47.868339,8.8227639 47.744255,8.7460839 47.193234,8.4055242 43.7459,13.268583 44.114992,13.865783 c 0.211862,0.3428 1.920335,0.2472 3.443782,-0.19271 z m 56.314436,-0.97764 c 0.0981,-0.25575 0.02,-0.33461 -0.23476,-0.23686 -0.21003,0.0806 -0.31601,0.25313 -0.23549,0.3834 0.20278,0.32811 0.29969,0.29791 0.47025,-0.14654 z m 5.73032,-0.0667 c 0.0728,-0.068 0.13229,-2.25356 0.13229,-4.8567085 0,-6.3263985 0.41911,-5.9080585 -6.02498,-6.0139685 -3.61431,-0.0594 -4.988681,0.008 -5.484378,0.27029 -0.795827,0.42057 -1.279974,1.73381 -1.624061,4.4052191 -0.23252,1.8052191 -0.21053,1.9920088 0.289337,2.4576988 0.29754,0.2772097 0.540977,0.6497894 0.540977,0.8279594 0,0.17818 0.565547,0.4588797 1.256764,0.6237797 0.691217,0.1649 1.971131,0.62605 2.844261,1.02476 0.87312,0.39872 2.12328,0.76602 2.77812,0.81621 0.65485,0.0502 1.72641,0.2615 2.38125,0.46956 1.05479,0.33513 2.539,0.32248 2.91042,-0.0248 z M 97.035848,9.6392433 c 0,-0.1940297 -0.14883,-0.4023897 -0.330727,-0.4630197 -0.19674,-0.0656 -0.33073,0.122 -0.33073,0.4630197 0,0.34101 0.13399,0.5285997 0.33073,0.4630197 0.181897,-0.0606 0.330727,-0.2689997 0.330727,-0.4630197 z M 5.137497,5.5131757 5.049547,3.502546 4.393378,4.118976 C 2.4357437,5.9580854 2.3664573,7.5220145 4.2425622,7.5231845 l 0.9828798,5.3e-4 -0.08794,-2.0106288 z M 171.9698,39.010653 c -4.51073,-0.8054 -8.65513,-4.86139 -10.2568,-10.03802 l -0.44906,-1.45134 -0.59472,1.17927 c -1.84985,3.66802 -5.17188,7.05834 -8.52537,8.70063 -5.03398,2.46526 -9.77846,1.88835 -13.60496,-1.65431 -1.95627,-1.81116 -3.16607,-4.00814 -4.29121,-7.79277 -1.45785,-4.90379 -1.62138,-7.97191 -0.65584,-12.30503 1.4854,-6.6661394 5.90675,-12.301647 11.51674,-14.67937697 1.47985,-0.62721997 2.01515,-0.70824997 4.72534,-0.71526997 3.00692,-0.008 3.08903,0.008 5.0689,0.98668994 2.47887,1.22513 4.31282,3.13447 5.60016,5.8303988 0.50064,1.0484294 0.98818,2.1437488 1.08342,2.4340485 0.14006,0.42692 0.36557,0.16217 1.17964,-1.3848791 1.31912,-2.5068285 2.74348,-4.2150782 3.94386,-4.7298782 0.87762,-0.37639 1.33949,-0.37772 4.86532,-0.0141 2.1426,0.22099 4.01784,0.47732 4.16719,0.56962 0.14934,0.0923 0.27154,0.39892 0.27154,0.68138 0,0.6399397 0.13612,0.6410597 1.02466,0.008 0.78417,-0.55838 3.82674,-1.99916 5.42475,-2.56883 1.34363,-0.47899 2.40043,-0.4634 2.81954,0.0416 0.2982,0.35931 0.42839,0.32045 1.10782,-0.33073 l 0.76991,-0.73789 9.97093,-0.0768 c 5.55706,-0.0428 10.9324,0.0402 12.14287,0.18751 3.42419,0.41677 5.0333,1.50407 5.66474,3.82775 0.16271,0.5987597 0.53641,1.8534088 0.83045,2.7880985 0.46951,1.4924791 0.51719,2.1691188 0.39148,5.5562485 -0.22335,6.01779 -0.28537,6.08586 -5.74236,6.30188 -2.04222,0.0809 -3.71312,0.2469 -3.71312,0.36901 0,0.12211 0.3032,1.38436 0.67378,2.80501 2.76239,10.58978 3.30125,12.862 3.15759,13.31463 -0.0897,0.28255 -0.37861,0.62909 -0.64209,0.77009 -0.42882,0.2295 -6.25817,0.79153 -12.88181,1.24198 -2.37598,0.16158 -2.42385,0.15308 -2.85636,-0.50701 -0.24194,-0.36925 -0.50533,-1.13043 -0.58533,-1.69153 -0.08,-0.56109 -0.32951,-1.43083 -0.55448,-1.93274 -0.51945,-1.1589 -0.33308,-5.04837 0.48897,-10.20418 0.31429,-1.97125 0.5058,-3.64974 0.42557,-3.72997 -0.0802,-0.0802 -0.81196,-0.0627 -1.62606,0.0391 -1.22816,0.15345 -1.49754,0.28104 -1.5822,0.74942 -1.34456,7.43945 -4.28772,12.57845 -9.01435,15.73981 -3.09422,2.06954 -6.6964,2.96543 -9.73905,2.42216 z m 4.187,-4.11679 c 6.92903,-1.80126 12.3115,-9.53042 12.98066,-18.64006 0.31629,-4.30583 -0.96308,-9.1016082 -3.26061,-12.222587 -1.14625,-1.55706 -1.20431,-1.59568 -2.19895,-1.46227 -1.48487,0.19917 -6.28246,2.58574 -7.63165,3.7963891 l -1.15832,1.0393894 0.30755,1.8448491 c 0.25351,1.5207294 0.2342,2.2632094 -0.10994,4.2260994 -0.66352,3.78463 -1.08003,4.36535 -3.7018,5.16133 -1.0763,0.32677 -3.57188,2.47962 -3.57188,3.08134 0,0.17878 -0.10795,0.39178 -0.2399,0.47333 -0.13195,0.0816 -0.17379,-0.10458 -0.093,-0.41362 0.15539,-0.59419 1.75029,-2.2591 3.32597,-3.47197 0.82153,-0.63236 0.92514,-0.83681 0.80451,-1.5875 -0.20799,-1.29429 0.5492,-4.12539 2.19947,-8.2237791 1.09668,-2.7235585 1.3958,-3.7287079 1.1541,-3.8780879 -0.32356,-0.19997 -1.74053,-0.37172 -5.56366,-0.67439 -2.51981,-0.19948 -3.24722,0.21152 -4.90214,2.7697591 -2.0885,3.2284882 -2.24406,3.7927579 -2.33059,8.4534979 -0.0635,3.41929 -0.18325,4.48364 -0.6952,6.17834 l -0.6185,2.04742 0.73854,2.27036 c 0.4062,1.2487 0.87062,2.41277 1.03206,2.58683 0.16145,0.17405 0.53166,0.7841 0.8227,1.35565 0.61169,1.20125 2.72882,3.40704 3.8035,3.96278 l 0.73674,0.38098 -0.11368,-1.90176 c -0.0831,-1.38961 -0.24973,-2.04955 -0.61889,-2.45055 -0.27787,-0.30184 -0.4373,-0.61672 -0.35429,-0.69973 0.083,-0.083 0.20691,-0.90144 0.27532,-1.81872 0.0684,-0.91729 0.1869,-1.73031 0.26331,-1.80671 0.0764,-0.0764 0.0808,0.67329 0.01,1.666 -0.0711,0.99272 -0.19612,1.87181 -0.27785,1.95355 -0.0817,0.0817 0.0888,0.31486 0.37887,0.51807 0.3947,0.27645 0.53132,0.68207 0.54273,1.61123 0.008,0.68297 0.0991,1.71421 0.20156,2.29165 0.17664,0.99548 0.26154,1.07347 1.63839,1.50519 1.83465,0.57526 4.19768,0.60475 6.22515,0.0777 z m -12.84285,-7.19948 c 0,-0.15911 -0.20836,-0.34373 -0.46302,-0.41028 -0.41744,-0.10909 -0.41898,-0.12403 -0.0156,-0.1517 0.47734,-0.0327 0.90167,0.42823 0.63742,0.69247 -0.0873,0.0873 -0.15879,0.0286 -0.15879,-0.13049 z m 0.80179,-1.73454 c -0.0161,-0.43076 0.54758,-1.23928 0.86116,-1.23533 0.2213,0.003 0.23196,0.0646 0.0342,0.19844 -0.15796,0.10691 -0.42223,0.43251 -0.58727,0.72355 -0.16504,0.29105 -0.30369,0.43205 -0.30812,0.31334 z m 2.90237,-1.50396 c 0,-0.53708 -0.69586,-0.72736 -1.20945,-0.33073 -0.14132,0.10914 -0.0244,-0.0168 0.25978,-0.2798 0.28419,-0.26303 0.6439,-0.65047 0.79934,-0.86097 0.21753,-0.29456 0.29844,-0.10823 0.35127,0.80897 0.0378,0.65543 0.008,1.1917 -0.0661,1.1917 -0.0741,0 -0.13479,-0.23813 -0.13479,-0.52917 z m -20.35202,10.2526 c 0.0166,-0.26282 0.0484,-0.26248 0.15489,0.002 0.0737,0.18281 0.26002,0.2545 0.41404,0.1593 0.15403,-0.0952 0.64988,-0.2141 1.10188,-0.26424 2.47108,-0.27411 6.77354,-3.40057 8.99971,-6.5398 2.75859,-3.89004 3.86317,-7.12408 4.05763,-11.88008 0.16235,-3.97071 -0.24557,-6.1242 -1.71335,-9.0449682 -4.9743,-9.8984186 -18.04341,-7.71375871 -23.65415,3.9541382 -3.28558,6.8326 -2.99649,14.41591 0.74381,19.51122 0.84297,1.14836 1.00535,1.26346 1.1745,0.83257 0.16621,-0.4234 0.19914,-0.39614 0.21488,0.17781 0.0272,0.99274 2.44408,2.60127 4.71085,3.13532 1.56392,0.36845 3.7709,0.34354 3.79531,-0.0428 z m -0.48391,-1.06487 c -0.76399,-0.46673 -1.38907,-0.93538 -1.38907,-1.04144 0,-0.10606 0.42572,0.0961 0.94605,0.44916 0.52033,0.3531 1.17517,0.71473 1.45521,0.80361 0.28004,0.0889 0.50916,0.27264 0.50916,0.40835 0,0.32422 0.0712,0.35322 -1.52135,-0.61968 z m -1.62296,-1.96469 c -0.0169,-0.32019 -0.23905,-0.70352 -0.49371,-0.85185 -0.43881,-0.25558 -0.43837,-0.2701 0.008,-0.27773 0.53931,-0.009 0.82125,0.53403 0.64008,1.23327 -0.10026,0.38694 -0.12985,0.3671 -0.15467,-0.10369 z m -4.21716,-1.61891 c 0.48575,-0.73704 2.19349,-2.08908 2.0034,-1.58612 -0.10005,0.26472 0.0573,0.73335 0.38698,1.15246 l 0.5556,0.70632 -0.57038,-0.35621 c -0.31371,-0.19591 -0.57038,-0.50616 -0.57038,-0.68943 0,-0.18328 -0.12609,-0.33323 -0.2802,-0.33323 -0.15411,0 -0.22802,0.0893 -0.16425,0.19843 0.0638,0.10914 -0.28227,0.45811 -0.76897,0.77549 -0.67628,0.44099 -0.81581,0.47218 -0.5918,0.13229 z m 2.74827,-3.8296 c 0.0994,-0.26094 0.24731,-0.40779 0.32877,-0.32632 0.0815,0.0815 1.7e-4,0.29495 -0.18065,0.47443 -0.26131,0.25936 -0.2917,0.22897 -0.14812,-0.14811 z m 0.14598,-1.78021 c -0.0169,-0.2214 0.68368,-1.09231 1.5568,-1.93536 0.87313,-0.84304 1.5875,-1.4129 1.5875,-1.26634 0,0.14656 -0.64961,0.82731 -1.44359,1.51278 -0.79398,0.68547 -1.49454,1.43647 -1.55681,1.66889 -0.095,0.35472 -0.11814,0.35794 -0.1439,0.02 z m 3.79076,-4.28653 c 0.57504,-0.82097 0.51909,-1.06886 -0.35322,-1.56506 -1.40453,-0.79895 -1.70023,-3.05449 -0.55109,-4.20363 1.21953,-1.21953 3.69744,0.0213 3.69744,1.8516 0,1.15849 -0.68299,2.35058 -1.45819,2.54515 -0.36015,0.0904 -0.58975,0.26964 -0.51021,0.39833 0.1598,0.25857 -0.68435,1.54014 -1.02317,1.55334 -0.11739,0.005 -0.0281,-0.2563 0.19844,-0.57973 z m 1.33605,-2.31934 c 0.0927,-0.14999 -0.0135,-0.19434 -0.24897,-0.10399 -0.45837,0.17589 -0.54224,0.36554 -0.16165,0.36554 0.13693,0 0.32171,-0.1177 0.41062,-0.26155 z m 54.01544,15.89803 c 3.22267,-0.26945 5.99087,-0.57116 6.15156,-0.67048 0.16069,-0.0993 0.29216,-0.43264 0.29216,-0.74072 0,-0.61565 -2.33152,-9.69917 -2.59864,-10.12424 -0.0915,-0.14552 -0.132,-0.47294 -0.0901,-0.7276 0.0818,-0.49696 -0.3487,-0.63506 -0.61855,-0.19844 -0.0899,0.14552 -0.28875,0.26458 -0.4418,0.26458 -0.15305,0 -0.0247,-0.20836 0.28522,-0.46302 l 0.56349,-0.46302 -0.53418,-1.91488 c -0.87077,-3.12142 -1.13108,-2.88512 3.36842,-3.05768 2.14643,-0.0823 4.163,-0.22949 4.48127,-0.32704 0.9011,-0.2762 1.14112,-1.47573 1.14112,-5.7028597 0,-4.2730976 -0.10349,-4.7741473 -1.21539,-5.8845173 -1.72531,-1.72292 -4.05664,-2.02613 -15.58565,-2.02708 -8.68005,-7.1e-4 -10.00838,0.12701 -10.83639,1.04195 -0.44456,0.49124 -0.43994,0.54821 0.10672,1.31593 1.64643,2.3121991 2.83415,6.074377 3.09998,9.819427 l 0.17303,2.43772 2.7674,-0.18538 2.7674,-0.18538 -0.12321,0.87969 c -0.0678,0.48383 -0.44726,2.65143 -0.84332,4.81689 -0.49606,2.71217 -0.63496,4.02236 -0.44643,4.2109 0.18854,0.18853 0.15,0.36414 -0.12388,0.5644 -0.53547,0.39155 -0.87097,6.37322 -0.40617,7.2417 0.39038,0.72943 0.83944,0.73353 8.66594,0.0792 z m -7.05003,-6.6146 c 0,-0.27476 0.5033,-0.6725 0.65238,-0.51556 0.0484,0.051 -0.0786,0.24616 -0.28219,0.4338 -0.2036,0.18764 -0.37019,0.22443 -0.37019,0.0818 z m 1.85209,-1.23211 c 0.98313,-0.2139 2.3321,-0.25139 2.21478,-0.0616 -0.0711,0.11511 -0.68787,0.19547 -1.3705,0.17859 -0.68264,-0.0169 -1.06257,-0.0696 -0.84428,-0.11704 z m 2.91041,-1.14279 c 0,-0.1277 0.19809,-0.39559 0.4402,-0.59531 0.39915,-0.32927 0.41061,-0.30762 0.12298,0.23218 -0.32806,0.61568 -0.56318,0.76728 -0.56318,0.36313 z m 1.05834,-1.2044 c 0,-0.0728 0.23812,-0.25974 0.52916,-0.4155 0.29104,-0.15576 0.52917,-0.22367 0.52917,-0.15091 0,0.0728 -0.23813,0.25974 -0.52917,0.4155 -0.29104,0.15576 -0.52916,0.22367 -0.52916,0.15091 z m 2.64583,-1.60612 c 0.34177,-0.3638 0.68094,-0.66146 0.7537,-0.66146 0.0728,0 -0.14734,0.29766 -0.48912,0.66146 -0.34177,0.3638 -0.68094,0.66146 -0.7537,0.66146 -0.0728,0 0.14734,-0.29766 0.48912,-0.66146 z" id="path836" />
    </g>
</svg>