<svg xmlns:inkscape="http://www.inkscape.org/namespaces/inkscape" xmlns:sodipodi="http://sodipodi.sourceforge.net/DTD/sodipodi-0.dtd" xmlns="http://www.w3.org/2000/svg" xmlns:svg="http://www.w3.org/2000/svg" width="241mm" height="40mm" viewBox="0 0 241 40" version="1.1" id="svg5" inkscape:version="1.1.2 (0a00cf5339, 2022-02-04)" sodipodi:docname="CashNote.svg">
    <defs id="defs2" />
    <g inkscape:label="Layer 1" inkscape:groupmode="layer" id="layer1">
        <path style="fill:#2d5840;fill-opacity:1;stroke-width:0.264583" d="m 99.18006,39.99123 c -0.87313,-0.0554 -1.83498,-0.15643 -2.13745,-0.22462 -0.64723,-0.14593 -1.16984,-1.1623 -1.16984,-2.27511 0,-0.43483 -0.19856,-1.09364 -0.44124,-1.46402 -0.31416,-0.47946 -0.47655,-1.46742 -0.56385,-3.43027 -0.0674,-1.51628 -0.20788,-2.75686 -0.31209,-2.75686 -0.10421,0 -0.26475,1.31565 -0.35675,2.92367 -0.21173,3.70042 -0.65111,6.24273 -1.16831,6.75993 -0.33756,0.33756 -1.169232,0.38976 -5.10987,0.32073 -5.833391,-0.1022 -5.651733,0.0111 -7.021801,-4.37777 l -0.936009,-2.99838 -1.275043,1.14638 c -2.80638,2.52317 -6.785861,3.93227 -11.125459,3.93941 -4.086532,0.007 -7.852617,-1.05144 -10.24703,-2.87914 l -1.210995,-0.92437 0.179371,2.15085 c 0.112253,1.34598 0.07552,2.34491 -0.09816,2.66943 -0.166468,0.31104 -0.878306,0.69323 -1.778733,0.95499 -2.901429,0.84347 -6.885538,-0.0363 -8.502045,-1.87739 -0.699709,-0.79692 -2.948662,-5.14972 -2.948662,-5.70707 0,-0.31536 0.248248,-0.37671 -2.513542,0.62118 l -2.38125,0.86039 0.09061,1.65016 c 0.0863,1.57172 0.04845,1.69231 -0.796126,2.53689 -1.391841,1.39184 -5.463448,2.33819 -7.592894,1.76479 -1.068652,-0.28776 -1.094295,-0.32149 -1.094295,-1.43941 0,-0.74411 -0.185195,-1.38018 -0.529167,-1.81747 -0.291042,-0.37 -0.529167,-0.98796 -0.529167,-1.37325 0,-0.6748 -0.04998,-0.65132 -1.361069,0.63925 C 20.073517,41.46318 9.7236491,38.76944 4.1694201,29.63749 2.7664681,27.33083 1.9165918,25.1604 0.88176271,21.24139 -1.4641935,12.357 0.99351271,4.6569296 7.1456701,1.6163596 11.360986,-0.46696037 16.544015,0.24647963 21.009936,3.5247696 24.110493,5.8007896 26.991937,9.85792 28.302289,13.79255 l 0.69918,2.09945 0.625406,-2.47408 C 33.098047,-0.31387037 40.570857,-2.7571004 47.484505,7.5793696 49.970934,11.29679 52.756283,17.82406 54.217656,23.35805 c 0.384281,1.45521 0.776435,2.91552 0.871461,3.24515 0.151772,0.52647 0.439353,0.24356 2.366332,-2.32792 l 2.193566,-2.92723 -0.770626,-0.97937 c -1.040291,-1.32209 -1.91815,-3.0849 -2.332344,-4.68354 -0.188519,-0.72761 -0.533048,-1.97776 -0.765625,-2.77813 -0.930545,-3.2022904 0.19971,-7.0424604 2.729672,-9.2743504 2.653445,-2.34083 6.017374,-3.48091997 10.290368,-3.48758997 3.249213,-0.005 5.750079,0.54307 8.703853,1.90769997 2.09387,0.96736 2.141662,0.9762 2.38125,0.44091 0.134472,-0.30045 0.661212,-0.78903 1.170535,-1.08574 0.83588,-0.48694 1.312447,-0.53331 4.894792,-0.47617 6.67398,0.10645 7.27604,0.29262 7.27604,2.24987 0,0.66109 0.18084,1.2853 0.46302,1.59824 0.41282,0.45781 0.46302,1.17683 0.46302,6.6315104 0,5.3886 0.0503,6.12774 0.42183,6.19954 0.35728,0.0691 0.46783,-0.45661 0.72252,-3.43568 0.16538,-1.93446 0.36503,-4.7078204 0.44365,-6.1630304 0.15577,-2.88309 0.69466,-4.9651 1.51984,-5.87194 0.73021,-0.80247 2.36531,-0.94516 7.58594,-0.66199 4.93751,0.26781 5.0988,0.34339 5.4288,2.54397 0.098,0.65369 0.36726,1.56744 0.5983,2.03057 0.365,0.73167 0.39905,1.765 0.25975,7.8830104 -0.19749,8.67375 -0.85405,13.66918 -2.64803,20.14758 -0.91076,3.28893 -1.71853,4.7857 -2.8971,5.36821 -1.02745,0.50783 -3.55384,0.72055 -6.40841,0.5396 z M 54.068597,35.56837 c 0.65032,-0.31676 0.660263,-0.36881 0.590389,-3.09125 -0.132241,-5.15238 -1.300533,-10.57199 -3.477212,-16.13052 -0.748232,-1.91074 -0.814631,-1.99065 -1.789393,-2.15348 -0.623401,-0.10413 -1.26645,-0.0398 -1.673784,0.16756 -0.363802,0.18516 -1.413917,0.42274 -2.33359,0.52795 -1.416543,0.16206 -1.716683,0.28907 -1.96359,0.83098 -0.1603,0.35182 -0.598466,0.71277 -0.973701,0.8021 -1.087834,0.259 -1.343702,0.60793 -1.343702,1.83245 0,0.89941 -0.172437,1.34542 -0.79375,2.05305 -0.436563,0.49722 -0.79375,0.99019 -0.79375,1.0955 0,0.1053 0.303329,0.55194 0.674063,0.99254 0.992754,1.17982 0.77208,1.52189 -1.335522,2.07023 -3.226638,0.83948 -3.632287,0.58862 -2.53288,-1.5664 0.623509,-1.22217 0.965949,-1.51213 2.062708,-1.74659 1.267785,-0.27102 2.189964,-1.5098 2.189964,-2.94182 0,-1.28877 0.665567,-2.22866 1.578192,-2.22866 0.566563,0 1.067642,-0.72297 1.067642,-1.54041 0,-0.28428 0.416718,-1.12268 0.926041,-1.8631 0.509323,-0.74043 0.926042,-1.42268 0.926042,-1.51612 0,-0.0934 0.355468,-0.57474 0.789927,-1.06956 C 47.159117,8.6162696 47.145883,8.1269896 45.760826,6.3270096 40.746805,-0.18909037 35.705394,0.43992963 32.119713,8.0290396 31.051008,10.29096 30.156063,13.43449 29.453507,17.3942 c -0.546783,3.08176 -0.551241,3.24219 -0.103857,3.73655 0.425535,0.47021 0.438327,0.70681 0.142645,2.63833 -0.178647,1.167 -0.479049,2.56395 -0.667562,3.10435 -0.481521,1.38034 -0.744837,4.80458 -0.533998,6.94426 l 0.178149,1.80794 0.9701,0.16389 c 1.080934,0.18263 4.75284,-0.49002 5.8927,-1.07946 1.024572,-0.52983 1.274413,-1.14212 1.274413,-3.12322 0,-1.37739 0.09392,-1.77676 0.463021,-1.96888 0.730342,-0.38015 4.48087,-1.6297 4.891558,-1.6297 0.21195,0 0.85615,1.06995 1.503162,2.49658 1.430925,3.15514 2.536314,4.47681 4.19199,5.01218 2.250104,0.7276 5.002596,0.75822 6.412769,0.0713 z m 36.955358,0.49585 c 0.75674,-0.13956 0.867413,-0.28394 1.119825,-1.46089 0.15405,-0.71831 0.35998,-2.80044 0.45762,-4.62694 0.0976,-1.8265 0.31677,-3.51132 0.48693,-3.74403 0.23986,-0.32803 0.554,-0.3818 1.39781,-0.23924 l 1.08841,0.18389 0.083,4.59725 c 0.06,3.32664 0.17803,4.69212 0.42692,4.94052 0.24954,0.24905 1.37526,0.34327 4.10104,0.34327 4.41086,0 4.81854,-0.16497 5.75222,-2.32774 0.74784,-1.73229 2.31591,-8.00463 2.52689,-10.10767 0.14836,-1.47883 0.10317,-1.66432 -0.66003,-2.70969 -0.45061,-0.6172 -0.81928,-1.23922 -0.81928,-1.38227 0,-0.14304 -0.32743,-0.43042 -0.72761,-0.63861 -1.39884,-0.72774 -2.37789,-2.22911 -2.62387,-4.0237 -0.13038,-0.95124 -0.3638,-1.36868 -1.11862,-2.00047 -1.35434,-1.13359 -5.17851,-2.49173 -5.84909,-2.07728 -0.19768,0.12216 -0.40974,1.44101 -0.55824,3.4718 -0.13172,1.80114 -0.29658,3.42961 -0.36637,3.61883 -0.089,0.2412 -0.58255,0.32028 -1.65144,0.26458 l -1.52456,-0.0794 v -7.84659 c 0,-4.3156304 -0.0935,-7.9412904 -0.20771,-8.0570204 -0.31048,-0.31453 -3.394718,-0.60392 -6.599954,-0.61926 -3.215471,-0.0154 -4.709923,0.40392 -5.189273,1.45597 -0.162164,0.35591 -0.208098,0.64768 -0.102077,0.64837 0.106021,6.9e-4 0.639249,0.41135 1.184953,0.91256 0.889698,0.81715 0.992187,1.04632 0.992187,2.21858 0,1.1334 -0.158382,1.52245 -1.190625,2.92465 l -1.190625,1.6173504 0.0029,4.29874 c 0.0021,3.04218 0.118038,4.67839 0.396875,5.59756 0.216712,0.71435 0.394017,1.85628 0.394017,2.53763 0,0.68135 -0.177305,1.82329 -0.394012,2.53764 -0.50477,1.66393 -0.503222,3.38716 0.005,5.61222 0.596596,2.61175 1.374913,3.85704 2.513169,4.02098 1.469141,0.21159 6.924921,0.3079 7.843663,0.13846 z M 20.817491,34.35405 c 2.925022,-1.00635 5.126966,-3.03826 6.573607,-6.06599 0.90142,-1.88661 1.801797,-6.23133 1.378972,-6.65416 -0.171059,-0.17106 -1.629169,-0.10973 -4.244115,0.1785 l -3.98353,0.43907 -0.316767,0.87601 c -0.924944,2.55788 -4.660496,3.13391 -7.409485,1.14255 -2.309217,-1.67278 -3.3144409,-5.24386 -1.982623,-7.04331 0.910608,-1.23034 2.172494,-1.93846 3.454381,-1.93846 0.968238,0 1.151499,-0.0827 1.151499,-0.51986 0,-0.28592 -0.222216,-0.63878 -0.493813,-0.78413 -0.306814,-0.1642 -0.561324,-0.69375 -0.672087,-1.39837 -0.234844,-1.49398 -1.020014,-4.0205604 -1.28506,-4.1351704 -0.115311,-0.0499 -0.136665,-0.47972 -0.04746,-0.95524 0.203922,-1.08699 -0.230915,-1.29877 -1.637329,-0.79743 -0.562997,0.20069 -1.3440229,0.37012 -1.7356179,0.37651 -0.391594,0.006 -0.786625,0.13237 -0.877847,0.27997 -0.299654,0.48486 -2.103182,1.25117 -2.643494,1.12322 -0.291042,-0.0689 -1.048033,-0.16527 -1.682203,-0.21412 -0.63417,-0.0488 -1.366762,-0.28222 -1.627983,-0.51862 -0.448325,-0.40573 -0.50723,-0.34355 -1.0509033,1.10931 C 0.79551361,11.23301 0.54801891,13.05907 0.70603261,16.08201 1.151584,24.60581 6.8857411,32.47631 14.116513,34.48874 c 1.872279,0.52109 4.976278,0.4587 6.700978,-0.13469 z m 50.062705,-1.21039 c 7.150574,-1.81764 11.006847,-7.53068 8.512173,-12.61071 -1.225151,-2.49483 -4.661104,-5.22621 -7.457131,-5.92796 -0.420407,-0.10552 -0.668723,-0.35369 -0.668723,-0.66833 0,-0.70911 0.409051,-0.63408 2.780694,0.51006 l 2.094717,1.01055 2.621134,-3.57042 c 2.80193,-3.8166904 3.121589,-4.4763204 2.783763,-5.7444304 -0.501454,-1.88234 -7.332781,-5.23142 -9.283665,-4.55134 -0.417489,0.14554 -0.832369,0.19132 -0.921954,0.10173 -0.08959,-0.0896 -0.01695,-0.16288 0.161411,-0.16288 0.178364,0 0.250712,-0.11906 0.160775,-0.26458 -0.08994,-0.14552 -0.394621,-0.26459 -0.677075,-0.26459 -0.465978,0 -0.641344,0.28653 -0.538326,0.87957 0.02085,0.11995 -0.08413,0.14269 -0.233251,0.0505 -0.149128,-0.0922 -0.27114,-0.33914 -0.27114,-0.54884 0,-0.29255 -0.397097,-0.38126 -1.706769,-0.38126 -7.637569,0 -13.375117,5.63048 -11.679873,11.4619104 0.394573,1.35728 0.512241,1.50283 1.418352,1.75448 1.309055,0.36355 1.402847,0.35403 1.794912,-0.18215 0.317884,-0.43473 0.365133,-0.43314 0.876308,0.0295 0.526685,0.47665 0.563978,0.47435 1.479106,-0.0912 0.516337,-0.31911 0.938797,-0.7366 0.938797,-0.92775 0,-0.19114 0.515456,-0.89323 1.145458,-1.56019 0.629999,-0.66695 1.479431,-1.8403104 1.887622,-2.6074404 0.408189,-0.76714 1.213559,-1.8869 1.789711,-2.48836 0.65187,-0.68051 0.938257,-1.16111 0.758211,-1.27238 -0.447082,-0.27632 -0.343633,-0.60084 0.240197,-0.75352 0.357867,-0.0936 0.467225,-0.0393 0.337333,0.16758 -0.105709,0.16833 -0.163825,0.48465 -0.129143,0.70293 0.03468,0.21828 -0.428078,0.93249 -1.028356,1.58714 -0.600279,0.65464 -1.324616,1.68637 -1.609635,2.29273 -0.28502,0.60635 -1.046803,1.6620504 -1.692847,2.3459904 -0.646046,0.68395 -1.238692,1.49879 -1.316995,1.81077 -0.0783,0.31198 -0.485696,0.76428 -0.905323,1.00511 -0.419623,0.24083 -1.123153,0.93512 -1.563396,1.54285 -1.331891,1.83862 -0.666231,3.25932 2.252676,4.80779 0.692658,0.36745 1.157404,0.80011 1.157404,1.07748 0,0.63237 -0.22832,0.58856 -1.657951,-0.31808 l -1.232387,-0.78156 -1.16386,1.37687 c -0.640122,0.75728 -1.894797,2.36944 -2.788166,3.58259 -1.344752,1.82611 -1.624303,2.3861 -1.624303,3.25378 0,1.68551 1.701321,2.94137 5.55625,4.10144 2.450346,0.73739 6.962153,0.84518 9.403265,0.22467 z M 18.866427,23.89928 c 1.176793,-1.12744 1.295434,-2.12637 0.369649,-3.11231 -2.354897,-2.50793 -6.173967,-2.29437 -7.200458,0.40264 -0.369528,0.9709 -0.358958,1.02016 0.38748,1.80548 1.294585,1.36203 2.423459,1.83593 4.141081,1.73844 1.242504,-0.0705 1.664816,-0.22355 2.302248,-0.83425 z m 90.275483,-4.66321 c 0.25542,-2.12653 0.24851,-4.82333 -0.0134,-5.23683 -0.12646,-0.19963 -0.39253,-0.3044 -0.59126,-0.2328 -0.19873,0.0716 -0.77805,-0.0402 -1.28737,-0.2485 -0.97111,-0.39709 -4.33369,-0.75428 -3.78275,-0.40182 0.17506,0.11199 0.40226,0.73584 0.50488,1.38632 0.25996,1.64773 1.05195,3.05639 2.07328,3.68761 0.47654,0.29452 1.19939,1.01593 1.60632,1.60314 0.40694,0.58721 0.86998,1.02479 1.02897,0.9724 0.159,-0.0524 0.36661,-0.74067 0.46136,-1.52952 z m -84.7381,0.11139 c 3.953676,-1.14616 4.371631,-1.42233 4.126891,-2.72691 -0.253068,-1.34897 -2.072478,-5.83213 -2.916296,-7.1859704 -3.386939,-5.43408 -9.17417,-8.81281997 -14.293479,-8.34493 -1.9594789,0.1791 -4.3125369,1.02742 -5.2438109,1.89049 -0.626396,0.58053 -0.691852,0.82706 -0.691852,2.6058 0,2.55512 0.322112,2.88792 1.989291,2.05529 0.645548,-0.3224 1.242977,-0.69824 1.327622,-0.8352 0.08465,-0.13696 0.567416,-0.24902 1.072825,-0.24902 0.5054079,0 1.3503629,-0.18026 1.8776749,-0.40059 0.876332,-0.36615 1.001982,-0.36146 1.461696,0.0546 0.345091,0.3123 0.453147,0.65359 0.344276,1.08736 -0.08727,0.34771 -0.04745,0.76963 0.08849,0.93762 0.135938,0.16798 0.511313,1.40301 0.834168,2.7445104 0.322853,1.34149 0.752539,2.57646 0.954855,2.74437 0.202319,0.16791 0.36785,0.58677 0.36785,0.9308 0,0.4609 0.236011,0.72412 0.896821,1.00023 1.362284,0.5692 2.972475,2.1637 3.513437,3.4792 0.266493,0.64806 0.589441,1.17873 0.717664,1.17927 0.128219,5.3e-4 1.735563,-0.43456 3.571875,-0.96689 z m 55.056374,-1.6118 c -0.0077,-0.91037 -0.03914,-0.95162 -0.381053,-0.50024 -0.293449,0.38741 -0.306247,0.59825 -0.06023,0.99219 0.423791,0.6786 0.450953,0.64832 0.441283,-0.49195 z M 60.62924,15.56922 c 0.501124,-0.67781 0.504532,-0.73191 0.06345,-1.00737 -0.351091,-0.21926 -0.556681,-0.2028 -0.833125,0.0667 -0.267171,0.26047 -0.669976,0.3011 -1.48073,0.14937 -1.073793,-0.20095 -1.103368,-0.18842 -0.824921,0.3494 0.15884,0.3068 0.716158,1.0863 1.238486,1.73222 l 0.949684,1.1744 0.178798,-0.87423 c 0.09834,-0.48082 0.4171,-1.19654 0.708358,-1.59049 z M 47.272801,13.99168 c 0.409654,-0.16 1.087239,-0.29092 1.505738,-0.29092 0.418502,0 0.831448,-0.11413 0.917663,-0.25362 0.08621,-0.1395 -0.25894,-1.06223 -0.767004,-2.05052 -1.397815,-2.7190504 -1.270807,-2.6390404 -2.361805,-1.48786 -0.528479,0.55763 -0.961906,1.11348 -0.963169,1.23521 -0.0013,0.12173 -0.374811,0.74005 -0.830114,1.37404 -1.08676,1.51329 -0.905679,2.05785 0.628057,1.88873 0.619192,-0.0683 1.460977,-0.25506 1.870634,-0.41506 z M 109.5917,13.01865 c 0.22161,-0.18355 0.0321,-9.0921604 -0.20676,-9.7204604 -0.37406,-0.98386 -1.09136,-1.1068 -6.45768,-1.1068 -4.62298,0 -4.72967,0.0126 -5.21893,0.61648 -0.63425,0.78285 -0.99845,2.08621 -1.21227,4.3384 -0.13954,1.4697 -0.0975,1.80732 0.24144,1.93737 0.22573,0.0866 0.47559,0.41715 0.55524,0.7345004 0.10992,0.43791 0.47351,0.65508 1.50837,0.9009 0.74994,0.17815 2.03497,0.63488 2.85562,1.01495 0.82064,0.38008 2.02786,0.73485 2.6827,0.78836 0.65485,0.0535 1.72641,0.26446 2.38125,0.46875 0.99527,0.31049 2.51183,0.32505 2.87102,0.0275 z M 96.9311,9.84869 c 0,-0.2096904 -0.11906,-0.3812604 -0.26458,-0.3812604 -0.14553,0 -0.26459,0.24515 -0.26459,0.5447804 0,0.29963 0.11906,0.4712 0.26459,0.38126 0.14552,-0.0899 0.26458,-0.33509 0.26458,-0.54478 z M 4.9929831,5.8955296 c 0.0025,-1.09139 -0.057,-1.97864 -0.132291,-1.97166 -0.300502,0.0279 -2.121262,2.52551 -2.121262,2.90987 0,0.64058 0.559077,1.04619 1.441979,1.04617 l 0.806979,-3e-5 0.0046,-1.98435 z M 150.69213,38.92188 c -1.16463,-0.57395 -2.3994,-2.12466 -3.86379,-4.85243 l -1.20506,-2.24473 -0.004,2.05902 c -0.007,3.38742 -0.96421,4.70728 -3.68411,5.08137 -1.67224,0.22998 -7.67436,-0.31756 -8.35263,-0.76198 -0.9612,-0.6298 -2.63453,-7.56408 -3.42269,-14.18362 -1.00876,-8.4723 -1.23394,-10.98236 -1.39256,-15.5225904 -0.19183,-5.49116 -0.0394,-6.25432 1.33063,-6.66344 1.64655,-0.49168 3.2622,-0.81716 6.12423,-1.23373997 1.60073,-0.23299 3.12399,-0.46642 3.38504,-0.51873 1.07145,-0.2147 3.69835,0.36592 4.32685,0.95636997 0.84207,0.79108 2.202,3.2845 3.27898,6.01197 l 0.8735,2.21214 0.60366,-1.79235 c 0.80861,-2.4009 2.21762,-4.61551 3.3089,-5.20077 0.71759,-0.38485 1.52084,-0.47386 4.27625,-0.47386 1.86599,0 3.92069,0.13295 4.566,0.29544 1.35709,0.34172 3.33105,1.9552 3.81172,3.11564 l 0.32449,0.78339 1.30463,-1.23734 c 1.76696,-1.67582 4.22647,-3.13163 6.4152,-3.79724 2.70243,-0.82180997 6.14851,-0.60378997 8.46254,0.5354 0.92448,0.45512 2.22058,1.33495 2.88023,1.95517 l 1.19936,1.12767 0.29604,-1.12839 c 0.21478,-0.81867 0.53205,-1.27228 1.15591,-1.65265 0.81823,-0.49889 1.35309,-0.52407 11.04632,-0.51994 10.82634,0.005 12.8169,0.14799 14.69835,1.05878 1.36475,0.66067 2.40343,2.18974 2.71771,4.00082 l 0.19987,1.15179 0.47618,-1.4552 c 0.93159,-2.8469 2.81982,-4.43428 6.15818,-5.17699 1.71848,-0.38232997 2.67657,-0.40101997 7.96769,-0.15546997 8.27402,0.38398997 9.28957,0.73371997 9.72216,3.34807997 0.0963,0.58208 0.36425,1.47505 0.5954,1.98438 0.30815,0.67895 0.4522,2.06959 0.5399,5.2118804 l 0.11962,4.28585 -0.76159,0.75992 c -0.83524,0.8334 -3.90384,1.70397 -7.70497,2.1859 -2.20212,0.27921 -2.5449,0.43073 -1.85181,0.8186 0.26903,0.15056 0.46081,0.57008 0.46081,1.00801 0,0.71078 0.0763,0.75965 1.45489,0.93189 0.80019,0.1 2.55636,0.47254 3.90261,0.82792 2.80938,0.74161 3.63834,1.40503 3.63834,2.9118 0,0.50633 0.1783,1.19273 0.39624,1.52533 0.59429,0.907 0.77647,4.22055 0.40071,7.28803 -0.38752,3.1634 -0.89537,4.00638 -2.71066,4.49944 -1.88825,0.51287 -12.74483,0.93518 -14.72308,0.5727 -2.8592,-0.52388 -5.03842,-1.89783 -6.02257,-3.7971 -1.1085,-2.13923 -2.38181,-8.09888 -2.6976,-12.62601 l -0.17534,-2.51354 -3.96875,0.0979 c -2.18281,0.0539 -3.99319,0.11801 -4.02306,0.14251 -0.0299,0.0245 0.34369,1.52824 0.83014,3.34163 1.96412,7.32185 3.0658,11.7995 3.06329,12.45034 -0.005,1.33144 -0.54383,1.5041 -6.0945,1.95336 -10.41518,0.84299 -9.60697,0.84249 -10.26462,0.006 -0.35445,-0.45061 -0.57687,-1.10728 -0.57687,-1.70311 0,-0.53336 -0.12832,-1.09806 -0.28515,-1.25489 -0.853,-0.853 -0.73483,-5.86973 0.26952,-11.44247 0.29964,-1.66256 0.5448,-3.06434 0.5448,-3.11505 0,-0.0918 -4.30479,0.20958 -4.43279,0.31032 -0.0369,0.0291 -0.19184,0.75686 -0.34422,1.6173 -1.22835,6.93614 -5.58711,13.12065 -11.02264,15.63968 -2.26577,1.05005 -5.12769,1.52075 -7.17929,1.18079 -3.4579,-0.57299 -6.72804,-2.83503 -8.44529,-5.84182 -0.62452,-1.0935 -0.83165,-1.29399 -0.94048,-0.91036 -1.52413,5.37218 -1.80038,5.84252 -3.85787,6.56844 -1.60183,0.56516 -5.94185,0.54221 -7.11848,-0.0377 z m 5.86883,-3.81274 c 1.93894,-0.53837 2.5406,-1.74955 3.60305,-7.25317 0.30902,-1.60073 0.97251,-4.93448 1.47442,-7.40833 1.499,-7.3883 2.22994,-11.8113104 2.23113,-13.5009304 0.001,-1.38438 -0.0983,-1.70351 -0.7526,-2.41991 -1.35826,-1.48711 -2.2214,-1.76457 -5.86086,-1.88404 -1.81901,-0.0597 -3.72401,1.4e-4 -4.23333,0.13301 -1.54956,0.40423 -3.27753,3.37639 -4.08273,7.0223904 -0.0884,0.40018 -0.31872,0.7276 -0.51187,0.7276 -0.51419,0 -2.03989,0.7886 -2.90018,1.49904 -0.41135,0.3397 -0.95778,0.61763 -1.2143,0.61763 -0.25652,0 -1.17012,0.65305 -2.03022,1.45124 -1.28577,1.19319 -1.7323,1.45194 -2.51131,1.4552 -1.02211,0.004 -1.30443,0.33749 -1.79682,2.12064 -0.53538,1.93886 -0.99356,2.81215 -2.0182,3.84669 -1.91415,1.93265 -3.04271,3.39969 -3.04271,3.95531 0,0.30081 -0.18932,0.81722 -0.42071,1.14758 -0.33374,0.47648 -0.49782,0.53665 -0.79375,0.29106 -0.26833,-0.2227 -0.37304,-0.22624 -0.37304,-0.0126 0,0.16333 0.12709,0.29698 0.28242,0.29698 0.15742,0 0.21153,0.22331 0.12227,0.50456 -0.14226,0.44821 0.67548,5.16954 1.07624,6.21393 0.19666,0.51248 0.52644,0.60757 3.27463,0.9443 4.50284,0.55171 6.70731,0.22904 7.46013,-1.09196 0.24126,-0.42334 0.35202,-1.65835 0.35202,-3.92499 0,-1.96076 0.10772,-3.34857 0.26457,-3.40868 0.14551,-0.0558 1.01792,1.31346 1.93868,3.04271 2.91575,5.47598 3.44567,5.92049 7.05717,5.91975 1.30969,-2.6e-4 2.84234,-0.12851 3.4059,-0.28499 z m 16.25264,-0.03 c 0.50118,-0.50118 0.38891,-0.69365 -0.74083,-1.27 -0.75333,-0.38432 -1.0595,-0.70994 -1.06239,-1.12986 -0.005,-0.79667 -0.23132,-1.10213 -1.40254,-1.89695 -1.3334,-0.90486 -2.13766,-0.87223 -2.86857,0.11639 -0.41006,0.55463 -0.81098,0.79375 -1.33084,0.79375 -1.73588,0 -0.0518,1.91551 2.5633,2.91551 1.90152,0.72713 4.34784,0.96518 4.84187,0.47116 z m 54.2168,-0.11184 c 0.0535,-0.16337 -0.14565,-0.36058 -0.44265,-0.43825 -0.37305,-0.0975 -0.54942,-0.37379 -0.5705,-0.89358 -0.0168,-0.41381 -0.0471,-0.87144 -0.0674,-1.01696 -0.0606,-0.43494 -0.69952,-1.45521 -0.91132,-1.45521 -0.10827,0 -0.65087,0.441 -1.2058,0.98 -0.55492,0.53899 -1.25414,1.10454 -1.55381,1.25677 -0.63961,0.3249 -1.18091,1.10378 -0.93677,1.34792 0.20197,0.20197 3.70871,0.60407 4.81751,0.5524 0.42535,-0.0198 0.81717,-0.16971 0.87071,-0.33309 z m -53.10555,0.0481 c 0,-0.0642 -0.11906,-0.19026 -0.26458,-0.2802 -0.14552,-0.0899 -0.26459,-0.0374 -0.26459,0.11668 0,0.15411 0.11907,0.2802 0.26459,0.2802 0.14552,0 0.26458,-0.0525 0.26458,-0.11668 z m 61.64792,-0.15891 c 1.88573,-0.29779 2.85897,-0.85256 3.38797,-1.93122 0.48367,-0.98623 0.75938,-7.81301 0.34669,-8.58413 -0.43038,-0.80417 -1.48919,-1.29639 -4.14603,-1.92739 -2.43908,-0.57927 -2.8315,-0.50074 -3.18537,0.63754 -0.0977,0.31428 -0.58741,1.02803 -1.08824,1.58613 -0.53348,0.59448 -0.84806,1.17768 -0.75959,1.40823 0.18655,0.48614 -0.28055,1.41153 -0.7163,1.41908 -0.17678,0.003 -1.08019,0.71459 -2.00759,1.58116 -1.41323,1.32056 -1.65585,1.67298 -1.49894,2.17725 0.10297,0.3309 0.31105,1.08491 0.4624,1.67557 0.42802,1.6704 1.52396,2.16922 4.83937,2.20267 1.45521,0.0147 3.41974,-0.0955 4.36563,-0.24489 z m -58.34693,-0.90348 c 3.54153,-1.70341 7.20855,-5.79614 8.87069,-9.90049 1.23148,-3.04091 1.70428,-5.45071 1.69358,-8.6319 -0.0208,-6.1828404 -2.51234,-10.9152704 -6.90786,-13.1207504 -1.72197,-0.864 -1.92201,-0.90216 -4.72909,-0.90216 -2.91328,0 -2.94474,0.007 -5.186,1.11771 -2.82133,1.39846 -5.95282,4.17121 -6.15203,5.44727 -0.5623,3.6016804 -1.63824,9.5212704 -2.14906,11.8235604 -0.33902,1.52797 -0.80533,3.87763 -1.03624,5.22148 -0.41164,2.39554 -0.40876,2.46544 0.14697,3.57188 0.31175,0.62068 0.85869,1.51775 1.2154,1.99349 0.60759,0.81031 0.72343,0.85482 1.83302,0.70434 0.97926,-0.1328 1.39509,-0.38583 2.40044,-1.46063 1.42186,-1.52008 2.55821,-3.78473 2.37638,-4.73591 -0.10448,-0.54656 0.23174,-1.01183 1.9661,-2.72075 1.15067,-1.13379 2.09213,-2.23991 2.09213,-2.45804 0,-0.21814 -0.41672,-0.76249 -0.92604,-1.20969 -0.8053,-0.70705 -0.92605,-0.97115 -0.92605,-2.02538 0,-1.98441 1.55481,-3.03956 3.18966,-2.16461 0.60706,0.32488 1.30826,1.59699 1.30826,2.3734 0,0.83414 -0.71803,2.05698 -1.32001,2.24804 -0.29264,0.0929 -0.53207,0.28494 -0.53207,0.42679 0,0.39139 -0.48393,0.96202 -2.57969,3.04187 -1.72782,1.7147 -1.91823,2.00607 -1.91823,2.93536 0,0.56743 -0.10116,1.1448 -0.22479,1.28305 -0.12364,0.13824 -0.42628,0.77224 -0.67255,1.40889 -0.4248,1.09822 -0.42345,1.18484 0.0263,1.69016 0.26076,0.29295 0.86106,0.69638 1.33401,0.89654 0.68201,0.28862 0.85989,0.51889 0.85989,1.1131 0,0.84604 0.47868,1.34967 1.91823,2.01821 0.54571,0.25343 0.99219,0.56628 0.99219,0.69522 0,0.47564 1.18578,0.21006 3.03641,-0.68005 z m 25.79342,-0.0311 c 2.83229,-0.22867 5.2433,-0.47367 5.35781,-0.54444 0.39177,-0.24213 0.20771,-1.52198 -0.73466,-5.10826 -0.51857,-1.97348 -1.05873,-4.03383 -1.20035,-4.57856 -0.18161,-0.69859 -0.49704,-1.1143 -1.07046,-1.41083 -0.7795,-0.40309 -0.84175,-0.39389 -1.51164,0.22354 -0.38426,0.35418 -1.25163,0.90429 -1.9275,1.22248 -0.84338,0.39705 -1.3349,0.83456 -1.56693,1.39474 -0.37403,0.90297 -1.68047,1.60477 -2.55948,1.37491 -0.61187,-0.16001 -1.41651,0.2863 -3.44214,1.90928 -0.85332,0.6837 -0.85989,0.70683 -0.85989,3.0278 0,3.02963 0.18995,3.25152 2.61147,3.05063 0.96479,-0.08 4.07148,-0.33262 6.90377,-0.56129 z m 18.42752,-0.54076 c 1.43355,-0.96483 3.73507,-2.8741 6.09312,-5.05465 0.45686,-0.42248 1.14147,-0.9718 1.52135,-1.2207 0.47908,-0.3139 0.69069,-0.6853 0.69069,-1.21222 0,-0.47593 0.2914,-1.07163 0.78019,-1.59488 1.7849,-1.91073 1.2582,-2.60494 -2.10418,-2.77338 -2.49144,-0.12481 -3.18426,-0.42753 -2.59723,-1.13486 0.15501,-0.18678 0.81087,-0.3396 1.45747,-0.3396 1.71826,0 2.19916,-0.34445 2.19916,-1.57517 0,-1.67685 -0.1643,-1.86441 -1.6332,-1.86441 -1.43734,0 -2.33555,-0.34883 -2.33555,-0.90704 0,-0.50773 0.60512,-0.68046 2.38375,-0.68046 1.94247,0 5.08455,-0.42918 7.7018,-1.05199 3.89643,-0.92721 4.0789,-1.20569 3.83368,-5.8506204 -0.22925,-4.34268 -0.508,-5.24692 -1.8142,-5.88517 -1.38123,-0.67491 -5.76532,-1.0357 -11.17899,-0.91998 -3.97939,0.0851 -4.64874,0.16486 -5.80626,0.69219 -3.64481,1.66043 -4.17321,2.76021 -5.04577,10.5020304 -0.64013,5.67958 -0.48851,9.83472 0.56962,15.61041 0.52428,2.86172 1.07703,4.04533 2.39752,5.13378 1.2107,0.99797 1.56916,1.0137 2.88703,0.12672 z m -26.97505,-6.23333 c -0.44147,-0.7069 -0.70313,-0.59019 -0.70313,0.31362 0,0.7155 0.0508,0.76428 0.50219,0.48237 0.40731,-0.25438 0.44527,-0.40475 0.20094,-0.79599 z m 1.61837,-0.48337 c 0.47646,-0.29049 1.215,-0.52817 1.6412,-0.52817 1.12779,0 2.04599,-0.49918 2.37487,-1.2911 0.31585,-0.76053 1.78096,-1.8839 2.457,-1.8839 0.23509,0 0.64995,-0.28287 0.92189,-0.6286 0.27195,-0.34572 0.87591,-0.71237 1.34212,-0.81477 0.9932,-0.21814 0.99301,-0.21647 0.31851,-2.78997 -0.28606,-1.0914 -0.52214,-2.11702 -0.52464,-2.27915 -0.003,-0.19746 1.28387,-0.33989 3.89807,-0.43142 4.28982,-0.15019 5.26228,-0.38853 5.50328,-1.34877 0.0881,-0.35116 0.18076,-2.46873 0.20583,-4.70571 0.0412,-3.6744204 -0.007,-4.1565904 -0.49789,-4.9923804 -0.7074,-1.20419 -1.92091,-2.00246 -3.63339,-2.39012 -1.5833,-0.35842 -19.25145,-0.69841 -21.18966,-0.40775 -2.54192,0.38118 -3.5057,2.42888 -2.2038,4.68231 1.03855,1.79761 1.79627,4.6248404 1.96469,7.3306904 l 0.15368,2.46916 3.39941,-0.18801 c 2.43785,-0.13483 3.39942,-0.10448 3.39942,0.10728 0,0.16241 -0.36912,2.31237 -0.82026,4.77769 -0.80461,4.3969 -0.81092,4.49522 -0.33073,5.15431 0.59379,0.81502 0.55038,0.81078 1.6204,0.15838 z m -63.60085,-0.6821 c 0.0883,-0.23018 0.1606,-0.66675 0.1606,-0.97014 0,-0.30339 0.2879,-0.8592 0.63977,-1.23513 0.35188,-0.37593 1.30438,-1.38392 2.11667,-2.23998 0.81229,-0.85605 1.48068,-1.74902 1.48531,-1.98437 0.005,-0.23535 0.18322,-0.65903 0.39687,-0.9415 0.21366,-0.28247 0.38846,-0.73435 0.38846,-1.00418 0,-0.42235 -0.138,-0.46567 -0.99218,-0.31148 -0.54571,0.0985 -1.21272,0.2932 -1.48226,0.43265 -0.26954,0.13945 -1.28096,0.36555 -2.24761,0.50244 -2.51358,0.35597 -2.53989,0.40252 -2.17222,3.84277 0.42947,4.01856 0.50557,4.32743 1.06616,4.32743 0.26391,0 0.5521,-0.18833 0.64043,-0.41851 z m 73.45019,-4.0794 c 0,-0.14552 -0.12609,-0.26459 -0.2802,-0.26459 -0.15411,0 -0.20662,0.11907 -0.11668,0.26459 0.0899,0.14552 0.21603,0.26458 0.2802,0.26458 0.0642,0 0.11668,-0.11906 0.11668,-0.26458 z m -75.14572,-3.63802 c -0.002,-0.10915 -0.11947,-0.37704 -0.26054,-0.59532 -0.2074,-0.32093 -0.25725,-0.28295 -0.26053,0.19844 -0.002,0.32742 0.11501,0.59531 0.26053,0.59531 0.14552,0 0.26276,-0.0893 0.26054,-0.19843 z m 44.05717,-0.0662 c 0.20695,-0.33486 -0.1433,-0.33486 -0.66146,0 -0.34202,0.22103 -0.33503,0.25704 0.0505,0.26053 0.24608,0.002 0.521,-0.11501 0.61093,-0.26053 z M 134.23735,17.6184 c 0.3638,-0.15134 0.8682,-0.38033 1.12089,-0.50888 0.25269,-0.12854 0.78847,-0.23371 1.19062,-0.23372 0.52241,0 0.94824,-0.27203 1.49129,-0.95262 0.65404,-0.81969 0.87066,-0.93049 1.55254,-0.79412 0.69167,0.13834 0.99231,-0.0265 2.36385,-1.29634 0.86426,-0.80015 1.72533,-1.45483 1.91349,-1.45483 0.47085,0 2.53815,-1.52525 2.53815,-1.87264 0,-0.155 0.17553,-0.45735 0.39006,-0.67188 0.34368,-0.3436804 0.31659,-0.5852004 -0.22788,-2.0316204 -0.78634,-2.0889 -2.32514,-5.1502 -3.01961,-6.00719 -0.51099,-0.63058 -0.66368,-0.6607 -3.27106,-0.64524 -2.31873,0.0138 -8.66515,0.87759 -9.88422,1.34539 -1.00779,0.38673 -1.13675,4.00334 -0.41919,11.7565204 0.27976,3.02287 0.89435,3.94738 2.50347,3.76594 0.60288,-0.068 1.3938,-0.24743 1.7576,-0.39877 z m 13.22917,-7.40753 c 0,-0.34777 -0.60134,-0.13 -0.73318,0.26551 -0.0644,0.19334 0.0565,0.25248 0.31419,0.15359 0.23045,-0.0884 0.41899,-0.27702 0.41899,-0.4191 z" id="path836" />
    </g>
</svg>