<svg xmlns:inkscape="http://www.inkscape.org/namespaces/inkscape" xmlns:sodipodi="http://sodipodi.sourceforge.net/DTD/sodipodi-0.dtd" xmlns="http://www.w3.org/2000/svg" xmlns:svg="http://www.w3.org/2000/svg" width="190mm" height="40mm" viewBox="0 0 190 40" version="1.1" id="svg1042" inkscape:version="1.1.2 (0a00cf5339, 2022-02-04)" sodipodi:docname="Connect.svg">
  <defs id="defs1039"/>
  <g inkscape:label="Layer 1" inkscape:groupmode="layer" id="layer1">
    <path style="fill:#2d5840;stroke-width:0.264583;fill-opacity:1" d="m 38.241586,39.048355 c -3.373863,-0.70575 -6.782181,-3.34095 -8.345051,-6.45214 -0.688591,-1.37078 -0.799671,-1.47968 -0.988528,-0.96915 -0.11702,0.31634 -0.560438,1.08049 -0.985375,1.69811 -5.564439,8.08764 -16.823103,6.69544 -23.1857573,-2.86704 -1.749719,-2.62966 -2.495523,-4.39073 -3.74288627,-8.83809 -0.80046201,-2.85398 -0.940935,-3.77343 -0.974333,-6.377463 -0.02349,-1.832811 0.10564,-3.621354 0.32478699,-4.497916 C 0.94987743,8.3229695 2.3143867,5.683099 3.7963527,4.066367 8.0557287,-0.58034491 15.158889,-0.83016092 21.004823,3.461149 c 2.626299,1.927881 5.874618,6.2175339 6.787322,8.963182 l 0.426424,1.28279 0.592071,-1.456757 C 31.163699,6.460787 36.023,1.887616 41.091916,0.69224103 c 2.162011,-0.50985497 5.704785,-0.229179 7.503933,0.59449897 1.402107,0.641906 1.508784,0.652416 2.878757,0.283637 1.31804,-0.3548 3.878874,-0.80852697 7.772694,-1.37716094 2.184453,-0.319006 4.514993,0.03362 5.347634,0.80912494 0.362696,0.33781 1.126778,1.540696 1.697958,2.673079 0.906701,1.797562 1.34483,2.811484 2.197238,5.0848715 0.158239,0.4220287 0.298526,0.2075567 0.692898,-1.0592935 0.720249,-2.313692 2.365947,-4.930434 3.451924,-5.488733 0.574053,-0.295118 1.52251,-0.46693 2.61964,-0.474543 0.945885,-0.0066 2.255573,-0.127235 2.910416,-0.268157 1.288124,-0.277205 4.99313,-0.90432497 7.540626,-1.27634894 2.184453,-0.319006 4.514996,0.03362 5.347636,0.80912494 0.36269,0.33781 1.126775,1.540696 1.697955,2.673079 0.9067,1.797562 1.34483,2.811484 2.19723,5.0848715 0.15824,0.4220287 0.29853,0.2075567 0.6929,-1.0592935 0.71539,-2.298073 2.36534,-4.927536 3.45193,-5.501191 0.773694,-0.408473 1.456185,-0.463484 4.868585,-0.392432 3.46107,0.07207 4.1064,0.155748 5.04479,0.654168 0.59182,0.314342 1.23017,0.757259 1.41856,0.984259 0.30266,0.364677 0.48089,0.290946 1.53089,-0.633297 1.38734,-1.221185 3.34061,-2.01864197 5.52955,-2.25753097 2.37315,-0.258994 12.42984,0.30534297 14.02958,0.78727797 1.57779,0.475318 2.14594,1.171817 2.38629,2.925343 0.0905,0.659919 0.27459,1.267917 0.4092,1.351107 0.1346,0.08319 0.8993,-0.57207 1.69933,-1.456134 2.1019,-2.322674 4.61066,-3.52600597 7.6879,-3.68751997 1.30423,-0.06845 2.89659,0.02086 3.75403,0.21055 3.75147,0.82995397 7.86748,3.80599197 10.24797,7.40968997 l 0.76608,1.1597312 0.19759,-2.7609052 c 0.10868,-1.518498 0.37208,-3.142478 0.58534,-3.608845 0.78428,-1.715138 0.7959,-1.716535 13.33132,-1.603265 9.98623,0.09024 11.42908,0.155843 12.53051,0.569764 1.56075,0.586541 3.00321,2.149074 3.37171,3.652383 0.15362,0.626711 0.46968,1.705145 0.70236,2.396523 0.33963,1.0091542 0.40356,2.130953 0.32418,5.68854 -0.10302,4.616651 -0.26578,5.345311 -1.32009,5.909551 -0.30785,0.16477 -2.2721,0.36367 -4.36499,0.44201 -3.32559,0.12448 -3.78961,0.19588 -3.68118,0.56639 0.0682,0.23318 0.48164,1.79318 0.91867,3.46667 3.36131,12.87093 3.25841,12.327 2.46742,13.04283 -0.44954,0.40683 -3.55862,0.74541 -13.04274,1.42036 -2.24508,0.15977 -2.27308,0.15414 -2.84427,-0.57202 -0.31728,-0.40335 -0.57687,-1.09644 -0.57687,-1.54019 0,-0.44376 -0.24967,-1.32257 -0.55481,-1.95292 -0.5302,-1.09524 -0.54175,-1.30734 -0.26021,-4.77989 0.16203,-1.99859 0.46169,-4.52677 0.6659,-5.61817 0.20421,-1.09141 0.43791,-2.37391 0.51932,-2.85001 l 0.14803,-0.86563 -2.17734,0.16892 c -2.69141,0.20879 -3.23963,0.52124 -3.47277,1.9792 -0.14745,0.92212 -0.0854,1.20064 0.36019,1.61574 0.64963,0.60522 0.66506,1.12825 0.11286,3.82608 -2.3241,11.35459 -14.02016,14.41374 -22.61609,5.91534 -1.13466,-1.12179 -2.57773,-2.91926 -3.31964,-4.13492 l -1.31243,-2.15048 -0.0237,3.07652 c -0.0286,3.72095 -0.42041,6.01232 -1.16324,6.80302 -0.86186,0.91741 -2.32482,1.16488 -8.71027,1.47343 -6.82457,0.32977 -8.45295,0.15628 -10.93122,-1.16463 -2.37346,-1.26504 -3.29291,-2.96105 -4.48263,-8.26862 l -0.29654,-1.32292 -0.44639,2.24896 c -0.76592,3.85877 -1.61419,6.62614 -2.27,7.40552 -0.92051,1.09395 -2.66562,1.59031 -5.59131,1.59031 -2.923665,0 -3.870605,-0.34923 -5.219295,-1.92488 -0.50022,-0.58439 -1.44486,-2.08701 -2.0992,-3.33914 l -1.1897,-2.2766 -0.0237,1.98437 c -0.013,1.09141 -0.16577,2.39697 -0.33946,2.90125 -0.39849,1.15699 -1.673255,2.02634 -3.299194,2.24997 -1.45936,0.20071 -7.553521,-0.27446 -8.241393,-0.6426 -0.334846,-0.17921 -0.79585,-0.0852 -1.632376,0.3328 -0.887849,0.44367 -1.75337,0.60454 -3.63076,0.67483 -1.355757,0.0508 -2.887425,0.013 -3.403704,-0.0838 -1.372737,-0.25753 -3.175698,-2.21118 -4.647168,-5.03556 l -1.240602,-2.38125 -0.02368,1.98437 c -0.01302,1.09141 -0.165778,2.39697 -0.339463,2.90126 -0.398495,1.15698 -1.673262,2.02634 -3.299198,2.24996 -1.734561,0.23856 -7.702307,-0.30826 -8.407599,-0.77038 -0.333275,-0.21837 -0.703662,-0.89886 -0.897401,-1.64874 -0.181443,-0.70229 -0.426415,-1.57455 -0.544385,-1.93835 -0.117967,-0.3638 -0.279006,-0.86347 -0.35786,-1.11037 -0.114612,-0.35885 -0.457806,-0.14123 -1.71074,1.08476 -3.580188,3.50321 -8.598779,5.3233 -12.454327,4.5168 z m 2.299671,-4.01494 c 0.50118,-0.50118 0.388906,-0.69365 -0.740833,-1.27 -0.753332,-0.38432 -1.0595,-0.70994 -1.062384,-1.12986 -0.0055,-0.79666 -0.231328,-1.10213 -1.402546,-1.89694 -1.333394,-0.90487 -2.137653,-0.87224 -2.868573,0.11638 -0.410053,0.55463 -0.810977,0.79375 -1.330838,0.79375 -0.541864,0 -0.743992,0.13025 -0.743992,0.47941 0,1.60906 6.963211,4.09322 8.149166,2.90726 z m 36.945995,-0.11475 c 1.12558,-0.38353 1.337974,-0.58486 1.884058,-1.78594 0.338508,-0.74453 0.930852,-2.96103 1.316323,-4.92556 0.385472,-1.96453 0.994199,-5.00062 1.352728,-6.74687 1.461061,-7.116246 2.468673,-13.0553315 2.471573,-14.568004 0.0028,-1.447907 -0.07876,-1.687125 -0.840737,-2.46649 -1.588985,-1.625251 -2.053394,-1.750926 -6.470259,-1.750926 -3.589554,0 -4.065683,0.05327 -4.57245,0.511617 -1.146021,1.036515 -2.477637,3.904416 -3.048698,6.5659859 -0.08772,0.4088421 -0.333531,0.7276041 -0.561086,0.7276041 -0.543695,0 -1.927744,0.725692 -2.846393,1.492433 -0.411345,0.343329 -0.963192,0.624234 -1.22632,0.624234 -0.263131,0 -1.176729,0.651317 -2.030222,1.447371 -1.272696,1.187051 -1.722215,1.448782 -2.499281,1.455209 -1.021593,0.0084 -1.305062,0.343617 -1.796822,2.124506 -0.543087,1.96677 -0.998972,2.81613 -2.070529,3.85762 -0.66666,0.64796 -1.46834,1.86433 -2.00538,3.04271 -0.492096,1.07977 -1.200338,2.4473 -1.573872,3.03895 l -0.679156,1.07575 0.468659,2.24969 c 0.799079,3.83581 0.451689,3.4923 3.96743,3.92307 6.943921,0.85081 8.059132,0.04 7.890907,-5.73743 -0.04834,-1.66008 0.02344,-2.72121 0.185809,-2.74722 0.145513,-0.0233 1.017918,1.37248 1.938679,3.10172 2.918534,5.4812 3.442599,5.91973 7.076183,5.92123 1.529242,5.3e-4 2.860617,-0.15587 3.668856,-0.43126 z m 26.458328,0 c 1.12558,-0.38353 1.33797,-0.58486 1.88405,-1.78594 0.33851,-0.74453 0.93086,-2.96103 1.31633,-4.92556 0.38547,-1.96453 0.9942,-5.00062 1.35272,-6.74687 1.46107,-7.116246 2.46868,-13.0553315 2.47158,-14.568004 0.003,-1.447907 -0.0788,-1.687125 -0.84074,-2.46649 -1.58898,-1.625251 -2.05339,-1.750926 -6.47026,-1.750926 -3.58955,0 -4.065678,0.05327 -4.572445,0.511617 -1.14602,1.036515 -2.47764,3.904416 -3.0487,6.5659859 -0.0877,0.4088421 -0.33353,0.7276041 -0.56108,0.7276041 -0.5437,0 -1.92775,0.725692 -2.8464,1.492433 -0.41134,0.343329 -0.96319,0.624234 -1.226315,0.624234 -0.26313,0 -1.17672,0.651317 -2.030217,1.447371 -1.272696,1.187051 -1.722215,1.448782 -2.499281,1.455209 -1.021593,0.0084 -1.305062,0.343617 -1.796822,2.124506 -0.488323,1.76843 -0.962237,2.78147 -1.585722,3.3896 -0.505587,0.49314 -0.750597,1.2868 -1.266024,4.10104 -0.576093,3.14549 -1.627113,7.54684 -2.075407,8.69118 -0.21268,0.5429 0.09941,0.64637 3.034305,1.00597 6.943918,0.85081 8.059128,0.04 7.890908,-5.73743 -0.0483,-1.66008 0.0234,-2.72121 0.18581,-2.74722 0.14551,-0.0233 1.017915,1.37248 1.938675,3.10172 2.91853,5.4812 3.4426,5.91973 7.076175,5.92123 1.52924,5.3e-4 2.86062,-0.15587 3.66886,-0.43126 z m 17.2708,0.003 c 0.0535,-0.16338 -0.14565,-0.36059 -0.44265,-0.43825 -0.36953,-0.0966 -0.5527,-0.37871 -0.58028,-0.89359 -0.0601,-1.12136 -0.085,-1.2203 -0.5035,-1.9982 l -0.38556,-0.71666 -1.18897,1.11235 c -0.65393,0.61179 -1.4154,1.23194 -1.69216,1.37812 -0.60831,0.32129 -1.13061,1.1014 -0.8951,1.33691 0.20197,0.20197 3.70871,0.60407 4.81751,0.5524 0.42535,-0.0198 0.81717,-0.16971 0.87071,-0.33308 z m -79.563872,0.0481 c 0,-0.0642 -0.119063,-0.19026 -0.264584,-0.2802 -0.145521,-0.0899 -0.264583,-0.0374 -0.264583,0.11667 0,0.15411 0.119062,0.2802 0.264583,0.2802 0.145521,0 0.264584,-0.0525 0.264584,-0.11667 z m 89.489102,-0.44019 c 1.55629,-0.50803 2.02536,-1.20326 2.3144,-3.43028 0.33884,-2.61079 0.33834,-6.24147 -0.001,-6.87543 -0.39149,-0.7315 -1.40517,-1.18414 -4.06842,-1.81666 -2.49939,-0.5936 -2.87577,-0.52375 -3.22464,0.59844 -0.0977,0.31428 -0.58741,1.02804 -1.08824,1.58613 -0.53349,0.59448 -0.84807,1.17769 -0.7596,1.40823 0.18647,0.48594 -0.28035,1.41126 -0.7163,1.41984 -0.17678,0.004 -1.13615,0.7647 -2.13193,1.6916 -1.75767,1.63607 -1.79875,1.70347 -1.40744,2.30878 0.22169,0.34293 0.44487,1.0048 0.49596,1.47083 0.0659,0.60085 0.35983,1.04301 1.01056,1.52005 0.90372,0.66249 0.97606,0.67096 4.75414,0.55653 2.11005,-0.0639 4.28015,-0.26104 4.82244,-0.43806 z M 20.637145,34.383315 c 4.163473,-1.39998 6.95715,-4.88711 7.89944,-9.86027 0.540954,-2.85502 0.416181,-3.30193 -0.868032,-3.10904 -0.530751,0.0797 -2.348592,0.28861 -4.039645,0.46421 l -3.074641,0.31926 -0.444318,1.00707 c -0.633185,1.43515 -2.01626,2.22282 -3.857442,2.19686 -2.354554,-0.0332 -4.410525,-1.41374 -5.459183,-3.66572 -0.769837,-1.65321 -0.788532,-2.81577 -0.06918,-4.30175 0.657685,-1.3586 2.050732,-2.191353 3.665738,-2.191353 0.886106,0 1.068875,-0.08889 1.068875,-0.519858 0,-0.285922 -0.222216,-0.638784 -0.493813,-0.784138 C 14.65813,13.774386 14.40362,13.244841 14.292857,12.540215 14.053581,11.018046 13.282202,8.5365435 12.98276,8.3256685 12.849957,8.2321485 12.815797,7.858819 12.90685,7.496049 13.158135,6.494842 12.608196,6.194889 11.345737,6.64457 10.770242,6.849555 9.9789887,7.0225 9.5873954,7.028887 9.1958014,7.035287 8.8012977,7.160409 8.7107207,7.306965 8.4995037,7.648722 7.1035037,8.3723435 6.3905097,8.5096545 6.0881017,8.5678945 5.7040107,8.5021545 5.5369747,8.3634905 5.3699377,8.224865 4.7964587,8.127863 4.2625767,8.147932 3.6581657,8.170662 3.0939947,8.005343 2.7674637,7.709835 2.1750907,7.173747 2.2710127,7.035261 1.3068074,9.8186239 0.65127642,11.710937 0.48221242,16.454435 0.98602943,18.818825 c 1.95385827,9.16937 8.84866367,15.97254 16.21153457,15.99609 1.304824,0.004 2.642946,-0.16374 3.439583,-0.4316 z M 44.9535,33.907255 c 5.493599,-2.64231 9.581068,-9.02184 10.507932,-16.40028 C 56.280267,10.988529 53.31487,4.530792 48.399383,2.127971 46.934528,1.411911 46.585439,1.351958 43.880818,1.351958 c -2.920717,0 -2.939156,0.004 -5.222857,1.135975 -4.249827,2.106517 -7.4451,5.7940025 -9.307052,10.740757 -0.571545,1.518452 -0.585028,1.689643 -0.218488,2.773971 0.478253,1.414814 0.28107,2.336774 -0.584089,2.730974 -0.472257,0.21517 -0.654158,0.50696 -0.654158,1.04933 0,0.46479 0.140166,0.75128 0.367564,0.75128 0.202158,0 0.640983,0.22141 0.975165,0.49201 l 0.607602,0.49201 -0.484172,2.82471 c -0.53481,3.12015 -0.536961,3.1079 0.99368,5.66009 l 0.839044,1.39903 1.327121,-0.16703 c 0.731176,-0.092 1.424974,-0.3392 1.545032,-0.55044 0.119851,-0.21087 0.625917,-0.75468 1.124593,-1.20847 1.119799,-1.01899 2.316318,-3.52311 2.131462,-4.4608 -0.112953,-0.57297 0.192357,-0.99911 1.966473,-2.74472 1.835534,-1.80605 2.602278,-3.0593 1.871681,-3.0593 -0.465976,0 -1.564097,-1.35624 -1.716958,-2.12054 -0.432755,-2.163784 1.717022,-3.725368 3.453845,-2.508851 1.340162,0.938686 1.330658,3.624201 -0.01537,4.344571 -0.335312,0.17946 -0.827686,0.70391 -1.094161,1.16545 -0.266475,0.46153 -1.298665,1.63225 -2.293758,2.60158 -1.373359,1.33781 -1.809255,1.93838 -1.809255,2.49278 0,0.4017 -0.311161,1.50814 -0.691467,2.45876 l -0.691468,1.7284 0.827934,0.73975 c 0.455362,0.40687 0.999252,0.73976 1.208644,0.73976 0.225983,0 0.451672,0.37826 0.55531,0.93069 0.169537,0.9037 1.163328,1.97973 1.828429,1.97973 0.176104,0 0.535686,0.23813 0.799076,0.52917 0.663827,0.73352 1.242023,0.66862 3.433284,-0.38533 z m 107.9753,0.47606 c 4.16348,-1.39998 6.95716,-4.88711 7.89944,-9.86027 0.54096,-2.85502 0.41619,-3.30193 -0.86803,-3.10904 -0.53075,0.0797 -2.34859,0.28861 -4.03964,0.46421 l -3.07464,0.31926 -0.44432,1.00707 c -0.63319,1.43515 -2.01626,2.22282 -3.85744,2.19686 -2.35456,-0.0332 -4.41053,-1.41374 -5.45919,-3.66572 -0.76983,-1.65321 -0.78853,-2.81577 -0.0692,-4.30175 0.65769,-1.3586 2.05074,-2.191353 3.66574,-2.191353 0.88611,0 1.06888,-0.08889 1.06888,-0.519858 0,-0.285922 -0.22222,-0.638784 -0.49382,-0.784138 -0.30681,-0.1642 -0.56132,-0.693745 -0.67208,-1.398371 -0.23928,-1.522169 -1.01066,-4.0036715 -1.3101,-4.2145465 -0.1328,-0.09352 -0.16696,-0.4668495 -0.0759,-0.8296195 0.25128,-1.001207 -0.29866,-1.30116 -1.56112,-0.851479 -0.57549,0.204985 -1.36674,0.37793 -1.75834,0.384317 -0.39159,0.0064 -0.7861,0.131522 -0.87667,0.278078 -0.21122,0.341757 -1.60722,1.0653785 -2.32021,1.2026895 -0.30241,0.05824 -0.6865,-0.0075 -0.85354,-0.146164 -0.16704,-0.1386255 -0.74051,-0.2356275 -1.2744,-0.2155585 -0.60517,0.02275 -1.16862,-0.142626 -1.49632,-0.439192 -0.67885,-0.61435 -0.74875,-0.405204 -0.85281,2.551746 -0.0686,1.949347 -0.17015,2.389116 -0.67604,2.927469 -1.53265,1.631027 0.0253,9.03957 2.80475,13.33763 2.33919,3.61724 5.83777,6.51595 9.28117,7.68982 2.16285,0.73733 5.39941,0.81163 7.31382,0.16791 z m 23.65144,-0.50719 c 2.83229,-0.22867 5.24331,-0.47366 5.35781,-0.54443 0.11451,-0.0708 0.2082,-0.41595 0.2082,-0.76707 0,-0.53716 -1.02578,-4.80438 -1.8425,-7.66475 -0.12465,-0.43656 -0.29859,-1.11901 -0.38653,-1.51654 -0.0979,-0.44241 -0.47108,-0.88372 -0.96211,-1.13764 -0.76466,-0.39542 -0.83798,-0.38477 -1.56542,0.22733 -0.41976,0.3532 -1.29462,0.89944 -1.94414,1.21387 -0.77545,0.37539 -1.29385,0.84426 -1.50975,1.36547 -0.39907,0.96343 -1.07094,1.35563 -2.32232,1.35563 -0.8073,0 -1.97421,0.48623 -2.43181,1.01328 -0.0728,0.0838 -0.57878,0.42368 -1.12448,0.75529 l -0.99219,0.60293 v 2.47306 c 0,3.17961 0.17037,3.38738 2.61148,3.18486 0.96478,-0.08 4.07147,-0.33262 6.90376,-0.56129 z m -60.94748,-0.54076 c 0.56601,-0.38094 1.68396,-1.23945 2.48432,-1.90779 1.41121,-1.17843 1.93769,-1.65132 3.76313,-3.38014 0.47689,-0.45166 1.13497,-0.96186 1.46239,-1.13379 0.40566,-0.21301 0.59532,-0.55359 0.59532,-1.06906 0,-0.47237 0.29299,-1.07011 0.78019,-1.59166 1.75303,-1.87662 1.19032,-2.57714 -2.24728,-2.79768 -1.30215,-0.0835 -2.47602,-0.26035 -2.6086,-0.39293 -0.47792,-0.47792 0.40535,-1.05723 1.61194,-1.05723 1.71826,0 2.19916,-0.34445 2.19916,-1.57517 0,-1.67685 -0.1643,-1.86442 -1.6332,-1.86442 -1.43734,0 -2.33555,-0.348828 -2.33555,-0.907038 0,-0.511799 0.60462,-0.679712 2.46904,-0.685699 3.61704,-0.01162 9.57196,-1.266735 10.72158,-2.259788 0.68306,-0.590034 0.69916,-0.675532 0.66478,-3.5319568 -0.0461,-3.8353612 -0.29505,-5.7038092 -0.85133,-6.3907872 -0.80176,-0.990137 -2.91162,-1.333528 -9.16761,-1.492086 -4.83064,-0.122433 -6.10116,-0.07532 -7.46873,0.276927 -1.71585,0.441958 -3.28967,1.296705 -4.14169,2.249362 -0.43516,0.486561 -0.45593,0.658088 -0.16483,1.360869 0.21546,0.52017 0.27094,1.293375 0.1571,2.189564 -0.35817,2.819656 -1.50085,9.395903 -2.03315,11.700983 -0.59886,2.59334 -0.58125,3.04635 0.32281,8.30268 0.59138,3.43834 1.12697,4.67102 2.53318,5.83013 1.2107,0.99796 1.56916,1.0137 2.88703,0.12671 z m 52.39995,-6.23333 c -0.44147,-0.7069 -0.70313,-0.59019 -0.70313,0.31362 0,0.71551 0.0508,0.76428 0.50219,0.48237 0.40732,-0.25437 0.44528,-0.40474 0.20094,-0.79599 z m 1.54583,-0.48237 c 0.43656,-0.28912 1.10341,-0.52647 1.48188,-0.52742 1.10558,-0.003 2.31972,-0.53342 2.49673,-1.09114 0.23948,-0.75452 1.15765,-1.54659 2.44316,-2.1076 0.62155,-0.27125 1.19984,-0.67493 1.28508,-0.89706 0.0852,-0.22212 0.3576,-0.40386 0.60527,-0.40386 0.24765,0 0.65991,-0.15328 0.91611,-0.34062 0.44315,-0.32404 0.43917,-0.44235 -0.0817,-2.43108 -0.30115,-1.14976 -0.54755,-2.22934 -0.54755,-2.39907 0,-0.214604 1.18883,-0.352714 3.90261,-0.45338 2.14643,-0.07962 4.22362,-0.270126 4.61597,-0.423349 0.91697,-0.358093 1.04313,-1.036405 1.09678,-5.8970361 C 187.82818,6.453794 187.75998,5.71297 187.36441,4.98885 186.78115,3.921247 185.30096,2.924557 183.73377,2.544159 182.33461,2.204546 164.32043,1.849112 162.48175,2.12484 c -0.70784,0.106146 -1.56008,0.45584 -1.97013,0.808378 l -0.72264,0.621309 v 4.058089 c 0,3.966085 0.0206,4.114249 0.90885,6.535028 l 0.90884,2.476931 3.82691,-0.1913 3.82691,-0.191311 -0.16326,0.889371 c -0.0898,0.48916 -0.34322,1.84187 -0.56317,3.00604 -0.98553,5.21629 -1.01693,5.61727 -0.49586,6.33286 0.58482,0.80313 0.55733,0.80047 1.54036,0.14943 z m -34.98337,-0.80424 c -0.0776,-0.29682 -0.20025,-0.48055 -0.2725,-0.40829 -0.14314,0.14314 0.10969,0.94795 0.2978,0.94795 0.0637,0 0.0523,-0.24285 -0.0253,-0.53966 z M 18.885754,23.853595 c 1.176793,-1.12743 1.295434,-2.12636 0.369649,-3.11231 -2.204648,-2.34791 -5.868765,-2.33101 -7.091092,0.0327 -0.576514,1.11485 -0.518922,1.46406 0.382206,2.31752 1.414315,1.33949 2.364396,1.7182 4.036989,1.60917 1.231834,-0.0803 1.670291,-0.24163 2.302248,-0.84708 z m 132.291656,0 c 1.1768,-1.12743 1.29544,-2.12636 0.36965,-3.11231 -2.20465,-2.34791 -5.86876,-2.33101 -7.09109,0.0327 -0.57651,1.11485 -0.51892,1.46406 0.38221,2.31752 1.41431,1.33949 2.36439,1.7182 4.03699,1.60917 1.23183,-0.0803 1.67029,-0.24163 2.30224,-0.84708 z m -18.20168,-3.58393 c -0.38051,-1.52797 -0.71628,-2.81982 -0.74618,-2.87077 -0.0299,-0.051 -0.81493,0.0981 -1.74453,0.33124 -0.92959,0.23313 -2.62377,0.54225 -3.76482,0.68692 -2.31897,0.29402 -2.5902,0.42261 -1.92197,0.91122 0.25443,0.18605 0.4626,0.63723 0.4626,1.00262 0,0.60206 0.13024,0.68132 1.38907,0.84537 1.83,0.23849 5.41952,1.15598 6.27013,1.60266 0.37135,0.19501 0.69146,0.33528 0.71135,0.31171 0.0199,-0.0236 -0.27515,-1.293 -0.65565,-2.82097 z m 46.52469,1.5875 c 0,-0.14552 -0.12609,-0.26458 -0.2802,-0.26458 -0.15411,0 -0.20661,0.11906 -0.11668,0.26458 0.0899,0.14552 0.21603,0.26458 0.2802,0.26458 0.0642,0 0.11668,-0.11906 0.11668,-0.26458 z M 57.671767,19.138045 c 0.901202,-1.79425 0.863883,-2.13141 -0.210405,-1.901 -1.194594,0.25622 -1.162084,0.21364 -1.349981,1.76809 -0.09286,0.76825 -0.247906,1.75084 -0.344543,2.18353 l -0.175699,0.78671 0.715568,-0.77211 c 0.393563,-0.42466 1.00784,-1.35401 1.36506,-2.06522 z m 26.432444,0.0515 c 0.789131,-1.57113 0.856102,-2.16853 0.229571,-2.04788 -0.286001,0.0551 -0.568706,0.55997 -0.788646,1.40847 -0.61926,2.389 -0.428995,2.60661 0.559075,0.63941 z m -59.560014,0.0549 c 1.868292,-0.56378 3.589713,-1.21787 3.825378,-1.45353 0.394919,-0.39492 0.369622,-0.60995 -0.322972,-2.745217 C 26.994985,11.803557 26.018783,9.8497116 24.377401,7.701881 19.603746,1.455312 11.896076,-0.79217692 6.6522277,2.533374 l -1.247637,0.791228 v 1.968562 c 0,3.1377945 0.252008,3.3471175 2.422107,2.011842 C 8.5362047,6.868444 9.4423414,6.506031 9.8403351,6.499644 10.238332,6.493244 11.02089,6.325103 11.579354,6.12597 c 0.93028,-0.331713 1.058934,-0.318516 1.534888,0.157438 0.322529,0.322529 0.459441,0.708729 0.361098,1.018582 -0.08712,0.274497 -0.0483,0.714891 0.08628,0.9786535 0.409493,0.8025977 0.825076,2.2899285 1.003435,3.5911815 0.09471,0.690994 0.387,1.431771 0.66376,1.682236 0.271989,0.246148 0.494527,0.716124 0.494527,1.04439 0,0.445548 0.301646,0.742874 1.189919,1.17288 1.369811,0.663114 2.895351,2.321884 3.320703,3.610714 0.161105,0.48815 0.432512,0.88752 0.603126,0.8875 0.170616,-3e-5 1.838814,-0.46132 3.707109,-1.0251 z m 132.291663,0 c 1.86829,-0.56378 3.58971,-1.21787 3.82537,-1.45353 0.39492,-0.39492 0.36963,-0.60995 -0.32297,-2.745217 -1.05162,-3.242141 -2.02782,-5.1959864 -3.6692,-7.343817 -4.77365,-6.246569 -12.48132,-8.49405792 -17.72517,-5.168507 l -1.24764,0.791228 v 1.968562 c 0,3.1377945 0.25201,3.3471175 2.42211,2.011842 0.7095,-0.436562 1.61564,-0.798975 2.01363,-0.805362 0.398,-0.0064 1.18056,-0.174541 1.73902,-0.373674 0.93028,-0.331713 1.05894,-0.318516 1.53489,0.157438 0.32253,0.322529 0.45944,0.708729 0.3611,1.018582 -0.0871,0.274497 -0.0483,0.714891 0.0863,0.9786535 0.40949,0.8025977 0.82507,2.2899285 1.00343,3.5911815 0.0947,0.690994 0.387,1.431771 0.66376,1.682236 0.27199,0.246148 0.49453,0.716124 0.49453,1.04439 0,0.445548 0.30165,0.742874 1.18992,1.17288 1.36981,0.663114 2.89535,2.321884 3.3207,3.610714 0.16111,0.48815 0.43251,0.88752 0.60313,0.8875 0.17061,-3e-5 1.83881,-0.46132 3.70711,-1.0251 z M 42.446258,18.161305 c 0,-0.14096 -0.178594,-0.18775 -0.396875,-0.10399 -0.218282,0.0838 -0.396875,0.19909 -0.396875,0.25628 0,0.0572 0.178593,0.10399 0.396875,0.10399 0.218281,0 0.396875,-0.11533 0.396875,-0.25628 z m 16.04958,-2.125311 c 0.522459,-0.884457 1.144585,-1.17882 1.95067,-0.922978 0.411086,0.130471 0.913201,-0.176932 2.131748,-1.305089 0.876699,-0.811668 1.74235,-1.475761 1.923669,-1.475761 0.501631,0 2.550583,-1.586466 2.550583,-1.974869 0,-0.187873 0.170347,-0.4829624 0.37855,-0.6557561 C 67.755853,9.4319859 67.718165,9.1444372 67.165631,7.676495 66.475431,5.8428 64.914553,2.699433 64.325882,1.957673 63.8071,1.303981 62.71313,0.955083 61.182261,0.955083 c -1.91874,0 -8.306615,0.948458 -9.973345,1.48082 -0.244602,0.07813 0.08818,0.574445 1.006272,1.500768 2.556494,2.579422 4.218421,7.031867 4.244755,11.372057 0.0091,1.505417 0.01738,1.521357 0.788022,1.521357 0.584814,0 0.895628,-0.19779 1.247873,-0.794091 z m 26.458334,0 c 0.522459,-0.884457 1.144585,-1.17882 1.95067,-0.922978 0.411086,0.130471 0.913201,-0.176932 2.131748,-1.305089 0.8767,-0.811668 1.74235,-1.475761 1.92367,-1.475761 0.50163,0 2.550575,-1.586466 2.550575,-1.974869 0,-0.187873 0.17035,-0.4829624 0.37855,-0.6557561 0.3248,-0.269555 0.28711,-0.5571037 -0.26543,-2.0250459 C 92.762135,5.386829 91.30557,2.545399 90.62549,1.827164 90.32181,1.506444 89.640652,1.162862 89.1118,1.063649 88.038171,0.862235 85.03768,1.067049 82.442906,1.518943 l -1.709984,0.297781 0.997413,0.342895 c 1.330987,0.45757 2.807923,1.668538 3.394274,2.783027 0.557604,1.059843 0.501724,1.947232 -0.487082,7.734952 -0.352896,2.065586 -0.64389,3.844907 -0.646658,3.954047 -0.01193,0.47135 0.531516,0.1353 0.963303,-0.595651 z m -16.84333,-5.820495 c 0,-0.145521 -0.112036,-0.2645834 -0.248968,-0.2645834 -0.136933,0 -0.322554,0.1190624 -0.412491,0.2645834 -0.08994,0.145521 0.02209,0.264583 0.248968,0.264583 0.226869,0 0.412491,-0.119062 0.412491,-0.264583 z m 26.458333,0 c 0,-0.145521 -0.11204,-0.2645834 -0.24897,-0.2645834 -0.13693,0 -0.32256,0.1190624 -0.41249,0.2645834 -0.0899,0.145521 0.0221,0.264583 0.24896,0.264583 0.22687,0 0.4125,-0.119062 0.4125,-0.264583 z M 4.9521157,6.006712 c -0.06615,-0.959385 -0.146364,-1.85202 -0.178249,-1.983632 -0.08221,-0.339352 -2.015109,2.347868 -2.015109,2.801515 0,0.621273 0.566761,0.992129 1.464635,0.958373 l 0.849,-0.03192 z m 132.2916643,0 c -0.0662,-0.959385 -0.14637,-1.85202 -0.17825,-1.983632 -0.0822,-0.339352 -2.01511,2.347868 -2.01511,2.801515 0,0.621273 0.56676,0.992129 1.46463,0.958373 l 0.849,-0.03192 z" id="path1115"/>
  </g>
</svg>