<svg xmlns:inkscape="http://www.inkscape.org/namespaces/inkscape" xmlns:sodipodi="http://sodipodi.sourceforge.net/DTD/sodipodi-0.dtd" xmlns="http://www.w3.org/2000/svg" xmlns:svg="http://www.w3.org/2000/svg" width="245mm" height="41mm" viewBox="0 0 245 41" version="1.1" id="svg5" inkscape:version="1.1.2 (0a00cf5339, 2022-02-04)" sodipodi:docname="GiftCard.svg">
    <defs id="defs2" />
    <g inkscape:label="Layer 1" inkscape:groupmode="layer" id="layer1">
        <path style="fill:#2d5840;fill-opacity:1;stroke-width:0.264583" d="m 37.677232,40.575496 c -1.858907,-0.46688 -2.683047,-1.52516 -2.388333,-3.06686 0.06903,-0.36112 0.04171,-0.65657 -0.06072,-0.65657 -0.102425,0 -0.400227,-0.39737 -0.661778,-0.88304 l -0.475546,-0.88304 1.069263,-2.88727 c 1.60483,-4.33344 1.846477,-5.17118 2.349878,-8.14658 0.532969,-3.15015 0.337532,-5.06743 -0.566999,-5.56234 -1.502452,-0.82206 -2.362285,-1.67293 -2.936304,-2.90573 -0.34672,-0.74463 -0.631565,-1.62768 -0.632986,-1.96233 -0.0013,-0.33465 -0.190154,-0.97117 -0.419402,-1.41449 -0.605205,-1.17033 -0.558503,-3.8402696 0.09293,-5.3129396 0.72063,-1.6291 2.22285,-3.22688 3.714147,-3.9504 0.965663,-0.46851 1.708179,-0.60361 3.356618,-0.61077 1.910638,-0.008 2.227622,0.066 3.256584,0.76378 1.292895,0.87672 2.301346,2.43246 2.586059,3.98952 0.106437,0.58209 0.353431,1.44147 0.548876,1.9097304 0.195447,0.4682697 0.355356,1.5776292 0.355356,2.4652292 0,1.47803 0.04329,1.60009 0.514446,1.45055 0.589758,-0.18718 1.19218,0.56488 1.479819,1.84741 0.09791,0.43656 0.410536,1.56766 0.694725,2.51354 1.62959,5.42388 0.305572,13.96318 -3.084399,19.89295 -1.89851,3.32089 -2.183352,3.51015 -5.377908,3.57331 -1.408581,0.0279 -2.945029,-0.0458 -3.414326,-0.16366 z m 5.215305,-3.9861 c 0.608706,-0.32576 2.690413,-3.71996 3.584848,-5.84504 0.366832,-0.87155 0.982932,-2.86019 1.369113,-4.4192 0.595135,-2.40254 0.700786,-3.39909 0.693224,-6.53872 -0.01093,-4.53345 -0.373068,-5.85687 -1.575882,-5.75888 -0.418232,0.0341 -2.545646,0.70071 -4.727588,1.48142 l -3.967166,1.41946 -0.01138,4.07484 c -0.01273,4.55882 -0.162705,5.3033 -2.171414,10.77803 l -1.197438,3.26363 0.524867,0.70512 c 0.312555,0.41991 0.888548,0.77131 1.423943,0.86874 1.490051,0.27115 5.529937,0.25153 6.054862,-0.0294 z m -3.435995,-22.07901 c 0,-0.35521 -0.10327,-0.70967 -0.229489,-0.78767 -0.12622,-0.078 -0.289404,-0.6734 -0.362636,-1.3231 -0.08484,-0.75274 -0.433514,-1.5897 -0.961136,-2.30715 -0.455392,-0.6192495 -0.827989,-1.3405696 -0.827989,-1.6029396 0,-0.26237 -0.154782,-0.47704 -0.343959,-0.47704 -0.189177,0 -0.483007,-0.13905 -0.65296,-0.30901 -0.169949,-0.16995 -0.736867,-0.45609 -1.259816,-0.63587 -0.912066,-0.31355 -0.962729,-0.29827 -1.2431,0.37515 -0.160755,0.38611 -0.301828,1.41639 -0.313497,2.2895201 -0.02964,2.2180095 0.899637,3.7883795 2.80311,4.7369195 0.758288,0.37787 1.831576,0.68704 2.385087,0.68704 0.8906,0 1.006385,-0.0743 1.006385,-0.64585 z m 2.388523,-0.32018 c 0.841031,-0.56164 2.373977,-1.99634 2.373977,-2.22184 0,-0.0955 -0.798992,-0.18726 -1.775537,-0.2039 -0.976545,-0.0166 -2.107639,-0.1032 -2.513542,-0.19235 -0.673229,-0.14787 -0.738005,-0.0958 -0.738005,0.59381 0,1.04677 0.983507,2.44601 1.727066,2.45709 0.149523,0.002 0.566242,-0.19254 0.926041,-0.43281 z m 3.061526,-3.58234 c 0.557503,-1.0780995 0.474115,-3.7368396 -0.15594,-4.9718496 -1.582518,-3.10199 -6.200297,-3.74855 -8.93213,-1.25063 -0.408993,0.37397 -0.593008,0.84044 -0.587947,1.4904 0.0066,0.84271 0.128392,1.00705 1.115171,1.50422 0.776259,0.39111 1.168403,0.78704 1.310278,1.32292 0.11136,0.4206204 0.532268,1.1441701 0.93535,1.6078796 0.793784,0.91318 1.529511,1.08715 4.396989,1.03969 1.403027,-0.0232 1.582049,-0.0925 1.918229,-0.74263 z M 34.770482,5.9669964 c 0.127527,-0.66712 0.110236,-0.68443 -0.225263,-0.22561 -0.199866,0.27333 -0.300649,0.59849 -0.223962,0.72257 0.222552,0.3601 0.302236,0.27195 0.449225,-0.49696 z M 181.73212,40.532936 c -1.47129,-0.34663 -2.95028,-1.17196 -3.7028,-2.06627 -0.64409,-0.76546 -2.84153,-5.09513 -2.84153,-5.59874 0,-0.31537 0.24825,-0.37672 -2.51354,0.62117 l -2.38125,0.8604 0.0906,1.65016 c 0.0863,1.57171 0.0485,1.69231 -0.79613,2.53689 -1.39184,1.39184 -5.46345,2.33818 -7.59289,1.76478 -1.06866,-0.28775 -1.0943,-0.32148 -1.0943,-1.43941 0,-0.74411 -0.18519,-1.38018 -0.52917,-1.81747 -0.29104,-0.36999 -0.52916,-0.98796 -0.52916,-1.37324 0,-0.6748 -0.05,-0.65132 -1.36107,0.63925 -6.17568,6.07903 -16.52555,3.38529 -22.07978,-5.74667 -1.40295,-2.30665 -2.25282,-4.47709 -3.28765,-8.3961 -2.34596,-8.88438 0.11175,-16.5844596 6.2639,-19.6250196 4.21532,-2.08331997 9.39835,-1.36988 13.86427,1.90841 3.10056,2.27601 5.982,6.3331496 7.29235,10.2677796 l 0.69918,2.09944 0.62541,-2.47407 c 3.47117,-13.73178957 10.94398,-16.1750295 17.85763,-5.8385596 2.3269,3.4789096 5.06535,9.7263196 6.45243,14.7203596 l 0.5879,2.11666 0.16731,-1.32291 c 0.24803,-1.96107 0.91192,-10.19732 1.24708,-15.4713196 0.31701,-4.98835 0.55115,-5.83098 1.75491,-6.31569 3.28564,-1.32301997 9.60012,-1.61094997 13.62977,-0.6215 2.75206,0.67574 5.09626,1.6295 7.00301,2.84923 l 1.39915,0.89503 0.96694,-0.65618 c 2.47988,-1.68289 8.14229,-2.70971 12.33549,-2.23692 2.84768,0.32109 6.89229,1.62312 9.10423,2.93083 2.362,1.39641 5.61735,4.6515096 6.89964,6.8990996 1.66836,2.92431 2.97998,7.79805 2.97998,11.0731 0,2.9332 -0.4091,4.5786 -1.80729,7.2689 -1.1376,2.1889 -3.96142,5.12489 -6.19762,6.44382 -6.13251,3.61701 -14.06132,3.98906 -20.89714,0.98059 -0.34842,-0.15334 -0.52365,-0.033 -0.72564,0.49825 -0.46281,1.21729 -2.06457,1.7239 -5.4296,1.7173 -4.83813,-0.01 -5.81301,-0.40902 -7.54317,-3.09126 l -0.72516,-1.12421 -0.16532,0.82656 c -0.0909,0.4546 -0.16531,1.10658 -0.16531,1.44884 0,0.37398 -0.26744,0.79752 -0.67024,1.06144 -0.57649,0.37773 -1.19638,0.4172 -4.43177,0.28217 -2.06884,-0.0863 -4.43328,-0.32703 -5.25431,-0.53484 -1.47446,-0.37322 -1.49624,-0.37028 -1.77398,0.23929 -0.52797,1.15877 -4.09818,1.76959 -6.72537,1.15063 z m 4.56817,-4.03827 c 0.65032,-0.31676 0.66026,-0.36881 0.59039,-3.09125 -0.13224,-5.15238 -1.30053,-10.57198 -3.47721,-16.13052 -0.74823,-1.91074 -0.81463,-1.99065 -1.7894,-2.15347 -0.6234,-0.10414 -1.26644,-0.0398 -1.67378,0.16755 -0.3638,0.18517 -1.41392,0.42274 -2.33359,0.52796 -1.41654,0.16205 -1.71668,0.28907 -1.96359,0.83097 -0.1603,0.35183 -0.59847,0.71277 -0.9737,0.80211 -1.08783,0.25899 -1.3437,0.60793 -1.3437,1.83245 0,0.8994 -0.17244,1.34541 -0.79375,2.05305 -0.43656,0.49722 -0.79375,0.99019 -0.79375,1.09549 0,0.10531 0.30333,0.55195 0.67406,0.99254 0.99275,1.17982 0.77208,1.52189 -1.33552,2.07023 -3.22664,0.83949 -3.63229,0.58863 -2.53288,-1.56639 0.62351,-1.22217 0.96595,-1.51214 2.06271,-1.7466 1.26778,-0.27102 2.18996,-1.50979 2.18996,-2.94181 0,-1.28878 0.66557,-2.22866 1.57819,-2.22866 0.56657,0 1.06764,-0.72297 1.06764,-1.54042 0,-0.28428 0.41672,-1.12267 0.92605,-1.8631 0.50932,-0.74042 0.92604,-1.42267 0.92604,-1.51611 0,-0.0934 0.35547,-0.57474 0.78992,-1.06956 1.29643,-1.4765495 1.2832,-1.9658392 -0.10186,-3.7658196 -5.01402,-6.51609997 -10.05543,-5.88707 -13.64111,1.7020304 -1.06871,2.2619192 -1.96365,5.4054592 -2.66621,9.3651692 -0.54678,3.08175 -0.55124,3.24219 -0.10386,3.73654 0.42554,0.47022 0.43833,0.70682 0.14265,2.63834 -0.17865,1.167 -0.47905,2.56395 -0.66756,3.10435 -0.48152,1.38034 -0.74484,4.80458 -0.534,6.94425 l 0.17815,1.80794 0.9701,0.1639 c 1.08093,0.18262 4.75284,-0.49002 5.8927,-1.07947 1.02457,-0.52982 1.27441,-1.14211 1.27441,-3.12321 0,-1.3774 0.0939,-1.77677 0.46302,-1.96889 0.73034,-0.38015 4.48087,-1.62969 4.89156,-1.62969 0.21195,0 0.85615,1.06994 1.50316,2.49658 1.43093,3.15514 2.53632,4.4768 4.19199,5.01218 2.25011,0.72759 5.0026,0.75821 6.41277,0.0713 z m 24.07709,-0.18038 c 1.80442,-0.28245 2.91041,-1.0734 2.91041,-2.08139 0,-1.30986 -3.12043,-8.19007 -4.29593,-9.47206 -0.72727,-0.79315 -0.46968,-1.25796 1.15277,-2.08011 1.95039,-0.98834 4.05223,-3.07511 4.99245,-4.95666 0.67817,-1.35713 0.79655,-1.89602 0.79655,-3.62617 0,-1.74791 -0.116,-2.26426 -0.82929,-3.69168 -3.3724,-6.7487796 -14.26177,-10.33113954 -23.59905,-7.7635596 -0.95428,0.26241 -1.67418,0.63537 -1.88908,0.97868 -0.23184,0.37037 -0.53694,3.41208 -0.91816,9.1536496 -0.31401,4.72942 -0.67267,9.31333 -0.79701,10.18645 -0.18991,1.3335 -0.15482,1.66172 0.21927,2.05138 0.39595,0.41242 0.67596,0.43463 2.5245,0.20026 2.10113,-0.2664 2.79923,-0.56951 2.79923,-1.21539 0,-0.4878 1.02064,-1.42226 2.02495,-1.85397 0.45888,-0.19725 1.42497,-0.9778 2.14687,-1.73456 l 1.31254,-1.37592 0.14235,-2.58334 c 0.0783,-1.42084 0.21514,-2.70111 0.3041,-2.84505 0.25408,-0.41111 1.73842,0.12593 2.58209,0.93422 1.09264,1.04682 1.03006,2.27259 -0.17402,3.40818 -0.50685,0.47802 -1.28238,0.94838 -1.7234,1.04525 -0.52278,0.11482 -1.28403,0.72468 -2.18731,1.75232 -0.762,0.86691 -1.66404,1.64659 -2.00452,1.73262 -0.70288,0.17759 -1.89448,1.19631 -1.89448,1.61962 0,0.15465 -0.27933,0.50091 -0.62074,0.76946 -0.67813,0.53342 -1.09791,2.10695 -0.72111,2.70305 0.13804,0.21837 0.13935,0.63139 0.003,0.98964 -0.21544,0.56666 -0.15771,1.04829 0.43902,3.66265 0.0996,0.43656 0.40237,1.10979 0.67272,1.49605 0.27035,0.38627 0.49155,1.01598 0.49155,1.39937 v 0.69706 l 2.3151,-0.0765 2.31511,-0.0764 0.14484,-2.04103 c 0.0797,-1.12256 0.22335,-2.11953 0.31932,-2.2155 0.36172,-0.36172 0.94055,0.15552 1.72039,1.53733 1.21812,2.15837 2.36336,3.0393 4.21704,3.24379 0.84475,0.0932 1.7145,0.20782 1.93278,0.25475 0.77719,0.16708 1.47785,0.13916 3.175,-0.1265 z m 19.75241,-0.87052 c 3.9235,-1.14946 7.45448,-3.50281 9.68166,-6.45268 1.07315,-1.42138 1.08012,-1.44511 0.64209,-2.18663 -0.24355,-0.41231 -0.44283,-0.98073 -0.44283,-1.26314 0,-0.28242 -0.25099,-0.7403 -0.55777,-1.01751 -0.30676,-0.27722 -0.83256,-1.04592 -1.16843,-1.70823 -0.35035,-0.69085 -0.9303,-1.35964 -1.36047,-1.56885 -1.10326,-0.53656 -5.35734,-1.54896 -5.90592,-1.40551 -0.25998,0.068 -0.55288,-0.006 -0.6509,-0.16473 -0.24474,-0.396 -0.87397,-0.0259 -2.18469,1.28477 -0.69556,0.69556 -1.31254,1.07414 -1.75052,1.07414 -0.60807,0 -0.69253,-0.12692 -0.83631,-1.25677 -0.088,-0.69122 -0.28897,-2.0096 -0.44668,-2.92973 -0.16459,-0.96016 -0.1878,-1.77192 -0.0545,-1.90523 0.30464,-0.30464 2.03754,0.093 2.91721,0.66937 0.379,0.24832 0.81913,0.79604 0.97808,1.21714 0.15895,0.4211 0.40235,0.76564 0.54089,0.76564 0.13853,0 0.47046,0.19781 0.73761,0.43957 0.26715,0.24177 0.8123,0.46125 1.21146,0.48773 1.68196,0.1116 4.72542,0.76387 5.11219,1.09564 0.22974,0.19707 0.61831,0.35831 0.86349,0.35831 0.24517,0 0.65252,0.1114 0.9052,0.24756 1.61463,0.87005 2.31254,1.06029 3.30658,0.90134 l 1.05629,-0.16891 -0.13076,-2.54052 c -0.20863,-4.0533 -1.60721,-7.143 -4.61207,-10.1887792 -5.20031,-5.2711304 -13.69818,-7.4846304 -20.93442,-5.4529304 -2.28481,0.64151 -4.28764,1.54035 -4.28764,1.92425 0,0.15078 0.54112,0.85266 1.2025,1.55973 2.32732,2.4880901 3.38544,5.8408196 2.77357,8.7881996 -0.22236,1.07107 -0.2326,1.88134 -0.0364,2.87954 0.15015,0.76398 0.30742,1.92484 0.34948,2.57969 l 0.0765,1.19062 -1.32175,0.13229 -1.32175,0.13229 -0.59144,3.43959 c -0.3253,1.89177 -0.60109,3.67771 -0.61287,3.96875 -0.0364,0.89981 0.78343,3.4231 1.21638,3.74366 0.6063,0.44888 4.56392,1.69165 6.22046,1.95333 2.44464,0.38618 7.00072,0.0848 9.41651,-0.623 z m -77.08061,-0.16341 c 2.92503,-1.00635 5.12697,-3.03826 6.57361,-6.06599 0.90142,-1.88662 1.8018,-6.23134 1.37897,-6.65416 -0.17105,-0.17106 -1.62917,-0.10974 -4.24411,0.17849 l -3.98353,0.43908 -0.31677,0.87601 c -0.92494,2.55788 -4.66049,3.13391 -7.40948,1.14255 -2.30922,-1.67279 -3.31444,-5.24386 -1.98263,-7.04331 0.91061,-1.23034 2.1725,-1.93846 3.45439,-1.93846 0.96823,0 1.15149,-0.0827 1.15149,-0.51986 0,-0.28592 -0.22221,-0.63878 -0.49381,-0.78414 -0.30681,-0.1642 -0.56132,-0.69374 -0.67209,-1.39837 -0.23484,-1.49398 -1.02001,-4.0205495 -1.28506,-4.1351592 -0.11531,-0.0499 -0.13666,-0.4797204 -0.0474,-0.9552404 0.20392,-1.087 -0.23092,-1.29878 -1.63733,-0.79743 -0.563,0.20069 -1.34403,0.37012 -1.73562,0.3765 -0.39159,0.006 -0.78663,0.13238 -0.87785,0.27998 -0.29965,0.48485 -2.10318,1.2511701 -2.64349,1.1232204 -0.29105,-0.0689 -1.04804,-0.16528 -1.68221,-0.21412 -0.63417,-0.0488 -1.36676,-0.2822204 -1.62798,-0.5186304 -0.44832,-0.40572 -0.50723,-0.34354 -1.0509,1.1093201 -0.89012,2.3786795 -1.13762,4.2047395 -0.9796,7.2276795 0.44555,8.5238 6.17971,16.39429 13.41048,18.40673 1.87228,0.52108 4.97628,0.45869 6.70097,-0.13469 z m 40.87332,0.22895 c -0.0521,-0.15644 -0.20792,-0.28443 -0.34617,-0.28443 -0.13824,0 -0.29401,0.12799 -0.34616,0.28443 -0.0521,0.15643 0.10363,0.28443 0.34616,0.28443 0.24254,0 0.39831,-0.128 0.34617,-0.28443 z m -0.82664,-0.55507 c 0.56308,-0.52899 0.57842,-0.612 0.19199,-1.03899 -0.64557,-0.71336 -1.54688,-4.63422 -1.17993,-5.13297 0.22355,-0.30385 0.15103,-2.72849 -0.0888,-2.9683 -0.24988,-0.24988 -1.82566,-0.26364 -2.41157,-0.0211 -0.29104,0.1205 -0.88635,0.43741 -1.32291,0.70425 l -0.79375,0.48516 0.0562,3.65872 c 0.0634,4.12341 0.11291,4.24074 1.94257,4.5995 2.05628,0.40319 2.94754,0.33243 3.60615,-0.28631 z m 19.77461,-7.9579 c 0.10184,-0.69122 0.11415,-1.25677 0.0274,-1.25677 -0.0868,0 -0.48104,0.20209 -0.87611,0.44909 -0.39506,0.247 -0.75351,0.47072 -0.79654,0.49717 -0.043,0.0265 0.19098,0.60225 0.52005,1.27957 0.66623,1.37131 0.79702,1.25867 1.12525,-0.96906 z m 28.98384,-1.76324 c 0.73356,-1.96154 0.65065,-2.51449 -0.39065,-2.60515 -0.43532,-0.0379 -1.23857,-0.20598 -1.78499,-0.37351 -0.54643,-0.16753 -1.06543,-0.23267 -1.15335,-0.14476 -0.16751,0.16751 0.74924,1.57082 1.54796,2.36954 0.25663,0.25663 0.4666,0.69499 0.4666,0.97413 0,0.66108 0.26698,1.34455 0.52521,1.34455 0.11221,0 0.46736,-0.70416 0.78922,-1.5648 z m -53.84553,0.78933 c 0.0837,-0.13546 0.0312,-0.32108 -0.11667,-0.41249 -0.1479,-0.0914 -0.2689,0.0194 -0.2689,0.2463 0,0.46475 0.15876,0.53318 0.38557,0.16619 z m -36.91066,-1.19685 c 1.17679,-1.12743 1.29544,-2.12636 0.36965,-3.11231 -2.3549,-2.50793 -6.17397,-2.29437 -7.20046,0.40264 -0.36953,0.97091 -0.35896,1.02017 0.38748,1.80549 1.29459,1.36202 2.42346,1.83593 4.14108,1.73844 1.24251,-0.0705 1.66482,-0.22356 2.30225,-0.83426 z m 5.53738,-4.55182 c 3.95368,-1.14616 4.37163,-1.42233 4.1269,-2.72691 -0.25307,-1.34897 -2.07248,-5.83213 -2.9163,-7.18597 -3.38694,-5.4340696 -9.17417,-8.8128196 -14.29348,-8.3449196 -1.95948,0.17909 -4.31254,1.02741 -5.24381,1.89049 -0.6264,0.58052 -0.69185,0.82706 -0.69185,2.6058 0,2.5551204 0.32211,2.8879104 1.98929,2.05528 0.64554,-0.3224 1.24298,-0.69824 1.32762,-0.8352 0.0846,-0.13695 0.56742,-0.24901 1.07283,-0.24901 0.5054,0 1.35036,-0.18027 1.87767,-0.40059 0.87633,-0.36616 1.00198,-0.36147 1.4617,0.0546 0.34509,0.3123 0.45314,0.65358 0.34427,1.08735 -0.0873,0.34771 -0.0474,0.7696404 0.0885,0.9376204 0.13594,0.16798 0.51132,1.4030092 0.83417,2.7445092 0.32285,1.3415 0.75254,2.57647 0.95486,2.74438 0.20232,0.16791 0.36785,0.58677 0.36785,0.9308 0,0.46089 0.23601,0.72412 0.89682,1.00022 1.36228,0.5692 2.97247,2.16371 3.51343,3.47921 0.2665,0.64805 0.58945,1.17872 0.71767,1.17927 0.12822,5.3e-4 1.73556,-0.43456 3.57187,-0.9669 z m 71.14106,-0.39975 c -0.60338,-0.38304 -1.33085,-0.25798 -1.15562,0.19866 0.0883,0.23018 0.1606,0.60812 0.1606,0.83987 0,0.33159 0.14152,0.28841 0.66429,-0.20271 0.49387,-0.46397 0.57872,-0.6784 0.33073,-0.83582 z m 1.78311,-0.74902 c 0.0899,-0.14553 0.0374,-0.26459 -0.11668,-0.26459 -0.15411,0 -0.2802,0.11906 -0.2802,0.26459 0,0.14552 0.0525,0.26458 0.11668,0.26458 0.0642,0 0.19026,-0.11906 0.2802,-0.26458 z m -50.05518,-4.20701 c 0.40966,-0.16 1.08724,-0.29091 1.50574,-0.29091 0.41851,0 0.83145,-0.11413 0.91767,-0.25363 0.0862,-0.13949 -0.25894,-1.06223 -0.76701,-2.05052 -1.39781,-2.7190395 -1.2708,-2.6390295 -2.3618,-1.48785 -0.52848,0.55763 -0.96191,1.11347 -0.96317,1.2352 -10e-4,0.12174 -0.37481,0.74006 -0.83012,1.37405 -1.08676,1.51329 -0.90568,2.05785 0.62806,1.88872 0.61919,-0.0683 1.46098,-0.25505 1.87063,-0.41506 z M 137.22468,6.8218364 c 0.003,-1.0914 -0.057,-1.97864 -0.13229,-1.97167 -0.30051,0.0279 -2.12127,2.52551 -2.12127,2.90988 0,0.64057 0.55908,1.04619 1.44198,1.04616 l 0.80698,-2e-5 0.005,-1.98435 z M 57.48397,39.595546 c -0.503828,-0.6079 -1.068245,-1.77595 -1.389608,-2.87577 -0.297643,-1.01865 -0.649123,-2.14974 -0.781068,-2.51354 -1.038289,-2.8628 -1.700247,-9.95384 -1.481958,-15.875 0.185177,-5.02292 1.147133,-11.2744196 2.008741,-13.0542596 1.152265,-2.38026 3.382766,-3.99181 6.705423,-4.84470994 1.404366,-0.36048 2.632876,-0.39551 8.264168,-0.23564 7.134764,0.20255 10.204987,0.58313997 11.668075,1.44637994 0.892907,0.52683 1.300117,0.54885 10.241319,0.55396 9.957738,0.006 11.963528,0.15947 13.823318,1.05978 1.29788,0.62829 2.37696,2.13999 2.65223,3.71556 0.0872,0.49934 0.33768,1.38413 0.55654,1.9662204 0.46888,1.2470892 0.52015,8.3041892 0.0724,9.9669892 -0.43748,1.62467 -1.02308,1.84139 -5.42035,2.00599 -2.63977,0.0988 -3.82111,0.23609 -3.7489,0.43564 0.11091,0.30647 1.06687,3.92075 2.83211,10.70766 0.58169,2.23645 1.05762,4.39089 1.05762,4.78764 0,1.36894 -0.51386,1.53665 -6.091843,1.98812 -10.41518,0.84299 -9.606968,0.84249 -10.264616,0.006 -0.354447,-0.45061 -0.576871,-1.10728 -0.576871,-1.70311 0,-0.53336 -0.128318,-1.09806 -0.285152,-1.25489 -0.852887,-0.85289 -0.734846,-5.86964 0.269192,-11.44063 0.299455,-1.66155 0.500107,-3.06535 0.445894,-3.11956 -0.05421,-0.0542 -1.430086,0.0345 -3.057498,0.19724 -3.218392,0.32175 -4.003699,0.12975 -4.385168,-1.07216 -0.111421,-0.35106 -0.332052,-0.50152 -0.615378,-0.41967 -1.416897,0.40934 -2.825295,0.68043 -4.935686,0.95001 -1.307536,0.16703 -2.42583,0.35219 -2.485099,0.41146 -0.05927,0.0593 0.03444,0.2791 0.208235,0.48851 0.402117,0.48452 0.786681,3.98665 0.495001,4.50786 -0.120988,0.21619 -0.901538,0.59899 -1.734555,0.85066 -0.833017,0.25167 -1.602256,0.52902 -1.709418,0.61633 -0.107159,0.0873 -0.01995,1.22596 0.193818,2.53036 1.022401,6.23877 0.375179,7.1578 -6.424107,9.122 -1.559409,0.45048 -3.380484,0.88628 -4.046834,0.96844 -1.156668,0.14261 -1.249974,0.10301 -2.059985,-0.8743 z m 3.219704,-3.76469 c 0.542586,-0.54258 0.543772,-0.57196 0.08396,-2.07968 -0.256524,-0.84113 -0.652576,-1.9382 -0.880115,-2.43794 -0.342802,-0.75289 -0.35854,-1.06117 -0.09183,-1.79875 0.251134,-0.6945 0.251825,-0.97454 0.0031,-1.2742 -0.442092,-0.53268 -1.245949,-0.48069 -1.427826,0.0923 -0.08316,0.26203 -0.567436,0.62692 -1.076164,0.81088 -0.508725,0.18396 -0.924957,0.50536 -0.924957,0.71422 0,0.20886 -0.09296,0.37975 -0.206576,0.37975 -0.113617,0 -0.346101,0.36964 -0.516631,0.82143 -0.430755,1.14119 0.362527,3.57498 1.616165,4.95839 0.471776,0.52061 0.747964,0.59981 1.716366,0.49218 0.67954,-0.0755 1.380424,-0.35457 1.704475,-0.67863 z m 3.622799,-0.69947 c 2.548973,-0.8504 3.569936,-1.48471 4.131919,-2.5671 0.409774,-0.78923 0.42137,-1.15913 0.122727,-3.9143 -0.181396,-1.67349 -0.392184,-3.36035 -0.468416,-3.74857 -0.131217,-0.66821 -0.05266,-0.72997 1.473105,-1.15808 0.886442,-0.24872 1.747533,-0.61588 1.913536,-0.8159 0.412726,-0.4973 0.167148,-3.25345 -0.31659,-3.55311 -0.205198,-0.12712 -1.432449,-0.17994 -2.727227,-0.11739 -1.823038,0.0881 -2.479636,0.22635 -2.910417,0.61292 -0.305951,0.27455 -0.766421,0.57341 -1.023268,0.66413 -0.256844,0.0907 -0.576665,0.43588 -0.710711,0.76703 -0.134043,0.33115 -0.726617,1.1974 -1.316826,1.92501 -1.44172,1.77733 -2.129422,3.34266 -2.127657,4.84293 7.94e-4,0.68336 -0.0158,1.6592 -0.03686,2.16853 -0.04945,1.19486 1.369904,5.55625 1.808205,5.55625 0.111766,0 1.096584,-0.29806 2.188485,-0.66235 z m 32.799476,-0.28328 c 2.832284,-0.22866 5.243301,-0.47366 5.357811,-0.54443 0.39177,-0.24213 0.20771,-1.52198 -0.73466,-5.10826 -0.51857,-1.97348 -1.05874,-4.03383 -1.20035,-4.57856 -0.18162,-0.69859 -0.49704,-1.1143 -1.070464,-1.41083 -0.779497,-0.4031 -0.841747,-0.39389 -1.511631,0.22354 -0.38426,0.35418 -1.251635,0.90429 -1.927503,1.22248 -0.84338,0.39705 -1.3349,0.83456 -1.566934,1.39473 -0.374025,0.90298 -1.680469,1.60478 -2.559479,1.37492 -0.611872,-0.16001 -1.416507,0.2863 -3.442134,1.90928 -0.853326,0.6837 -0.859895,0.70683 -0.859895,3.02779 0,3.02963 0.189949,3.25152 2.611474,3.05063 0.964782,-0.08 4.071477,-0.33262 6.903765,-0.56129 z m -41.01555,-5.37655 c 0.147568,-0.27573 0.63849,-0.63038 1.090935,-0.7881 0.452448,-0.15773 0.885566,-0.52744 0.962485,-0.82158 0.08833,-0.33776 0.360268,-0.53481 0.738061,-0.53481 0.687504,0 0.959363,-0.29422 1.466869,-1.5875 0.199866,-0.50932 0.934196,-1.65635 1.631844,-2.54896 0.697648,-0.8926 1.268449,-1.71836 1.268449,-1.83503 0,-0.31923 1.109454,-1.43576 1.435182,-1.44434 0.156536,-0.004 0.857637,-0.5399 1.557999,-1.19062 1.242441,-1.15438 1.31639,-1.18326 3.042709,-1.1883 3.533846,-0.0103 10.964225,-1.32058 12.76255,-2.25053 1.548255,-0.80063 1.660771,-1.25863 1.51865,-6.1815692 -0.182467,-6.3205304 -0.640103,-7.0722204 -4.710435,-7.7371104 -2.803755,-0.45798997 -14.49247,-0.46603997 -16.472562,-0.0113 -2.360448,0.54204 -4.631499,2.19974 -5.655485,4.12809 -1.22551,2.30786 -1.987005,7.2621696 -2.146911,13.9679296 -0.185102,7.76231 0.452885,11.99839 1.50966,10.02378 z m 32.468019,-1.39754 c -0.441468,-0.70689 -0.703125,-0.59019 -0.703125,0.31362 0,0.71551 0.05078,0.76428 0.502184,0.48238 0.407319,-0.25438 0.445278,-0.40475 0.200941,-0.796 z m 1.618374,-0.48336 c 0.476459,-0.29049 1.214999,-0.52817 1.641197,-0.52817 1.12779,0 2.045994,-0.49918 2.374877,-1.2911 0.315849,-0.76053 1.780952,-1.8839 2.456992,-1.8839 0.235096,0 0.649949,-0.28287 0.921896,-0.6286 0.271949,-0.34572 0.875903,-0.71237 1.342115,-0.81477 0.993194,-0.21814 0.993004,-0.21647 0.318507,-2.78997 -0.286057,-1.0914 -0.522137,-2.11702 -0.524627,-2.27915 -0.003,-0.19746 1.283851,-0.33989 3.898061,-0.43142 4.28982,-0.1502 5.26228,-0.38853 5.50328,-1.34877 0.0881,-0.35116 0.18076,-2.46873 0.20583,-4.70571 0.051,-4.5559796 -0.17635,-5.3345896 -1.89663,-6.4938896 -1.52413,-1.02711 -3.18652,-1.19661 -13.156453,-1.34148 l -9.542416,-0.13866 0.333722,2.21798 c 0.443233,2.94581 0.457594,8.6269196 0.024,9.4940196 -0.29995,0.59984 -1.880688,1.57323 -3.233312,1.99101 l -0.529167,0.16345 0.529167,0.40296 c 0.446511,0.34001 1.180089,0.37518 4.696354,0.22513 2.883575,-0.12305 4.167188,-0.091 4.167188,0.10406 0,0.15504 -0.369115,2.29897 -0.820259,4.76429 -0.804611,4.3969 -0.810918,4.49521 -0.330729,5.15431 0.593797,0.81502 0.550379,0.81078 1.620404,0.15838 z m 9.849328,-4.76151 c 0,-0.14552 -0.126087,-0.26458 -0.280197,-0.26458 -0.154107,0 -0.206617,0.11906 -0.116677,0.26458 0.0899,0.14552 0.216027,0.26459 0.280197,0.26459 0.0642,0 0.116677,-0.11907 0.116677,-0.26459 z M 14.883033,38.832666 C 11.513385,37.886646 7.5270424,35.009156 5.2179204,31.856036 1.6651014,27.004636 -0.66914752,17.821576 0.27392148,12.406076 1.4741274,5.5139864 6.1117154,1.1333164 12.20781,1.1333164 c 3.898903,0 7.414922,1.6015 10.73771,4.89089 2.5718,2.54594 3.965668,4.8186596 5.359191,8.7382096 1.807411,5.08368 2.161374,6.60851 1.66066,7.15392 -0.126915,0.13824 -0.306186,0.75282 -0.398383,1.36572 -0.141999,0.94397 -0.08649,1.15779 0.363045,1.39837 0.645896,0.34567 0.671164,1.06897 0.13556,3.88013 -0.812115,4.26246 -3.350218,7.76295 -6.901178,9.51793 -1.736841,0.85839 -2.215989,0.97354 -4.4039,1.05836 -1.650473,0.064 -2.921177,-0.0357 -3.877482,-0.30418 z m 6.985225,-4.32606 c 2.202636,-1.03073 4.207389,-3.04773 5.335861,-5.36844 0.984334,-2.02429 1.935183,-6.41334 1.486577,-6.86195 -0.204457,-0.20445 -1.328238,-0.1686 -3.954166,0.12616 -2.017692,0.22648 -4.594572,0.49141 -5.726404,0.58873 -1.131829,0.0973 -2.115606,0.27037 -2.186173,0.38454 -0.07056,0.11418 0.01138,0.51418 0.182113,0.88888 0.243313,0.53402 0.501409,0.68129 1.193988,0.68129 0.995836,0 1.118804,0.36975 0.510318,1.53449 -0.537959,1.02973 -1.719546,2.07637 -2.901477,2.5701 -1.973966,0.82458 -4.095335,-0.10299 -5.203539,-2.27525 -1.0243158,-2.00782 -0.455134,-5.33263 1.170339,-6.8364 1.069941,-0.98983 0.966245,-2.50775 -0.298841,-4.37455 -0.545704,-0.80526 -1.170782,-1.52628 -1.389063,-1.60227 -0.2182811,-0.076 -0.6176478,-0.61772 -0.8874818,-1.20386 -0.3664397,-0.79597 -0.685909,-1.10475 -1.2622768,-1.22002 -0.424418,-0.0849 -0.83575,-0.25802 -0.91407,-0.38475 -0.07832,-0.12672 -0.36027,-0.23041 -0.626554,-0.23041 -0.283821,0 -0.468948,-0.17619 -0.447406,-0.42582 0.05963,-0.6909695 -1.267069,-1.4893892 -2.704334,-1.6274996 l -1.325291,-0.12734 -0.527619,1.8179396 c -1.08928792,3.75319 -0.93465292,7.71143 0.463846,11.87315 1.091194,3.24723 2.671681,5.7383 5.299478,8.35272 3.4857116,3.46796 6.6346506,4.82039 10.7923606,4.63517 1.743789,-0.0777 2.516743,-0.25803 3.919815,-0.91461 z m -5.653169,-6.27516 c 0.693602,-0.35867 0.787561,-0.52748 0.656984,-1.18036 -0.0838,-0.41901 -0.02945,-0.83781 0.120788,-0.93065 0.174712,-0.10798 0.125102,-0.33241 -0.137653,-0.62276 -0.225943,-0.24966 -0.543869,-0.83564 -0.706503,-1.30217 -0.346417,-0.99373 0.0072,-1.62599 0.916794,-1.63899 0.532437,-0.008 0.536155,-0.0236 0.06863,-0.29522 -0.739013,-0.42937 -2.451675,-0.0979 -3.457285,0.6691 -1.044575,0.79674 -2.001554,2.62441 -2.001554,3.82263 0,1.59372 2.648773,2.45631 4.539799,1.47842 z m 7.451415,-8.0623 c 2.063322,-0.58987 4.033065,-1.25642 4.377206,-1.48122 0.783114,-0.51155 0.70258,-1.16553 -0.556225,-4.51684 -1.282888,-3.41544 -2.405145,-5.1828792 -4.833189,-7.6118296 -2.340049,-2.34091 -4.726184,-3.77585 -7.44532,-4.47736 -2.839545,-0.73258 -5.9780398,-0.4127 -6.3132505,0.64346 -0.09029,0.28448 -0.5215092,0.87458 -0.9582651,1.31133 -0.716308,0.71631 -0.799014,0.97467 -0.844257,2.63732 -0.02867,1.05373 -0.191379,1.98444 -0.379868,2.17293 -0.18134,0.1813404 -0.329711,0.5104704 -0.329711,0.7313901 0,0.5202295 1.268173,1.6091595 1.8740334,1.6091595 0.5056177,0 1.5655501,1.17631 1.5655501,1.73745 0,0.18875 0.3458371,0.58944 0.7685241,0.89042 0.422688,0.30098 1.138079,1.20205 1.589763,2.00239 0.45168,0.80033 0.982757,1.45515 1.180168,1.45515 0.197414,0 0.66166,0.23813 1.031658,0.52917 0.369999,0.29104 0.963761,0.52917 1.319472,0.52917 0.856869,0 2.315927,1.00585 2.973957,2.0502 0.291041,0.4619 0.686461,0.84441 0.878713,0.85002 0.192251,0.006 2.03772,-0.47243 4.101041,-1.06231 z m -9.524193,-1.98331 c 0.02558,-0.13831 -0.221369,-0.28953 -0.548791,-0.33603 -0.450225,-0.0639 -0.595312,0.0468 -0.595312,0.4545 0,0.43433 0.106606,0.4996 0.548791,0.33603 0.301834,-0.11166 0.569724,-0.31618 0.595312,-0.4545 z M 6.6733874,6.5379564 c -0.06035,-1.66478 -0.01551,-1.81756 0.772116,-2.63017 0.541039,-0.55821 0.731893,-0.9272 0.540704,-1.04536 -0.449755,-0.27796 -2.48312,1.03041 -3.634867,2.33886 -0.816182,0.92724 -1.02466,1.3731 -1.018354,2.1779 0.0073,0.93689 0.07993,1.03227 0.978462,1.28565 0.533793,0.15053 1.06296,0.3662904 1.175927,0.4794704 0.112966,0.11319 0.440449,-0.0293 0.72774,-0.3165604 0.431804,-0.4318 0.51124,-0.82871 0.458272,-2.28979 z m -3.737449,0.94536 c 0,-0.35278 -0.0285,-0.35278 -0.25648,0 -0.141065,0.21828 -0.256481,0.57547 -0.256481,0.79375 0,0.35278 0.0285,0.35278 0.256481,0 0.141064,-0.21828 0.25648,-0.57547 0.25648,-0.79375 z" id="path948" />
    </g>
</svg>