<svg xmlns:inkscape="http://www.inkscape.org/namespaces/inkscape" xmlns:sodipodi="http://sodipodi.sourceforge.net/DTD/sodipodi-0.dtd" xmlns="http://www.w3.org/2000/svg" xmlns:svg="http://www.w3.org/2000/svg" width="88mm" height="40mm" viewBox="0 0 88 40" version="1.1" id="svg5" inkscape:version="1.1.2 (0a00cf5339, 2022-02-04)" sodipodi:docname="Pay.svg">
    <defs id="defs2" />
    <g inkscape:label="Layer 1" inkscape:groupmode="layer" id="layer1">
        <path style="fill:#2d5840;fill-opacity:1;stroke-width:0.264583" d="m 47.551306,39.894973 c -0.65567,-0.181123 -1.44301,-0.463585 -1.74965,-0.62769 -1.03615,-0.554532 -2.30394,-2.282116 -3.44967,-4.70077 l -1.14025,-2.407092 -2.36796,0.809874 -2.367956,0.809874 0.04839,1.767594 c 0.04241,1.549037 -0.03196,1.853382 -0.601443,2.461413 -0.898496,0.959305 -3.880046,1.837859 -6.263667,1.84567 -2.356154,0.0077 -2.743787,-0.270253 -2.743787,-1.967585 0,-0.87789 -0.120841,-1.308581 -0.396875,-1.414507 -0.33373,-0.128064 -0.39388,-0.921885 -0.37805,-4.989245 0.01035,-2.660322 0.110027,-5.789449 0.221496,-6.953616 0.111469,-1.164166 0.180834,-2.147969 0.154146,-2.186228 -0.02669,-0.03826 -0.513313,0.301416 -1.081392,0.754838 -1.21122,0.966756 -4.017198,2.425253 -5.547267,2.883374 l -1.074817,0.32181 0.354229,2.155811 c 0.400606,2.438041 0.549519,7.673264 0.243758,8.569526 C 19.03841,38.118838 14.352343,39.021451 8.8697535,39.058352 5.7999168,39.079012 5.4749028,39.035092 5.1201468,38.55181 4.2924648,37.424212 1.8345728,28.103806 1.3872678,24.396602 1.2906978,23.596237 0.96475181,21.274518 0.66294181,19.237227 -0.05360513,14.400331 -0.09928313,9.0141056 0.55765681,6.8225971 0.84799381,5.8540461 1.3219058,4.9806821 1.7989258,4.5350791 2.8357768,3.5665161 6.7707928,1.5675571 9.0559402,0.84856914 11.590109,0.0512322 16.255782,-0.1507288 18.977815,0.41908417 c 2.80818,0.58784693 6.008479,2.26632193 7.669216,4.02230593 1.263951,1.336441 2.635705,3.7212288 2.651363,4.6093785 0.0038,0.2182817 0.42586,-0.464005 0.937808,-1.5161915 1.147029,-2.357451 3.420488,-4.879825 4.950365,-5.492372 0.616802,-0.24696 1.694989,-0.444694 2.395969,-0.439407 5.25263,0.03962 11.05591,8.4202529 14.85268,21.4490619 0.49117,1.685493 1.04553,3.987268 1.23191,5.115054 0.18639,1.127787 0.41561,2.050521 0.5094,2.050521 0.0938,0 0.29459,-0.26789 0.44623,-0.595312 0.15164,-0.327422 1.17736,-1.721136 2.27937,-3.097141 l 2.00365,-2.501832 -0.49131,-0.80546 c -2.07061,-3.394641 -3.93434,-7.089296 -4.61049,-9.139838 -0.94069,-2.852828 -1.74328,-5.9649851 -1.90349,-7.3810939 -0.1646,-1.454849 -0.13171,-1.576532 0.67401,-2.494197 1.1504,-1.310237 4.19907,-2.29596 7.09667,-2.294552 2.50498,0.0012 3.38678,0.465137 4.64415,2.443312 0.92614,1.457067 2.81667,5.4771899 2.81667,5.9895189 0,0.864661 0.65135,-0.04585 2.25199,-3.1480379 2.02242,-3.919611 2.765,-4.691882 5.23744,-5.446858 2.2354,-0.682592 7.98686,-0.693295 9.7547,-0.01815 1.71898,0.656482 2.44563,1.511888 2.25936,2.659699 -0.11263,0.694092 -0.0259,1.024594 0.36056,1.374363 0.69274,0.62692 0.65356,1.936658 -0.13985,4.6745339 -0.80957,2.793674 -3.0876,8.063428 -4.31914,9.991463 -1.22081,1.911239 -6.54424,8.745783 -8.9999,11.554627 -3.10586,3.552552 -7.08985,6.540418 -9.67138,7.253213 -1.15809,0.319762 -3.54063,-0.403963 -6.18963,-1.880177 -2.10112,-1.170897 -2.87207,-2.185469 -2.61967,-3.447481 0.0969,-0.484301 0.008,-0.849312 -0.26149,-1.072883 -0.36504,-0.302961 -0.38659,-0.102224 -0.20338,1.895152 0.30623,3.338656 0.24643,4.18832 -0.32446,4.610227 -1.23045,0.909352 -4.4645,1.176346 -6.71583,0.554442 z m 5.05138,-4.000781 c 0.42403,-0.219273 0.77056,-0.544449 0.77006,-0.722614 -5.3e-4,-0.178165 -0.12183,-1.693153 -0.26963,-3.366643 -0.50388,-5.705231 -1.38174,-9.56007 -3.35334,-14.725137 l -0.92453,-2.422014 -1.05015,-0.100147 c -0.57758,-0.05508 -1.37268,0.03547 -1.7669,0.201226 -0.39421,0.165753 -1.38088,0.384349 -2.19259,0.485764 -1.2159,0.151919 -1.57735,0.321707 -2.05223,0.964018 -0.31702,0.428794 -0.78715,0.779623 -1.04473,0.779623 -0.72203,0 -1.10323,0.543428 -1.10432,1.574271 -7.9e-4,0.832083 -0.32334,1.53407 -1.34785,2.934219 -0.23407,0.3199 -0.14962,0.626303 0.39306,1.425985 0.86563,1.275575 0.86229,1.425006 -0.0364,1.628659 -0.40018,0.09069 -1.31476,0.331078 -2.032394,0.534207 -0.717638,0.203131 -1.52131,0.369326 -1.785938,0.369326 -0.649727,0 -0.623623,-0.861526 0.06949,-2.293297 0.457406,-0.944872 0.735079,-1.187114 1.640067,-1.430803 1.562065,-0.420619 2.562185,-1.641473 2.567585,-3.134233 0.005,-1.334783 0.5648,-2.1375 1.49113,-2.1375 0.679,0 1.15893,-0.688785 1.15893,-1.663272 0,-0.351848 0.29286,-1.044284 0.65083,-1.538747 0.35796,-0.494462 0.89291,-1.339123 1.18877,-1.877021 0.29586,-0.5379 0.6901,-1.073682 0.87609,-1.190625 0.18598,-0.116946 0.48936,-0.556368 0.67417,-0.9764967 0.30443,-0.6920974 0.26662,-0.8649514 -0.40245,-1.8396922 -1.23391,-1.797629 -3.5065,-3.898223 -4.93904,-4.565247 -2.42759,-1.130343 -4.334468,-0.734818 -6.395938,1.326649 -1.773407,1.773408 -3.693284,5.6386109 -3.953208,7.9588269 -0.09781,0.873125 -0.459148,2.242344 -0.802963,3.042708 -1.069737,2.490235 -1.937816,10.517894 -1.967899,18.198407 -0.01109,2.829536 0.01037,2.854918 2.371629,2.805533 2.026733,-0.04239 4.621626,-0.826892 5.439122,-1.644388 0.620557,-0.620554 0.672743,-0.840536 0.597001,-2.516537 l -0.083,-1.836539 2.513536,-0.888187 c 1.38245,-0.488501 2.69214,-0.883082 2.91042,-0.876846 0.23878,0.0068 0.87116,1.031325 1.5875,2.571848 1.29004,2.774313 2.26804,4.08609 3.53478,4.741143 1.74295,0.901314 5.51222,1.009827 7.07134,0.203573 z M 13.300264,34.829938 c 1.740205,-0.228018 3.461666,-0.558094 3.825468,-0.7335 l 0.661458,-0.31892 -0.0081,-3.926631 -0.0081,-3.926631 -0.785593,-0.622964 c -0.432176,-0.342631 -1.08335,-0.869755 -1.447152,-1.171385 -0.363802,-0.301633 -1.231659,-0.872453 -1.928569,-1.268492 -0.696912,-0.396039 -1.411287,-1.004623 -1.5875,-1.35241 -0.624705,-1.232955 -1.026419,-1.235418 -2.8110738,-0.01722 -0.9131074,0.623282 -2.0954674,1.719588 -2.6274654,2.436236 -0.599993,0.808244 -1.419349,1.520327 -2.157891,1.875369 -1.690558,0.81271 -1.680205,0.809347 -1.476423,0.479621 0.101606,-0.164399 0.07047,-0.298908 -0.06919,-0.298908 -0.739595,0 1.014098,7.647101 2.017488,8.797396 0.529831,0.607399 3.9847647,0.627317 8.4026582,0.04844 z m 52.105512,-0.948391 c 2.2327,-1.306738 7.33304,-6.334626 10.02421,-9.88182 0.99362,-1.309688 2.52064,-3.329154 3.39336,-4.487707 3.03703,-4.031689 7.0431,-13.1519329 6.77969,-15.4347119 -0.0614,-0.531779 -0.3538,-0.850506 -1.14084,-1.243393 -0.91683,-0.457673 -1.589,-0.528186 -5.02709,-0.527359 -3.61026,8.73e-4 -4.09489,0.0578 -5.36528,0.630255 -1.63125,0.735064 -1.83007,0.9908 -4.03351,5.1879168 -0.91675,1.7462491 -1.90411,3.5168401 -2.19412,3.9346491 -0.52174,0.751634 -0.53175,0.75401 -0.94949,0.225198 -0.52445,-0.663917 -2.01932,-0.517785 -2.4232,0.236884 -0.14661,0.273934 -0.47668,0.498059 -0.7335,0.498059 -0.67312,0 -1.10194,0.526987 -1.10194,1.354194 0,0.98239 -0.25091,1.556223 -0.68046,1.556223 -0.40449,0 -0.96081,0.892173 -0.86803,1.392055 0.13146,0.708253 -0.40268,2.211761 -0.99872,2.811211 -0.76167,0.766043 -0.76606,0.841254 -0.0986,1.689764 0.29104,0.369999 0.52916,0.819891 0.52916,0.999758 0,0.179863 -1.13152,1.841182 -2.51449,3.691813 -1.38296,1.850631 -2.64723,3.745587 -2.80948,4.211013 -0.26099,0.748681 -0.22276,0.925063 0.33168,1.530154 0.6841,0.746609 3.83613,2.315663 5.44006,2.708026 1.4606,0.357299 2.35246,0.139952 4.44061,-1.082182 z M 4.7564618,25.228005 c 0.400182,-0.159025 0.727604,-0.386932 0.727604,-0.506458 0,-0.234923 0.610481,-1.083249 1.455208,-2.02216 0.291042,-0.323493 1.219595,-1.041897 2.0634484,-1.596453 1.0578358,-0.695177 1.7387248,-1.387899 2.1926358,-2.230745 1.119389,-2.078537 1.79073,-3.05009 2.552105,-3.693377 0.847278,-0.715862 0.926666,-1.538372 0.355558,-3.683722 -0.342125,-1.285177 -0.334317,-1.411552 0.101637,-1.644867 0.515837,-0.2760687 1.923071,0.02458 2.549842,0.544743 0.204177,0.169452 0.371232,0.674018 0.371232,1.121256 0,0.661255 -0.361397,1.166448 -1.934575,2.704314 -1.064017,1.040133 -2.144271,2.296742 -2.400562,2.792463 -0.256294,0.495721 -0.631111,1.197293 -0.832924,1.559047 -0.20837,0.373504 -0.296233,0.945184 -0.203322,1.322916 0.212124,0.862399 1.366909,2.384973 1.808864,2.384973 0.18888,0 0.383108,0.0893 0.431617,0.198438 0.163507,0.367892 2.409222,1.344797 2.771685,1.205709 0.19757,-0.07581 0.359217,-0.341488 0.359217,-0.590386 0,-0.319215 0.448212,-0.593096 1.521354,-0.929627 4.404315,-1.381168 7.635489,-3.992227 9.277716,-7.497178 0.586449,-1.251638 0.709207,-1.883129 0.705987,-3.631747 -0.0033,-1.8108797 -0.116244,-2.3397684 -0.781571,-3.6609859 -2.069571,-4.109796 -6.918058,-6.52547196 -13.09723,-6.52547196 -4.568216,0 -9.3638202,1.65133596 -12.1845142,4.19565996 -0.96443,0.869935 -1.106226,1.165518 -1.457153,3.0375108 -0.62925299,3.3567131 -0.56008099,4.4177081 1.075084,16.4902061 0.142671,1.053343 0.186232,1.098084 0.996323,1.023294 0.465921,-0.04301 1.174552,-0.208325 1.574734,-0.367352 z M 17.390315,24.528893 c 0,-0.257511 -0.2555,-0.395504 -0.727604,-0.392975 l -0.727604,0.0039 0.661458,0.367032 c 0.363802,0.20187 0.691224,0.378709 0.727605,0.392976 0.03638,0.01426 0.06614,-0.152652 0.06614,-0.370933 z m 42.871901,-5.578186 c 0.28587,-0.666906 0.51977,-1.448641 0.51977,-1.737185 0,-0.75024 0.48208,-1.54817 0.93535,-1.54817 0.26024,0 0.39843,-0.304221 0.42064,-0.926042 0.0182,-0.509323 0.0628,-1.045104 0.0992,-1.190625 0.0364,-0.145521 0.081,-0.494204 0.0992,-0.774851 0.0182,-0.280648 0.18191,-0.667602 0.36381,-0.859895 0.57325,-0.60601 1.52135,-2.5162507 1.52135,-3.0652344 0,-0.2897907 0.17546,-0.6725097 0.38991,-0.8504845 0.44719,-0.371134 0.17449,-1.056452 -1.24732,-3.134616 -1.4825,-2.166863 -2.67627,-2.505968 -6.10182,-1.733294 -2.28557,0.515537 -3.76208,1.220761 -4.17629,1.994716 -0.86982,1.625273 1.13589,7.4248889 4.5831,13.2523049 1.30134,2.199865 1.84441,2.319949 2.59307,0.573376 z m -14.03232,-4.633529 c 2.33608,-0.599239 2.25266,-0.408749 1.13394,-2.589205 -0.5504,-1.072761 -1.15437,-2.009433 -1.34216,-2.081492 -0.32416,-0.1243937 -2.13872,1.670978 -2.16201,2.139158 -0.006,0.121733 -0.39349,0.75392 -0.86096,1.404861 -0.70952,0.987983 -0.78602,1.225029 -0.46302,1.434682 0.42902,0.278477 1.87924,0.157565 3.69421,-0.308004 z m 18.05409,-2.228215 c 0.1071,-0.182642 0.61311,-0.410565 1.12448,-0.506497 0.51137,-0.09594 0.92977,-0.267867 0.92977,-0.382074 0,-0.114208 -0.27742,-0.889535 -0.61649,-1.7229477 -0.53623,-1.3180164 -0.6617,-1.4608252 -0.96375,-1.0968854 -0.19099,0.2301287 -0.27593,0.4897437 -0.18875,0.5769207 0.0872,0.08718 -0.25304,0.9207254 -0.75604,1.8523264 -0.50301,0.9316 -0.91456,1.758389 -0.91456,1.837304 0,0.259405 1.18619,-0.218504 1.38534,-0.558147 z" id="path836" />
    </g>
</svg>