<svg xmlns:inkscape="http://www.inkscape.org/namespaces/inkscape" xmlns:sodipodi="http://sodipodi.sourceforge.net/DTD/sodipodi-0.dtd" xmlns="http://www.w3.org/2000/svg" xmlns:svg="http://www.w3.org/2000/svg" width="111mm" height="40mm" viewBox="0 0 111 40" version="1.1" id="svg1558" inkscape:version="1.1.2 (0a00cf5339, 2022-02-04)" sodipodi:docname="Scan.svg">
  <defs id="defs1555"/>
  <g inkscape:label="Layer 1" inkscape:groupmode="layer" id="layer1">
    <path style="fill:#ffffff;stroke-width:0.264583" d="m 74.207253,39.949664 c -2.74879,-0.694195 -3.88358,-1.828006 -5.63129,-5.626431 l -1.03106,-2.240893 -2.32224,0.807561 -2.32223,0.807564 V 35.4835 c 0,1.621356 -0.0713,1.857365 -0.77358,2.559614 -0.98909,0.989092 -3.51759,1.730589 -5.998507,1.759098 -2.354834,0.02706 -2.752918,-0.257363 -2.752918,-1.966894 0,-0.87789 -0.12084,-1.308582 -0.396875,-1.414508 -0.224978,-0.08633 -0.396875,-0.480586 -0.396875,-0.910251 0,-0.416875 -0.05849,-0.816446 -0.129979,-0.887934 -0.07149,-0.07149 -0.738177,0.456248 -1.481532,1.172747 -6.052447,5.833785 -15.993742,3.440176 -21.641033,-5.210603 -0.729435,-1.117383 -1.400527,-2.265648 -1.491316,-2.5517 -0.224568,-0.707551 -0.656093,-0.381849 -0.656349,0.495393 -5.3e-4,2.240862 -3.061399,5.995881 -6.134788,7.526358 -5.106874,2.543106 -11.9369894,2.434818 -16.9637392,-0.268954 -2.099728,-1.129395 -2.89078,-2.01359 -2.939458,-3.285575 -0.01849,-0.483224 -0.23965097,-1.259631 -0.49146297,-1.725348 -0.87233394,-1.613336 -0.53042097,-2.606775 2.06460197,-5.998776 0.868227,-1.134877 1.739866,-2.288188 1.936972,-2.562913 0.316759,-0.441491 0.2516,-0.646258 -0.561075,-1.763236 -1.2738,-1.750761 -1.604235,-2.48208 -2.419591,-5.355045 C 0.67984383,11.595774 0.59852183,10.693058 1.0987798,8.7216459 2.3945508,3.6152685 7.3263548,0.49546753 14.130477,0.47794753 c 4.65477,-0.01198 8.595382,1.24573697 12.281678,3.91993197 l 1.214853,0.881306 1.327883,-1.279909 c 0.730335,-0.70395 2.141289,-1.680349 3.135453,-2.169774 1.616549,-0.795824 2.088801,-0.90015097 4.468723,-0.98720497 2.209504,-0.08082 2.953036,6.88e-4 4.380944,0.48027097 2.721338,0.913994 4.461084,2.044804 6.896548,4.482654 2.501759,2.504215 3.93387,4.7533525 5.150289,8.0885635 l 0.769731,2.110473 0.349343,-1.319403 C 56.966933,3.8793205 61.074413,-0.25231841 66.490633,2.2273065 c 1.98305,0.907871 4.58722,3.595976 6.33167,6.5357384 l 1.32292,2.2293911 V 7.1144475 c 0,-4.614856 0.053,-4.718827 2.72304,-5.341603 5.1598,-1.20349797 10.12089,-1.57856394 11.74748,-0.88812697 1.22384,0.51947997 2.67817,3.07506697 4.67987,8.22358507 0.1513,0.3891617 0.33596,0.085 0.80317,-1.3229171 0.81577,-2.45828 2.30394,-4.756488 3.42779,-5.293603 0.73006,-0.348916 1.621793,-0.40921 4.917787,-0.332515 l 4.02603,0.09368 1.5186,1.008333 c 1.54092,1.023165 2.27184,2.130053 2.27184,3.440435 0,0.34612 0.19498,1.020148 0.43329,1.497846 0.75603,1.5155118 0.41915,4.0483675 -2.41293,18.1415125 -2.24508,11.172076 -2.6041,12.085402 -5.08258,12.929907 -1.60293,0.546174 -5.897467,0.573442 -6.921397,0.04395 -1.19416,-0.617524 -2.77191,-2.533975 -4.02284,-4.886433 l -1.17582,-2.211221 -0.1407,2.480337 c -0.23525,4.14719 -0.91933,4.629859 -6.42333,4.532127 -2.92577,-0.05195 -3.81673,0.01947 -4.4724,0.358534 -0.97773,0.505603 -4.41969,0.718783 -5.83487,0.361389 z m 4.52233,-3.986003 c 0.78339,-0.273093 1.23676,-1.138394 0.98163,-1.873541 -0.0671,-0.193464 -0.24027,-1.672302 -0.38472,-3.286303 -0.37414,-4.180231 -0.97897,-7.200304 -2.14119,-10.691492 -1.70026,-5.107398 -1.90036,-5.472089 -3.08327,-5.619504 -0.55833,-0.06958 -1.3128,0.02135 -1.6766,0.202076 -0.36381,0.180721 -1.37857,0.410564 -2.25503,0.510762 -1.39497,0.159475 -1.64899,0.278736 -2.03822,0.956924 -0.30584,0.532897 -0.65206,0.774742 -1.1091,0.774742 -0.81211,0 -1.21224,0.673449 -1.21224,2.040308 0,0.757068 -0.19994,1.235668 -0.78282,1.873837 l -0.78281,0.857076 0.6601,0.972709 c 0.36305,0.53499 0.62602,1.142764 0.58438,1.350607 -0.0743,0.370676 -3.14759,1.325243 -4.36859,1.356876 -0.5217,0.01352 -0.57093,-0.0826 -0.43253,-0.844642 0.25941,-1.428433 1.31685,-2.844271 2.12428,-2.844271 1.07263,0 2.6347,-1.771616 2.68247,-3.042314 0.058,-1.541526 0.28199,-1.960952 1.17044,-2.191171 0.87487,-0.2267 1.01545,-0.41139 1.51735,-1.993503 0.1761,-0.555104 0.84455,-1.745729 1.48544,-2.645833 1.88579,-2.6484974 2.12497,-3.2210241 1.68727,-4.0388695 -0.62626,-1.170181 -3.42444,-4.055399 -4.60276,-4.745945 -4.86281,-2.84979494 -9.36973,1.391339 -11.786981,11.0918675 -0.322913,1.29586 -0.740746,3.379454 -0.928521,4.630208 -0.28834,1.920616 -0.284083,2.33903 0.02739,2.69181 0.202843,0.22974 0.368708,0.765522 0.368589,1.190625 -2.65e-4,0.984475 -0.73714,4.538795 -1.06984,5.160449 -0.139073,0.259858 -0.25286,2.193454 -0.25286,4.296878 v 3.824407 l 0.957643,0.179655 c 1.716056,0.321934 5.47934,-0.559546 6.63583,-1.554321 0.62599,-0.538454 0.69527,-0.785043 0.71692,-2.551864 l 0.024,-1.955814 2.38125,-0.860853 c 1.30969,-0.473472 2.57343,-0.8631 2.80831,-0.865841 0.28008,-0.0033 0.85005,0.869968 1.65623,2.537494 0.67605,1.398365 1.47617,2.88934 1.77804,3.313282 1.37795,1.935139 5.69164,2.828454 8.66053,1.793489 z m 23.776667,-0.75601 c 1.53716,-0.697878 2.01236,-1.776315 2.99135,-6.788738 0.45177,-2.313051 1.17349,-5.872421 1.60383,-7.909713 1.28221,-6.070182 2.44983,-13.5192395 2.24624,-14.3304045 -0.30277,-1.206306 -2.0319,-2.642058 -3.5824,-2.974582 -1.7289,-0.370783 -6.556594,-0.375545 -7.612337,-0.0075 -1.26457,0.440832 -2.92539,3.223283 -3.51928,5.8960241 -0.21028,0.9463854 -0.50527,1.6001414 -0.75892,1.6819744 -1.06686,0.34418 -2.33408,1.004641 -3.01492,1.571344 -0.41134,0.34239 -0.95778,0.622528 -1.2143,0.622528 -0.25651,0 -1.17011,0.653055 -2.03021,1.451237 -1.28722,1.194535 -1.73182,1.451938 -2.51355,1.455208 -0.75895,0.0032 -1.0114,0.13934 -1.25677,0.677879 -0.16888,0.370649 -0.30705,0.87843 -0.30705,1.128397 0,0.249971 -0.23813,0.898779 -0.52917,1.4418 -0.29104,0.543022 -0.52917,1.120812 -0.52917,1.28398 0,0.163169 -0.4925,0.788678 -1.09445,1.390023 -0.60195,0.601342 -1.36119,1.450538 -1.6872,1.887101 l -0.59276,0.79375 0.49255,3.307292 c 0.2709,1.81901 0.56252,4.213614 0.64803,5.321342 l 0.15548,2.014048 1.76678,0.166883 c 6.30269,0.595323 7.24389,-0.104349 7.18923,-5.344353 -0.0408,-3.909634 -0.0679,-3.668924 0.3617,-3.206805 0.1981,0.213084 0.98832,1.578051 1.75605,3.03326 2.88549,5.469421 3.46756,5.944806 7.276466,5.942856 2.033741,-0.0011 2.902361,-0.117824 3.754781,-0.504822 z M 46.563106,34.336875 c 3.738541,-1.724691 6.439151,-5.841571 6.947818,-10.591429 0.113043,-1.055563 0.08264,-1.778511 -0.07898,-1.878402 -0.144512,-0.08931 -2.044737,0.03403 -4.222718,0.274095 l -3.959969,0.436481 -0.316767,0.876009 c -0.390668,1.080373 -1.346388,1.858653 -2.744809,2.235208 -2.058831,0.554387 -4.7733,-0.655609 -6.176904,-2.7534 -1.002437,-1.498216 -1.186116,-4.118242 -0.378936,-5.405218 0.743889,-1.186069 2.031939,-1.913628 3.389942,-1.914821 0.900861,-7.94e-4 1.124479,-0.09453 1.124479,-0.471355 0,-0.258702 -0.238125,-0.674254 -0.529166,-0.923452 -0.291042,-0.249198 -0.5323,-0.722143 -0.536128,-1.050988 -0.01058,-0.910355 -0.913562,-4.1377994 -1.252482,-4.4767201 -0.164666,-0.164666 -0.234318,-0.6247794 -0.154779,-1.0224694 0.07954,-0.397693 0.04332,-0.784101 -0.08048,-0.858684 -0.400069,-0.241025 -3.626321,0.718719 -4.987592,1.483706 -1.141587,0.6415364 -1.449848,0.7084301 -2.248958,0.4880454 -1.862421,-0.5136304 -2.275409,-0.3688 -3.473548,1.2181231 -1.616851,2.141503 -1.967855,4.908891 -1.141193,8.997397 1.339636,6.625566 5.203206,12.084208 10.435574,14.743903 2.275242,1.156542 3.589875,1.438974 6.35,1.364216 2.068828,-0.05603 2.782835,-0.192313 4.035596,-0.770245 z m -30.24625,-0.897776 c 3.810456,-0.94688 7.351134,-3.475932 8.557033,-6.112158 0.831504,-1.817756 0.809072,-4.788167 -0.04843,-6.412749 -1.390219,-2.633845 -3.34033,-4.351498 -6.302854,-5.551543 -1.016061,-0.411578 -1.79197,-0.886552 -1.79197,-1.096957 0,-0.571624 1.105858,-0.332324 3.067134,0.663705 l 1.744221,0.885798 2.545821,-3.497929 c 2.797239,-3.8433681 3.197342,-4.6252445 2.947935,-5.7607905 -0.404421,-1.841318 -7.485322,-5.320917 -9.44076,-4.639249 -0.417489,0.145538 -0.832368,0.191317 -0.921954,0.101732 -0.08958,-0.08959 -0.01695,-0.162883 0.161412,-0.162883 0.178364,0 0.250711,-0.119062 0.160774,-0.264583 -0.08994,-0.145521 -0.394621,-0.264584 -0.677074,-0.264584 -0.377026,0 -0.521033,0.193431 -0.541697,0.727604 l -0.02815,0.727605 -0.287512,-0.727605 c -0.270917,-0.685604 -0.383085,-0.727604 -1.943206,-0.727604 -4.9984701,0 -9.4201762,2.446663 -11.0714362,6.12616 -0.651586,1.4519304 -0.714983,1.8486151 -0.611261,3.8247715 0.132569,2.525771 0.482592,3.121316 2.002041,3.406367 0.738603,0.138563 1.037024,0.07837 1.283637,-0.258886 0.298579,-0.408332 0.36835,-0.408599 0.986189,-0.0038 0.619215,0.405725 0.712504,0.404434 1.358424,-0.01879 0.381452,-0.249936 0.883692,-0.823701 1.1160921,-1.275035 0.232402,-0.451332 0.8569347,-1.243449 1.3878524,-1.760255 0.5309177,-0.516808 1.2143497,-1.4694717 1.5187397,-2.1170284 0.304388,-0.6475597 1.041943,-1.7118011 1.639012,-2.3649861 0.672838,-0.736073 1.033166,-1.352745 0.947724,-1.62195 -0.07582,-0.238889 0.02964,-0.498617 0.23435,-0.577173 0.70707,-0.271328 0.0052,1.658783 -0.950839,2.614842 -0.497893,0.497893 -1.24823,1.5608084 -1.667417,2.3620378 C 11.2715,10.46441 10.477832,11.560058 9.9269773,12.09795 c -0.5508547,0.537896 -1.0015534,1.184085 -1.0015534,1.435974 0,0.251891 -0.491696,0.793273 -1.0926581,1.203073 -1.493218,1.018239 -2.216748,2.326939 -1.981057,3.583279 0.181732,0.968716 0.420632,1.176329 3.7811605,3.285974 0.3737177,0.234609 0.4124927,0.377222 0.171159,0.629518 -0.245587,0.256744 -0.5967437,0.151 -1.6493255,-0.49666 l -1.33731,-0.822854 -1.957998,2.442294 c -3.86454997,4.82041 -4.30889297,6.037019 -2.746992,7.521242 2.68731,2.553663 9.3767802,3.758935 14.2044492,2.559283 z m 26.765958,-8.754091 c 0.423079,-0.249921 0.999476,-0.919756 1.280882,-1.488525 0.51072,-1.032256 0.510625,-1.035502 -0.05189,-1.796344 -0.742492,-1.004273 -2.943278,-2.081564 -4.25241,-2.081564 -1.326661,0 -2.645873,0.810961 -3.192259,1.962385 -0.567087,1.195049 -0.557104,1.245664 0.434853,2.205075 1.652016,1.597813 4.208156,2.12797 5.780824,1.198973 z m 37.474389,-2.500911 c 1.26599,-1.407099 2.45156,-3.518664 2.45156,-4.366352 0,-0.443342 -1.52582,-0.247973 -2.69884,0.345567 -0.39296,0.198831 -1.19663,0.361513 -1.78594,0.361513 -0.58931,0 -1.07147,0.03877 -1.07147,0.08617 0,0.04739 0.29766,0.938125 0.66146,1.979406 0.3638,1.041281 0.66146,2.203053 0.66146,2.581714 0,0.896948 0.1713,0.80196 1.78177,-0.988015 z M 50.861887,19.149908 c 2.257335,-0.717962 2.385113,-0.798679 2.4555,-1.551125 0.09064,-0.968967 -1.647571,-5.629306 -2.88221,-7.7275177 C 49.942264,9.0335816 48.584993,7.3835095 47.419022,6.2044395 42.890811,1.6253545 36.977738,0.14066156 32.29573,2.4071825 c -1.978679,0.957863 -2.204871,1.303195 -2.195222,3.351497 0.0082,1.745713 0.367715,2.7119794 1.008968,2.7119794 0.163671,0 0.878088,-0.3571874 1.587595,-0.7937504 0.709504,-0.436562 1.608084,-0.79375 1.996847,-0.79375 0.388761,0 1.138278,-0.180266 1.665589,-0.400592 0.8781,-0.366892 1.001567,-0.361839 1.467771,0.06007 0.36181,0.327435 0.466582,0.672836 0.362284,1.19434 -0.08071,0.403527 -0.04623,0.7336844 0.07661,0.7336844 0.122841,0 0.299149,0.386953 0.39179,0.8598957 0.409287,2.0894274 1.180015,4.5494964 1.453944,4.6408044 0.164415,0.05481 0.298937,0.441341 0.298937,0.858967 0,0.638408 0.179062,0.839031 1.124479,1.259901 1.69463,0.754391 3.182805,2.477013 3.732945,4.321032 0.141849,0.47547 0.111099,0.482404 5.593618,-1.261351 z M 24.883576,18.140944 c -0.148053,-0.912337 -0.200613,-0.969021 -0.508318,-0.548212 -0.286898,0.392359 -0.269325,0.568135 0.107135,1.071679 0.247679,0.331285 0.476422,0.57798 0.508318,0.548212 0.03189,-0.02977 -0.01633,-0.512025 -0.107135,-1.071679 z M 5.3435778,17.943858 c -0.06183,-0.321048 0.183653,-1.085265 0.548696,-1.70816 0.63917,-1.090666 0.644189,-1.135968 0.154858,-1.39785 -0.372076,-0.199128 -0.585719,-0.174262 -0.808437,0.0941 -0.205666,0.247811 -0.638699,0.319685 -1.350701,0.224186 -0.576389,-0.07731 -1.047909,-0.03559 -1.047816,0.09271 1.77e-4,0.249286 2.311837,3.275984 2.502051,3.275984 0.06228,0 0.06288,-0.261435 0.0013,-0.580967 z M 80.318723,17.689202 c 0.63052,-0.268012 1.42814,-0.487294 1.77247,-0.487294 0.40716,0 0.87851,-0.330985 1.3481,-0.946647 0.62213,-0.815655 0.83451,-0.926637 1.53482,-0.802032 0.70743,0.125871 1.01127,-0.04049 2.34421,-1.283504 0.84229,-0.785463 1.85432,-1.501809 2.24896,-1.591881 0.70883,-0.161783 2.17273,-1.257496 2.17273,-1.626264 0,-0.104664 0.19029,-0.400566 0.42287,-0.657561 0.3597,-0.3974707 0.37491,-0.6179477 0.10184,-1.4760411 -0.55084,-1.7308914 -2.8216,-6.2764114 -3.39347,-6.7929064 -0.86509,-0.781316 -3.34188,-0.840886 -7.67388,-0.184568 -6.74476,1.02186 -6.53796,0.789162 -6.19937,6.9757914 0.22579,4.1254671 0.27326,4.3798801 1.27836,6.8511461 l 1.04386,2.566575 0.92604,-0.02876 c 0.50932,-0.01582 1.44193,-0.248044 2.07246,-0.516054 z m -8.55475,-3.229089 c 0.29104,-0.149561 1.00385,-0.337981 1.58403,-0.418713 0.64643,-0.08995 1.08187,-0.300448 1.12462,-0.543658 0.0384,-0.218282 -0.41605,-1.269945 -1.00981,-2.337028 -1.06599,-1.9157704 -1.08631,-1.9340584 -1.61727,-1.4552077 -0.62523,0.5638637 -3.12428,4.2185557 -3.12428,4.5690417 0,0.554259 2.07856,0.681027 3.04271,0.185565 z m 21.03437,-3.872788 c 0,-0.145521 -0.0525,-0.264583 -0.11667,-0.264583 -0.0642,0 -0.19026,0.119062 -0.2802,0.264583 -0.0899,0.145521 -0.0374,0.264583 0.11667,0.264583 0.15411,0 0.2802,-0.119062 0.2802,-0.264583 z m -63.056909,-4.4753685 0.0303,-1.990428 -0.860144,0.938581 c -0.792123,0.864355 -0.986396,1.736221 -0.687195,3.084022 0.0086,0.03869 0.346618,0.04513 0.751179,0.01431 0.731234,-0.05572 0.73574,-0.06776 0.76586,-2.046476 z" id="path1823"/>
  </g>
</svg>