<?xml version="1.0" encoding="UTF-8" standalone="no"?>
<svg
   width="167mm"
   height="41mm"
   viewBox="0 0 167 41"
   version="1.1"
   id="svg5236"
   inkscape:version="1.1.2 (0a00cf5339, 2022-02-04)"
   sodipodi:docname="VerifyLogo.svg"
   xmlns:inkscape="http://www.inkscape.org/namespaces/inkscape"
   xmlns:sodipodi="http://sodipodi.sourceforge.net/DTD/sodipodi-0.dtd"
   xmlns="http://www.w3.org/2000/svg"
   xmlns:svg="http://www.w3.org/2000/svg">
  <sodipodi:namedview
     id="namedview5238"
     pagecolor="#ffffff"
     bordercolor="#666666"
     borderopacity="1.0"
     inkscape:pageshadow="2"
     inkscape:pageopacity="0.0"
     inkscape:pagecheckerboard="0"
     inkscape:document-units="mm"
     showgrid="false"
     inkscape:zoom="0.53633484"
     inkscape:cx="105.34464"
     inkscape:cy="75.512529"
     inkscape:window-width="1554"
     inkscape:window-height="940"
     inkscape:window-x="151"
     inkscape:window-y="7"
     inkscape:window-maximized="0"
     inkscape:current-layer="layer1" />
  <defs
     id="defs5233" />
  <g
     inkscape:label="Layer 1"
     inkscape:groupmode="layer"
     id="layer1">
    <path
       style="fill:#000000;fill-opacity:1;stroke-width:0.264583"
       d="m 89.111929,40.655107 c -0.6044,-0.14208 -1.41998,-0.57939 -1.81239,-0.9718 -0.58077,-0.58078 -0.69,-0.88848 -0.58726,-1.65444 0.0896,-0.66816 -0.0178,-1.11877 -0.37043,-1.55428 -0.70678,-0.87285 -0.62374,-1.69238 0.44513,-4.39297 1.33639,-3.37648 2.22417,-6.79669 2.41052,-9.28658 0.22121,-2.95566 0.005,-3.93327 -0.95702,-4.33184 -1.0687,-0.44267 -2.59313,-2.03246 -2.8935,-3.01756 -1.32471,-4.34457 -1.41589,-4.78745 -1.28431,-6.2384694 0.34349,-3.7881079 3.06156,-6.4202764 7.0086,-6.7871161 1.610829,-0.14971 2.035129,-0.0926 3.083719,0.4150097 1.47681,0.7149097 2.72257,2.1587188 3.09222,3.5837879 0.15098,0.5820897 0.47065,1.6536491 0.71037,2.3812488 0.23972,0.7276094 0.43826,2.0134591 0.4412,2.8574591 0.005,1.45341 0.0365,1.52672 0.59448,1.38668 0.736645,-0.18489 0.857005,0.0403 1.832772,3.42878 0.69794,2.42373 0.76054,2.99009 0.74577,6.74687 -0.0175,4.45559 -0.46895,6.99378 -1.874337,10.5384 -0.904125,2.28041 -2.798605,5.58011 -3.678975,6.4079 -0.62422,0.58693 -0.93264,0.65319 -3.24867,0.69787 -1.407439,0.0272 -3.053489,-0.0669 -3.657889,-0.20895 z m 6.048019,-4.52682 c 1.19786,-1.45041 3.33384,-6.00934 4.06451,-8.67506 0.932472,-3.40198 1.209362,-9.67676 0.530095,-12.01332 -0.441735,-1.51958 -0.453575,-1.53213 -1.290595,-1.36828 -0.46463,0.091 -2.63071,0.79833 -4.81352,1.57193 l -3.968759,1.40655 0.0664,1.16666 c 0.30924,5.43435 -0.14078,8.16323 -2.28365,13.84792 -0.59952,1.59042 -1.09003,3.02818 -1.09003,3.19503 0,0.16684 0.29163,0.57732 0.64807,0.91218 0.77826,0.73114 2.87545,1.08148 5.568329,0.93021 1.7143,-0.0963 1.90375,-0.16811 2.56916,-0.97382 z m -4.023059,-21.32449 c 0,-0.26323 -0.17481,-0.70972 -0.38846,-0.99219 -0.21365,-0.28248 -0.39225,-0.95094 -0.39688,-1.48548 -0.006,-0.64222 -0.23323,-1.23907 -0.67121,-1.75958 -0.36455,-0.43323 -0.73662,-1.1567394 -0.82683,-1.6077994 -0.11116,-0.5557994 -0.31887,-0.8201094 -0.6445,-0.8201094 -0.26426,0 -0.55518,-0.12086 -0.64647,-0.2685897 -0.13127,-0.21239 -1.81973,-1.0543194 -2.11441,-1.0543194 -0.0373,0 -0.22893,0.3869497 -0.42578,0.8598894 -0.47405,1.1389794 -0.42301,3.5726785 0.0957,4.5640685 0.93893,1.79444 2.90743,3.01405 4.89434,3.03235 0.9123,0.008 1.12448,-0.08 1.12448,-0.46824 z m 2.814879,-0.80552 c 0.57319,-0.41523 1.24084,-1.05816 1.48366,-1.42875 l 0.44149,-0.6738 h -1.55731 c -0.85652,0 -2.054304,-0.084 -2.661734,-0.1866 l -1.104425,-0.18658 0.19129,0.88773 c 0.52865,2.45329 1.410045,2.88972 3.207029,1.588 z m 2.46162,-3.15388 c 0.50426,-1.1067197 0.63901,-3.0724285 0.28429,-4.1472279 -0.37779,-1.1447294 -1.6331,-2.6626885 -2.62698,-3.1766382 -1.880604,-0.9724994 -4.661749,-0.6427297 -6.517619,0.7728194 -1.22363,0.9333097 -1.27696,2.1545888 -0.13107,3.0017885 0.43067,0.3183997 0.95157,0.5789197 1.15755,0.5789197 0.20714,0 0.44782,0.3665197 0.53854,0.8201094 0.21696,1.0848094 1.38575,2.4511291 2.25155,2.6320591 0.381305,0.0797 1.600719,0.16062 2.709799,0.17986 1.93618,0.0336 2.02916,0.007 2.33394,-0.66169 z M 86.365969,6.0881194 c -0.008,-0.6893997 -0.0284,-0.7012497 -0.3884,-0.2256 -0.38268,0.5055597 -0.31324,0.9532097 0.14785,0.9532097 0.13693,0 0.24518,-0.32743 0.24055,-0.7276097 z M 109.59672,40.414547 c -2.70932,-1.66784 -5.07878,-15.34435 -4.19379,-24.20652 0.5151,-5.15808 1.30273,-9.3961079 2.02391,-10.8899873 1.2337,-2.5555385 3.8403,-4.2755676 7.40598,-4.88701694 1.43285,-0.24571 3.48669,-0.25296 8.86219,-0.0313 7.94265,0.32754967 9.72364,0.64322934 10.90562,1.93299874 0.68456,0.7469897 0.79936,0.7821297 1.71979,0.5265097 0.54245,-0.15065 1.86518,-0.2745697 2.93942,-0.2753897 1.52535,-0.001 2.15043,0.1204597 2.85393,0.5552494 1.02959,0.6363197 2.7464,3.3967982 3.90967,6.2864267 0.41805,1.0384494 0.83046,1.8875894 0.91646,1.8869594 0.086,-5.3e-4 0.90178,-1.4761997 1.81283,-3.2790488 2.67197,-5.287457 4.04744,-6.1056864 10.24979,-6.0973264 2.60173,0.004 3.77714,0.11991 4.8253,0.4778897 1.68813,0.5765497 2.54107,1.5360791 2.30814,2.5966085 -0.11786,0.5365897 -0.006,0.9434194 0.40352,1.4636591 0.47965,0.6097697 0.53924,0.9251694 0.38777,2.0523188 -0.3736,2.7799991 -2.81645,9.1613491 -4.64419,12.1317991 -0.87375,1.42003 -3.43117,4.84351 -6.55825,8.7792 -2.9489,3.71144 -6.90918,7.54024 -9.28426,8.97604 -2.88457,1.74379 -3.6213,1.87051 -6.08631,1.0468 -3.75671,-1.25534 -5.82567,-2.83771 -5.82567,-4.45554 0,-0.52564 -0.19382,-1.25151 -0.4307,-1.61304 -0.71701,-1.09428 -0.36031,-2.78763 0.93152,-4.42222 0.60163,-0.76127 1.5936,-2.02297 2.20438,-2.80377 l 1.1105,-1.41965 -0.62507,-1.09389 c -0.34378,-0.60165 -1.03719,-1.8484 -1.5409,-2.77058 -0.77821,-1.42471 -1.0008,-1.65276 -1.48122,-1.51751 -2.50199,0.70435 -6.25721,1.49881 -8.23101,1.74136 -1.30568,0.16044 -2.41652,0.33428 -2.46854,0.38629 -0.052,0.052 0.0811,0.37281 0.29589,0.71286 0.21476,0.34004 0.47147,1.41817 0.57047,2.39583 l 0.18,1.77756 -0.84512,0.51395 c -0.46482,0.28267 -1.25405,0.59066 -1.75386,0.68443 -0.49981,0.0938 -0.97994,0.35602 -1.06696,0.58279 -0.087,0.22678 0.0399,1.73825 0.28193,3.35885 0.78916,5.28289 0.10439,6.13584 -6.48161,8.07355 -3.29838,0.97044 -4.94698,1.21348 -5.58155,0.82284 z m 2.88971,-4.60772 c 0.4248,-0.49386 0.61088,-0.58481 0.61088,-0.29856 0,0.22639 -0.1389,0.41163 -0.30868,0.41163 -0.16977,0 -0.23813,0.0705 -0.15191,0.15676 0.20852,0.20852 2.83325,-0.53514 4.89693,-1.38743 2.75351,-1.13719 3.18754,-2.21905 2.58458,-6.44225 -0.58979,-4.13098 -0.65974,-3.87027 1.17666,-4.38554 0.87064,-0.24429 1.71791,-0.60674 1.88282,-0.80544 0.39275,-0.47324 0.0708,-3.13034 -0.42956,-3.54564 -0.24456,-0.20296 -1.18099,-0.26895 -2.76371,-0.19476 -1.92515,0.0902 -2.50992,0.21671 -2.98683,0.64591 -0.32615,0.29353 -0.80315,0.60792 -1.06,0.69863 -0.25684,0.0907 -0.5771,0.43588 -0.71169,0.76703 -0.26586,0.65415 -2.92236,4.12411 -2.92236,3.81723 0,-0.10317 0.59532,-0.95467 1.32292,-1.89221 0.72761,-0.93755 1.32292,-1.80635 1.32292,-1.93067 0,-0.2975 1.19525,-1.4161 1.34893,-1.26242 0.0655,0.0655 0.70375,-0.46921 1.41838,-1.1882 l 1.29934,-1.30726 h 1.91628 c 3.57583,0 10.34092,-1.18613 12.49518,-2.19079 1.9013,-0.88669 2.0527,-1.48688 1.70847,-6.7731091 -0.31656,-4.8612973 -0.59839,-5.8254467 -1.8995,-6.4982764 -1.33607,-0.6909094 -3.99394,-0.9765494 -10.50593,-1.1290994 -7.73096,-0.18109967 -9.44738,0.0835 -12.06534,1.8598391 -2.33014,1.5810591 -3.00913,2.9201382 -3.81557,7.5249158 -0.8235,4.70218 -1.11499,12.37524 -0.63826,16.801 0.18399,1.70804 0.43455,3.10552 0.55681,3.10552 0.12226,0 0.495,-0.29095 0.82831,-0.64656 0.33331,-0.35561 0.93344,-0.76938 1.33363,-0.91949 0.40018,-0.15011 0.7276,-0.44501 0.7276,-0.65533 0,-0.21231 0.36398,-0.46235 0.81829,-0.56213 0.60024,-0.13183 0.91845,-0.41945 1.19417,-1.07936 0.44731,-1.07055 0.74303,-1.21965 0.3412,-0.17202 -0.1535,0.40018 -0.21365,1.14432 -0.13367,1.65364 0.0809,0.51548 -0.0219,1.39526 -0.23192,1.98438 -0.31044,0.87069 -0.3794,0.93871 -0.38896,0.38364 -0.006,-0.37107 0.12326,-0.80955 0.28811,-0.9744 0.17708,-0.17708 0.21402,-0.49644 0.0903,-0.78052 -0.11518,-0.26444 -0.1964,-0.55247 -0.18048,-0.64005 0.0565,-0.31082 -1.40362,0.11004 -1.61315,0.46496 -0.11715,0.19845 -0.60762,0.5257 -1.08993,0.72722 -0.5242,0.21903 -1.02088,0.69159 -1.23479,1.17484 -0.23857,0.53898 -0.42586,0.70261 -0.56191,0.49095 -0.11224,-0.17461 -0.13092,0.27784 -0.0415,1.00544 0.19431,1.58118 0.96227,3.46151 1.76499,4.32157 0.49997,0.53569 0.76739,0.60649 1.88973,0.5003 0.99904,-0.0945 1.45142,-0.29119 1.91823,-0.83389 z m -0.29752,-2.45941 c -0.24916,-0.84071 -0.51295,-1.70716 -0.5862,-1.92544 -0.11838,-0.35278 -0.10199,-0.35278 0.14756,0 0.34549,0.48842 1.15579,3.18986 1.00272,3.34294 -0.0611,0.0611 -0.31492,-0.57679 -0.56408,-1.4175 z m 32.31276,1.5099 c 2.93257,-1.62641 6.98561,-5.59623 10.71151,-10.49157 0.77445,-1.01753 1.96899,-2.56949 2.65452,-3.44879 1.49946,-1.92329 4.39393,-7.14758 5.64126,-10.18203 0.96964,-2.3589188 1.85163,-5.817637 1.63048,-6.3939467 -0.0744,-0.1937797 -0.59261,-0.5775697 -1.15168,-0.8528894 -0.85401,-0.4205497 -1.62971,-0.5012197 -4.85294,-0.5046897 -6.09428,-0.007 -6.71643,0.3345997 -9.25283,5.073887 -3.11273,5.8161788 -2.92051,5.5420688 -3.42105,4.8784788 -0.34707,-0.46012 -0.60155,-0.54131 -1.2747,-0.40668 -0.46257,0.0925 -1.04417,0.39266 -1.29245,0.66701 -0.24827,0.27433 -0.66689,0.49879 -0.93025,0.49879 -0.59006,0 -1.02664,0.76728 -1.02664,1.80426 0,0.53125 -0.20209,0.91313 -0.63244,1.19511 -0.42233,0.27671 -0.67735,0.7483 -0.76763,1.41949 -0.21059,1.56568 -0.28934,1.77229 -1.04215,2.7342 l -0.70592,0.902 0.66112,0.86678 0.66113,0.86678 -2.4903,3.37392 c -2.81578,3.81491 -3.09214,4.27631 -3.09214,5.16249 0,1.06041 1.74169,2.26707 4.89169,3.38902 2.05597,0.73228 2.93931,0.63639 5.08141,-0.55162 z m -4.59571,-15.48708 c 0.20032,-0.57483 0.31131,-1.19778 0.24666,-1.38434 -0.15499,-0.44725 0.64065,-1.64517 1.09269,-1.64517 0.24523,0 0.39643,-0.52169 0.49036,-1.69182 0.11,-1.3703 0.318,-1.96631 1.09456,-3.13624 0.52731,-0.79443 0.95875,-1.6929597 0.95875,-1.9967397 0,-0.3037697 0.11906,-0.6258894 0.26459,-0.7158294 0.46569,-0.28781 0.28789,-0.9507394 -0.68422,-2.5509985 -1.63245,-2.6872985 -2.9693,-3.2373582 -6.26127,-2.5762288 l -1.47749,0.29672 0.1497,4.9551073 c 0.12521,4.1447491 0.0831,5.0886191 -0.25758,5.7715091 -0.39803,0.79786 -0.37917,0.86656 0.83013,3.02381 0.68057,1.21407 1.46726,2.51212 1.74819,2.88456 0.47607,0.63114 0.54239,0.64772 0.97576,0.24398 0.25573,-0.23825 0.62886,-0.90349 0.82917,-1.47832 z m 3.8104,-6.48332 c 0.17834,-0.24949 0.74389,-0.53235 1.25678,-0.62856 0.51288,-0.0962 0.93251,-0.24526 0.93251,-0.33121 0,-0.53058 -1.23659,-3.2362591 -1.44841,-3.1691491 -0.14178,0.0449 -0.3324,0.4299497 -0.4236,0.8556294 -0.18615,0.8688397 -1.23123,2.9473497 -1.59498,3.1721597 -0.13045,0.0806 -0.23718,0.307 -0.23718,0.50307 0,0.48276 1.08904,0.19381 1.51488,-0.40194 z m -72.546752,27.23194 c -1.234974,-0.28921 -1.996448,-0.94693 -3.140514,-2.71261 l -0.836999,-1.29177 -0.176771,1.41731 c -0.288168,2.31045 -0.617571,2.45292 -5.247187,2.26949 -3.961834,-0.15696 -6.407291,-0.60092 -7.594357,-1.37872 -0.621369,-0.40714 -0.705723,-0.40969 -0.919403,-0.0279 -0.474705,0.84825 -2.826711,1.25558 -8.925547,1.54578 -4.526802,0.21539 -6.353202,0.20651 -7.718762,-0.0375 -2.088673,-0.37327 -4.201787,-1.54659 -5.337963,-2.96395 -1.61771,-2.01806 -3.074726,-9.16999 -3.36087,-16.49722 -0.102291,-2.61938 -0.205867,-4.54461 -0.230166,-4.27831 -0.02432,0.26631 -0.513705,2.11178 -1.087568,4.10105 -1.598543,5.54129 -3.599468,12.67758 -4.108479,14.65286 -0.251656,0.97659 -0.594421,1.88421 -0.761698,2.01694 -0.354886,0.28159 -5.442591,2.47804 -6.759774,2.9183 -0.494659,0.16534 -1.41325,0.30062 -2.041316,0.30062 -1.365025,0 -2.164342,-0.62376 -4.6972145,-3.66553 -3.513788,-4.21977 -5.41274,-7.77876 -6.9380677,-13.00322 C -0.94664503,15.834097 0.10219491,10.276637 4.6294485,5.7736994 7.5318215,2.8869112 11.1388,1.1077321 11.920792,2.1771715 c 0.599019,0.8192097 3.280677,7.7908858 3.280677,8.5289855 0,1.23957 0.434618,0.31506 1.055325,-2.2448491 0.327456,-1.3504991 0.849048,-2.9578382 1.159089,-3.5718679 0.917078,-1.8162588 1.400485,-1.7082991 5.790245,1.2931694 2.073117,1.4174791 3.860795,2.7053485 3.972621,2.8619482 0.111826,0.15659 0.1767,0.7193297 0.144158,1.2505294 -0.05903,0.96372 0.494266,2.0224 0.849318,1.62508 0.103042,-0.11531 0.333897,-1.14999 0.513006,-2.2992997 0.613656,-3.9376576 1.4791,-5.421567 3.91813,-6.7180761 2.393564,-1.2723494 3.981903,-1.4391291 10.842975,-1.1385794 7.704854,0.3375097 9.125712,0.7733697 9.470001,2.9050285 0.08491,0.5257197 0.343323,1.4831091 0.574249,2.1275288 0.230926,0.6444294 0.498557,1.8350488 0.594736,2.6458385 0.162779,1.3722294 0.188031,1.2729194 0.365175,-1.4362594 0.220059,-3.3654879 0.505767,-4.6342273 1.181225,-5.245507 0.945022,-0.8552394 4.687445,-1.5737791 8.253081,-1.5845891 6.505761,-0.0197 11.667512,1.7967091 15.536956,5.467527 1.79557,1.7033991 3.51304,4.3427179 3.51304,5.3986579 0,0.20882 0.25308,1.21287 0.56239,2.23122 1.37453,4.52533 -0.34508,8.90524 -4.57153,11.64389 -0.70539,0.45707 -1.28252,0.91862 -1.28252,1.02566 0,0.10704 0.47193,1.18831 1.04874,2.40284 1.18299,2.49087 2.1722,5.79182 2.32801,7.76839 0.12892,1.63544 -0.4716,2.53348 -2.00041,2.99152 -1.21121,0.36289 -6.319531,0.37129 -7.849871,0.0129 z m 6.205041,-3.69158 c 1.60019,-0.36871 2.12057,-0.89136 2.12057,-2.12985 0,-1.62172 -2.02866,-6.43299 -3.811163,-9.03877 -0.377714,-0.55216 -0.686469,-1.14747 -0.686123,-1.32291 2.65e-4,-0.17544 0.675947,-0.67187 1.501336,-1.10317 1.94425,-1.01597 4.06097,-3.09722 5.00033,-4.91653 0.62915,-1.21851 0.7473,-1.7731 0.75941,-3.56447 0.0127,-1.87913 -0.0849,-2.32318 -0.85474,-3.88758 C 78.672289,4.9121 69.712958,1.0737521 61.69349,2.0195418 58.234941,2.4274315 56.159317,3.0926412 55.777367,3.9155906 55.61114,4.2737403 55.338034,6.9480188 55.170463,9.8584373 54.819168,15.959877 54.121326,24.021927 53.91569,24.354657 c -0.07727,0.12503 0.123359,0.50818 0.445844,0.85145 0.491233,0.52289 0.697899,0.58171 1.274162,0.36261 0.378306,-0.14383 0.932963,-0.19998 1.232572,-0.12478 0.902631,0.22654 2.613178,-0.50773 2.917563,-1.25241 0.3317,-0.8115 1.380008,-1.67054 2.329357,-1.90881 0.386189,-0.0969 0.934739,-0.55255 1.218999,-1.0125 0.28426,-0.45994 0.881623,-1.10595 1.327475,-1.43559 l 0.810642,-0.59933 v -2.7702 -2.77021 h 0.734877 c 0.748813,0 1.785165,0.57426 2.365563,1.31078 0.976551,1.23924 -0.169881,3.45122 -2.086298,4.02539 -0.754248,0.22598 -1.44653,0.75899 -2.380596,1.83291 -0.724387,0.83285 -1.608641,1.58745 -1.965005,1.67689 -0.78359,0.19667 -1.960208,1.17725 -1.960208,1.63361 0,0.18149 -0.386953,0.64837 -0.859896,1.03751 -0.472943,0.38913 -0.715841,0.63181 -0.539771,0.53928 0.244327,-0.1284 0.255407,0.0174 0.0468,0.61582 -0.192767,0.55297 -0.186899,0.94554 0.01992,1.33198 0.190738,0.35639 0.206092,0.71075 0.04393,1.01375 -0.407763,0.76191 0.257916,3.96197 1.067409,5.13126 0.267409,0.38627 0.488021,0.92205 0.490249,1.19063 0.009,1.08572 0.364786,1.23828 2.509398,1.07609 1.119653,-0.0847 2.092039,-0.21027 2.160858,-0.27909 0.06882,-0.0688 0.193529,-1.02963 0.27714,-2.13513 0.19285,-2.54993 0.69918,-2.70206 1.915808,-0.57562 1.009759,1.76488 2.366077,2.99204 3.511984,3.17756 1.931316,0.31268 2.251144,0.34424 3.77597,0.37263 0.873125,0.0163 2.121527,-0.0935 2.774213,-0.24386 z m -36.845847,-0.41879 c 0.05599,-0.16955 -0.130392,-0.38197 -0.414182,-0.47204 -0.33805,-0.10729 -0.576813,-0.5028 -0.692396,-1.14693 -0.1911,-1.065 -0.720235,-2.44111 -0.935863,-2.43389 -0.07362,0.002 -0.689573,0.50848 -1.36879,1.12448 -0.679217,0.61599 -1.54242,1.33391 -1.918229,1.59536 -0.97726,0.6799 -0.863539,1.1903 0.308898,1.3864 0.545703,0.0913 1.11125,0.20883 1.256771,0.26124 0.629846,0.22686 3.668874,-0.0272 3.763791,-0.31462 z m 5.712664,0.1534 c 3.95596,-0.27011 5.187632,-0.6196 5.873686,-1.66665 0.582409,-0.88886 1.126871,-7.8683 0.69814,-8.94943 -0.376872,-0.95035 -1.792795,-1.63608 -4.526684,-2.19228 l -2.236738,-0.45506 -0.475242,0.5869 c -0.261382,0.32279 -0.475242,0.73002 -0.475242,0.90496 0,0.17493 -0.357187,0.66027 -0.79375,1.07852 -0.446344,0.42763 -0.79375,1.03591 -0.79375,1.38981 0,0.79622 -0.449913,1.65248 -0.869204,1.65426 -0.467905,0.002 -3.628712,3.0941 -3.628712,3.54986 0,0.21246 0.105325,0.4514 0.234053,0.53096 0.12873,0.0795 0.310348,0.65213 0.403598,1.27238 0.135596,0.90192 0.337695,1.22404 1.00929,1.6087 0.579265,0.33178 0.738092,0.5438 0.512032,0.68351 -0.469916,0.29042 0.853652,0.29136 5.068523,0.004 z m -29.187914,-1.42414 c 1.527969,-0.67216 2.969546,-1.42528 3.203507,-1.67362 0.23396,-0.24834 0.737949,-1.70168 1.119976,-3.22965 0.382024,-1.52797 1.413219,-5.33797 2.29154,-8.46667 1.503344,-5.35512 2.902228,-10.89978 2.90758,-11.5245897 0.0026,-0.29475 -0.930317,-0.9920594 -5.004062,-3.7405579 C 20.200991,5.1776 18.950834,4.4623803 18.793968,4.5132803 18.189959,4.7093 17.59239,6.6685391 14.098479,19.908277 c -0.421799,1.59835 -0.877948,3.01713 -1.013664,3.15285 -0.152622,0.15262 -0.67556,-0.64689 -1.370771,-2.09575 -0.849535,-1.77047 -1.149343,-2.74027 -1.227734,-3.97138 -0.128998,-2.02587 0.20029,-2.71065 2.325313,-4.83568 0.877853,-0.87785 1.596096,-1.68783 1.596096,-1.79996 0,-0.5362397 -3.074657,-7.5910158 -3.355303,-7.6987058 C 10.38853,2.4048915 7.3505875,4.3470003 5.3790955,6.2864994 2.0683188,9.5435573 0.73034483,12.976917 0.99700483,17.531347 1.3188388,23.028127 4.4300665,29.264807 9.4918603,34.559887 l 1.6085667,1.6827 1.5875,-0.14137 c 1.079876,-0.0962 2.475841,-0.53216 4.365625,-1.36347 z m 43.013772,0.45147 c -0.08805,-0.088 -0.305938,-0.0142 -0.484198,0.16402 -0.255755,0.25575 -0.240875,0.37611 0.07056,0.57071 0.281152,0.17567 0.420415,0.12849 0.484198,-0.16402 0.04924,-0.22584 0.01749,-0.48266 -0.07056,-0.57071 z m -0.723056,0.0613 c 0.480449,-0.55256 0.529862,-0.7667 0.283252,-1.2275 -0.776229,-1.4504 -1.366578,-4.50547 -1.037744,-5.37037 0.159145,-0.41859 0.153578,-0.70975 -0.01558,-0.81429 -0.144812,-0.0895 -0.229561,-0.58979 -0.188328,-1.11176 l 0.07498,-0.94902 -1.190625,-0.0702 c -0.705244,-0.0416 -1.433314,0.0867 -1.785938,0.31473 -0.327421,0.2117 -0.595312,0.29174 -0.595312,0.17787 0,-0.11387 -0.238125,-0.35575 -0.529167,-0.53751 -0.482203,-0.30114 -0.527312,-0.26569 -0.508278,0.39938 0.01148,0.40141 0.08094,0.58102 0.15434,0.39911 0.0734,-0.1819 0.263348,-0.33072 0.422108,-0.33072 0.158761,0 0.03878,0.26789 -0.266631,0.59531 -0.458965,0.49205 -0.592553,1.10015 -0.770133,3.50573 -0.247037,3.34646 -0.213453,3.82614 0.304093,4.34369 0.381095,0.38109 3.509518,1.30147 4.519391,1.3296 0.30118,0.008 0.80949,-0.28594 1.129575,-0.65408 z m -24.957102,-0.16892 c 0.143648,-0.31552 0.498745,-0.70247 0.789104,-0.85989 0.666814,-0.36153 3.312467,-2.57436 4.885651,-4.08637 0.660553,-0.63487 1.637588,-1.43379 2.171189,-1.77537 0.667044,-0.427 0.933662,-0.76903 0.853305,-1.09465 -0.112154,-0.45444 0.18352,-0.99459 1.620353,-2.96011 0.698027,-0.95487 0.846874,-1.61452 0.364311,-1.61452 -0.161089,0 -0.224359,0.17859 -0.140595,0.39687 0.204034,0.53171 -0.09096,0.50447 -0.493122,-0.0455 -0.247378,-0.3383 -0.876755,-0.46959 -2.675001,-0.55799 -2.524874,-0.12413 -3.032914,-0.32236 -2.493114,-0.97278 0.219218,-0.26414 0.787223,-0.40808 1.610305,-0.40808 1.699951,0 2.214734,-0.50834 1.988606,-1.96368 -0.204476,-1.31597 -0.714571,-1.74442 -1.856293,-1.55914 -0.979165,0.1589 -1.997895,-0.27303 -1.997895,-0.84708 0,-0.48381 0.549589,-0.59104 3.904302,-0.76175 3.582578,-0.18231 8.242105,-1.2867 9.208887,-2.18269 l 0.714788,-0.66244 -0.124415,-4.0933994 C 52.548709,3.4783909 52.210831,3.0337612 47.806476,2.5702915 c -3.158744,-0.33239 -10.856071,-0.31505 -12.455962,0.0281 -1.936588,0.41533 -3.992049,1.7542698 -4.849516,3.1590192 -1.815939,2.9749582 -2.533925,15.3761673 -1.294408,22.3572873 0.335889,1.89177 0.831035,3.87455 1.100323,4.40617 0.609724,1.20372 2.27443,2.60529 3.094413,2.60529 0.343818,0 0.54442,0.11709 0.453268,0.26458 -0.08994,0.14552 -0.06566,0.26458 0.05394,0.26458 0.119602,0 0.334989,-0.25815 0.478636,-0.57367 z m 19.011475,-12.19244 c 0.08735,-0.9095 0.23681,-2.52845 0.332134,-3.59766 l 0.173318,-1.94402 -0.783008,0.40492 c -1.08499,0.56107 -4.540605,1.40655 -7.227512,1.76836 -1.236686,0.16653 -2.301066,0.35532 -2.365285,0.41954 -0.06422,0.0642 0.143941,0.29937 0.462581,0.52256 0.318643,0.22318 0.579351,0.68552 0.579351,1.02742 0,0.54369 0.162692,0.644 1.297662,0.8001 2.226265,0.30619 6.16879,1.40341 6.603026,1.83764 0.228135,0.22814 0.494467,0.41479 0.591852,0.41479 0.09739,0 0.248531,-0.74414 0.335881,-1.65365 z m -39.741283,-4.65137 0.704847,-2.55852 -1.014341,1.16825 c -0.55789,0.64253 -1.086506,1.55291 -1.174708,2.02306 -0.155905,0.83105 0.311817,2.39062 0.623896,2.08031 0.0855,-0.085 0.472641,-1.30592 0.860306,-2.7131 z"
       id="path5309" />
  </g>
</svg>
