<?xml version="1.0" encoding="UTF-8" standalone="no"?>
<!-- Created with Inkscape (http://www.inkscape.org/) -->

<svg
   width="251mm"
   height="49mm"
   viewBox="0 0 251 49"
   version="1.1"
   id="svg5"
   inkscape:version="1.1.2 (0a00cf5339, 2022-02-04)"
   sodipodi:docname="withdraw.svg"
   xmlns:inkscape="http://www.inkscape.org/namespaces/inkscape"
   xmlns:sodipodi="http://sodipodi.sourceforge.net/DTD/sodipodi-0.dtd"
   xmlns="http://www.w3.org/2000/svg"
   xmlns:svg="http://www.w3.org/2000/svg">
  <sodipodi:namedview
     id="namedview7"
     pagecolor="#ffffff"
     bordercolor="#666666"
     borderopacity="1.0"
     inkscape:pageshadow="2"
     inkscape:pageopacity="0.0"
     inkscape:pagecheckerboard="0"
     inkscape:document-units="mm"
     showgrid="false"
     inkscape:zoom="0.64765011"
     inkscape:cx="397.59122"
     inkscape:cy="336.6015"
     inkscape:window-width="1920"
     inkscape:window-height="1013"
     inkscape:window-x="0"
     inkscape:window-y="0"
     inkscape:window-maximized="1"
     inkscape:current-layer="layer1" />
  <defs
     id="defs2" />
  <g
     inkscape:label="Layer 1"
     inkscape:groupmode="layer"
     id="layer1">
    <path
       style="fill:#000000;fill-opacity:1;stroke-width:0.264583"
       d="m 173.49563,48.024657 c -0.68438,-0.12319 -1.46795,-0.38348 -1.74125,-0.57843 -0.68413,-0.48797 -1.98433,-2.03104 -2.58378,-3.06642 -0.27382,-0.47294 -0.59124,-0.85989 -0.70539,-0.85989 -0.11414,0 -0.20753,0.58867 -0.20753,1.30816 0,0.98517 -0.15088,1.48357 -0.6111,2.01861 -0.56372,0.65537 -0.80476,0.7205 -3.10886,0.84006 -2.45434,0.12736 -7.02771,-0.37093 -9.3645,-1.02031 -0.57526,-0.15986 -1.45198,-0.69671 -1.94827,-1.193 -0.86791,-0.86791 -0.89554,-0.95689 -0.7238,-2.33141 l 0.17855,-1.42905 -2.05454,1.03214 c -7.31241,3.67355 -15.89774,3.76898 -22.99477,0.25561 l -2.42524,-1.2006 -0.77643,1.4552 c -0.59351,1.11239 -1.05183,1.59546 -1.94542,2.05053 -1.05542,0.53747 -1.54748,0.59531 -5.06446,0.59531 -2.1425,0 -4.20663,-0.11831 -4.58694,-0.2629 -1.15126,-0.43771 -1.43955,-1.6276 -1.63231,-6.73715 l -0.17511,-4.64162 h -0.61986 c -0.4988,0 -0.62067,0.1421 -0.62404,0.72761 -0.009,1.6098 -0.54063,7.16517 -0.81209,8.49033 -0.4875,2.37977 -0.59206,2.42373 -5.76524,2.42373 -2.45566,0 -4.827134,-0.0725 -5.269924,-0.16102 -1.392498,-0.2785 -2.394368,-1.38387 -3.091488,-3.41086 -0.86797,-2.52379 -1.16819,-5.26429 -1.3732,-12.53535 l -0.17441,-6.18536 -2.477984,0.12962 c -1.362893,0.0713 -2.54132,0.19295 -2.618727,0.27036 -0.155652,0.15565 0.272817,1.9721 2.137169,9.06032 0.945796,3.59589 1.27453,5.35382 1.341996,7.17648 0.133609,3.6094 0.482746,3.4306 -7.978963,4.08607 -3.769468,0.29199 -7.687018,0.49675 -8.705664,0.45501 -1.820595,-0.0746 -1.860246,-0.0916 -2.332162,-1.00194 -0.43062,-0.83064 -0.467916,-1.4848 -0.362021,-6.35 0.0968,-4.44726 0.247523,-6.10609 0.837046,-9.21212 0.395446,-2.0835 0.648613,-3.85856 0.562591,-3.94458 -0.08602,-0.086 -1.839968,-0.0274 -3.897656,0.13031 -3.949499,0.30267 -4.764738,0.1913 -5.251045,-0.71737 -0.4704,-0.87895 -0.853728,-7.65737 -0.758208,-13.40742 0.09929,-5.9772104 0.19681,-6.3190204 2.092137,-7.3332604 0.856321,-0.45825 1.605123,-0.47618 13.342651,-0.31957 6.839479,0.0913 12.90072,0.27167 13.46942,0.40092 0.88371,0.20082 1.15293,0.14682 1.85209,-0.37151 0.44994,-0.33356 1.22279,-0.74199 1.71745,-0.90761 1.058428,-0.35437 5.691982,-0.37886 9.378422,-0.0496 2.1549,0.1925 2.71592,0.33702 3.24772,0.83661 l 0.64285,0.60393 -0.0222,8.6128004 -0.0222,8.61281 0.8887,0.079 0.8887,0.079 0.31105,-2.98938 c 0.17108,-1.64416 0.38095,-4.41813 0.46638,-6.16438 0.2246,-4.5908904 0.80379,-7.1622604 1.87583,-8.3279604 l 0.85754,-0.93246 5.54465,0.0482 c 6.14864,0.0534 7.58074,0.2846 8.04263,1.29835 0.1748,0.38363 0.44943,0.60095 0.65821,0.52084 2.22421,-0.85351 3.87049,-1.06173 8.27874,-1.04707 3.89897,0.013 4.96041,0.10602 6.72104,0.58923 2.79545,0.76722 7.056,2.89695 9.07297,4.53534 0.90134,0.73216 1.70501,1.33119 1.78593,1.33119 0.0809,0 0.14733,-0.50601 0.14755,-1.12448 2.3e-4,-0.61846 0.20859,-1.5332 0.46302,-2.03275 0.38893,-0.7636 0.7454,-1.00258 2.23807,-1.50043 4.53207,-1.51157 10.88733,-1.56158 15.8969,-0.1251 4.43598,1.27201 7.89081,3.23034 10.49152,5.9469804 0.50149,0.52385 0.99299,0.95245 1.09222,0.95245 0.0992,0 0.44502,-0.70751 0.76841,-1.5722604 0.88233,-2.35933 2.70964,-5.31378 4.05164,-6.55078 1.78428,-1.6447 3.04397,-2.19571 5.0197,-2.19571 2.38332,0 4.02482,0.87414 6.7137,3.57523 l 2.1533,2.16307 0.28964,-0.96677 c 0.56944,-1.90062 1.02519,-2.09341 5.74723,-2.43119 4.03988,-0.28898 4.27271,-0.2786 5.4519,0.24301 2.09206,0.92542 2.41686,1.69285 3.6658,8.6614404 0.59987,3.34698 1.21432,6.89384 1.36547,7.88192 0.15114,0.98808 0.32876,1.74255 0.39471,1.6766 0.0659,-0.066 0.35705,-1.04563 0.6469,-2.17707 0.66434,-2.5933 1.13348,-3.50132 1.97415,-3.82094 0.89727,-0.34114 2.93618,-0.29481 4.06834,0.0924 0.87429,0.29905 0.95962,0.44026 1.60929,2.66324 l 0.68605,2.34745 0.55937,-1.5537 c 0.30766,-0.85453 1.11508,-3.45869 1.79427,-5.78703 1.48874,-5.1035204 3.0997,-9.1204404 3.99502,-9.9615504 0.61782,-0.58042 0.90192,-0.62505 4.5444,-0.71389 2.49776,-0.0609 4.30963,0.0193 5.07332,0.2246 1.43481,0.38573 2.90648,1.82783 3.38889,3.32079 0.52795,1.63388 0.708,6.8852604 0.30893,9.0100604 -0.63495,3.38061 -3.10697,11.98666 -7.08899,24.67952 -1.50678,4.80291 -1.87261,5.11251 -6.67109,5.64562 -3.28653,0.36514 -6.31037,0.0889 -7.46252,-0.68171 -0.93153,-0.62306 -2.4643,-3.19691 -2.74061,-4.60208 -0.19082,-0.97043 -0.52248,-1.1158 -0.76956,-0.33731 -0.41611,1.31104 -2.35525,3.74961 -3.53155,4.4411 -1.08575,0.63827 -1.50169,0.72422 -3.482,0.71951 -1.76192,-0.004 -2.53932,-0.13566 -3.58973,-0.60712 -1.11706,-0.50137 -1.46878,-0.55312 -2.10791,-0.31012 -1.1376,0.43251 -5.31432,0.34482 -6.9607,-0.14614 -2.09736,-0.62545 -3.50039,-2.1666 -5.12878,-5.63367 -0.72913,-1.55244 -1.36199,-2.86311 -1.40634,-2.91262 -0.0444,-0.0495 -1.28038,0.30324 -2.74672,0.78387 l -2.66607,0.87388 v 2.0953 c 0,2.02976 -0.0274,2.1212 -0.87738,2.92279 -1.08594,1.02417 -3.39954,1.78621 -5.93564,1.95503 -1.82093,0.12121 -1.91823,0.16036 -1.91823,0.77175 0,0.95155 -0.40463,1.54748 -1.51792,2.23552 -0.89864,0.5554 -1.34281,0.62038 -4.56741,0.66822 -1.96458,0.0292 -4.13191,-0.0478 -4.8163,-0.17098 z m 8.6522,-4.53389 c 1.09654,-0.53397 1.33728,-1.5387 0.84584,-3.53013 -0.44136,-1.78854 -3.24165,-7.65724 -4.34756,-9.11141 -0.86539,-1.13791 -0.6829,-1.45731 1.52842,-2.67514 2.09785,-1.15535 4.38087,-3.38578 5.41642,-5.29167 0.73526,-1.3532 0.79069,-1.64995 0.79069,-4.23333 0,-2.67038 -0.0348,-2.8397 -0.89812,-4.36563 -1.84354,-3.25861 -3.81112,-5.0557404 -7.64653,-6.9841504 -5.52377,-2.77729 -12.76686,-3.48003 -18.92154,-1.83579 -2.41202,0.64438 -2.69968,0.96424 -2.95696,3.28793 l -0.17846,1.6117404 1.27877,1.69555 c 2.91239,3.8616 3.91366,7.09502 3.72042,12.01431 -0.11688,2.9753 -0.33596,4.01509 -1.37567,6.52913 -0.14755,0.35678 -0.0699,0.41401 0.3962,0.29212 0.32154,-0.0841 0.73762,-0.52956 0.93432,-1.00033 0.37188,-0.89004 1.16981,-1.53855 2.82725,-2.29782 0.54571,-0.24999 0.99219,-0.56441 0.99219,-0.69872 0,-0.13431 0.59531,-0.8217 1.32292,-1.52753 l 1.32291,-1.28333 v -2.99163 c 0,-2.47852 0.0715,-3.01905 0.41674,-3.15154 0.71355,-0.27382 2.42306,0.41308 3.13564,1.25993 1.40956,1.67517 0.54055,3.69197 -2.09257,4.85646 -0.92867,0.4107 -1.82489,1.12492 -2.79609,2.22826 -0.78614,0.8931 -1.67028,1.69473 -1.96476,1.7814 -0.88786,0.2613 -2.51979,1.47398 -2.51979,1.87244 0,0.2051 -0.32385,0.69493 -0.71967,1.08849 -0.70278,0.69879 -0.7192,0.78697 -0.6998,3.75829 0.0207,3.17022 0.54539,5.73437 1.30188,6.3622 0.2128,0.17661 0.46059,0.78189 0.55065,1.34508 l 0.16374,1.02397 1.88441,-0.004 c 3.01769,-0.006 2.98894,0.0152 3.19496,-2.33479 0.0977,-1.11497 0.23783,-2.23558 0.31131,-2.49024 0.27214,-0.94321 1.05771,-0.47815 2.04555,1.21098 1.52364,2.60531 2.66318,3.57479 4.54894,3.8701 2.20929,0.34596 7.25504,0.17243 8.18735,-0.28158 z m -21.0339,-0.36773 c 0,-0.21828 -0.10633,-0.39687 -0.23628,-0.39687 -0.12995,0 -0.30481,0.17859 -0.38857,0.39687 -0.0928,0.24176 -5.3e-4,0.39688 0.23628,0.39688 0.21371,0 0.38857,-0.1786 0.38857,-0.39688 z m -0.87742,-0.6213 c 0.76759,-0.73355 0.7761,-0.769 0.31982,-1.33248 -0.25781,-0.31838 -0.65943,-1.23482 -0.8925,-2.03654 -0.36994,-1.27257 -0.4443,-2.07009 -0.41733,-4.47634 0.0198,-1.77011 -0.0261,-2.63109 -0.15112,-2.83341 -0.0781,-0.12638 -0.72186,0.59588 -1.43056,1.60503 -0.70869,1.00915 -1.94747,2.41275 -2.75283,3.1191 l -1.4643,1.28428 -0.003,1.60375 c -0.005,2.33406 0.363,2.6501 4.0977,3.52042 1.64894,0.38426 1.85355,0.3498 2.69446,-0.45381 z m -37.85832,-1.38724 c 0.36782,-0.34554 0.88848,-0.98748 1.15703,-1.42652 0.66422,-1.08593 2.28876,-7.05094 2.91612,-10.70749 l 0.51332,-2.99187 -0.66872,-1.14108 c -0.71798,-1.22516 -2.59667,-3.28804 -2.99444,-3.28804 -0.46191,0 -1.89835,-2.69633 -2.15367,-4.04265 -0.41383,-2.18211 -1.80641,-3.19776 -5.8837,-4.29114 -1.15626,-0.31007 -1.88783,-0.39066 -2.0524,-0.22609 -0.14064,0.14064 -0.37207,1.55861 -0.51428,3.15103 -0.14221,1.59242 -0.32726,3.40133 -0.41121,4.01979 l -0.15265,1.12448 h -1.83083 c -2.25706,0 -2.18335,0.20243 -1.87868,-5.15937 0.33006,-5.80858 0.24695,-12.7289504 -0.15774,-13.1336404 -0.40261,-0.40261 -8.644644,-0.9253 -10.396444,-0.65932 -0.65959,0.10015 -1.599148,0.42528 -2.087928,0.72252 l -0.88868,0.54044 0.97112,0.80049 c 1.828118,1.50689 2.126888,2.45989 2.231198,7.1169304 0.11525,5.14581 -0.17943,6.98915 -1.27666,7.98601 -0.508578,0.46206 -1.097508,0.72761 -1.613678,0.72761 h -0.81281 l 0.10742,8.00364 c 0.0984,7.33427 0.15549,8.14941 0.68202,9.74647 0.31602,0.95856 0.84831,2.14918 1.18286,2.64584 l 0.608288,0.903 5.333584,0.0716 5.33359,0.0716 0.27915,-0.99762 c 0.15354,-0.54869 0.40587,-2.72402 0.56076,-4.83408 0.44065,-6.00332 0.28485,-5.55625 1.93626,-5.55625 h 1.4014 l 0.16719,5.19704 c 0.1376,4.2774 0.24376,5.28165 0.59994,5.67522 0.52912,0.58468 1.87034,0.7284 6.00645,0.64365 2.87188,-0.0588 3.17086,-0.11349 3.78682,-0.69216 z m 19.33586,0.26599 c 2.97969,-0.41369 6.77515,-1.69168 9.18866,-3.09396 2.27223,-1.32019 5.52958,-4.35338 6.35282,-5.91562 0.48078,-0.91236 0.48423,-1.01103 0.0661,-1.89207 -0.2426,-0.51124 -0.44109,-1.11574 -0.44109,-1.34334 0,-0.22761 -0.33989,-0.80493 -0.75531,-1.28293 -0.41543,-0.47801 -0.9623,-1.31037 -1.21528,-1.8497 -0.25895,-0.55209 -0.88275,-1.23265 -1.42749,-1.55738 -0.98651,-0.58808 -5.41869,-1.63605 -6.70483,-1.58533 -0.39062,0.0154 -0.7846,-0.0924 -0.87552,-0.23944 -0.29162,-0.47186 -0.61001,-0.29632 -2.09866,1.15706 -1.40713,1.3738 -2.65735,2.01085 -3.07464,1.56668 -0.29364,-0.31256 -1.10426,-6.65193 -0.89407,-6.99203 0.22317,-0.3611 1.99078,-0.10477 3.04817,0.44202 0.41992,0.21715 0.96694,0.71976 1.2156,1.11691 0.24866,0.39716 0.84083,1.09144 1.31593,1.54285 0.71764,0.68187 1.14523,0.84722 2.52694,0.97716 1.86533,0.17542 4.11072,0.71756 5.49958,1.32786 3.29208,1.44662 4.39763,1.73821 5.51495,1.45461 l 1.09963,-0.27912 -0.002,-1.35688 c -0.007,-4.72491 -1.74403,-8.94441 -5.18293,-12.58982 -2.82236,-2.9919804 -6.52732,-5.2270004 -10.76807,-6.4959304 -3.41776,-1.02267 -10.19508,-1.02165 -13.81251,0.002 l -1.32292,0.37438 -0.006,6.7526104 c -0.005,5.04914 0.0745,6.78365 0.31426,6.87564 0.17633,0.0677 0.44875,0.57609 0.60537,1.12984 0.47236,1.66999 1.10834,5.95207 0.94661,6.37354 -0.11763,0.30653 -0.4423,0.35973 -1.45989,0.23921 l -1.30862,-0.15499 -0.27182,0.97869 c -0.1495,0.53828 -0.27248,1.23857 -0.27329,1.5562 -8e-4,0.31763 -0.41249,2.45543 -0.91484,4.75067 -0.69739,3.18639 -0.8419,4.25927 -0.61114,4.53731 0.5308,0.63958 3.29932,1.89317 5.68976,2.57632 3.9896,1.14018 6.60272,1.37369 10.03695,0.89689 z m 95.83661,-0.0209 c 2.42875,-0.56062 2.30685,-0.30247 6.1466,-13.01751 l 0.86813,-2.87472 -1.09251,-0.96174 c -0.60088,-0.52895 -1.45855,-1.23868 -1.90594,-1.57717 -0.44738,-0.33849 -0.81343,-0.78078 -0.81343,-0.98287 0,-0.2021 -0.23689,-0.49423 -0.52643,-0.64918 -0.28954,-0.15496 -0.7165,-0.64929 -0.9488,-1.09852 -0.40788,-0.78876 -0.47191,-0.81268 -1.86606,-0.69706 -0.79403,0.0658 -1.49532,0.0362 -1.55842,-0.0659 -0.0631,-0.10211 -0.41502,-0.12825 -0.78203,-0.0581 -0.367,0.0702 -0.94241,-0.0527 -1.27867,-0.27304 -0.33627,-0.22033 -0.9125,-0.34304 -1.2805,-0.27269 -0.58335,0.11151 -0.78644,0.47261 -1.58453,2.81724 -0.88654,2.6045 -1.36484,3.20442 -1.82769,2.29246 -0.11079,-0.21828 -0.50622,-1.6961 -0.87873,-3.28405 -0.37251,-1.58795 -0.79667,-3.00656 -0.94257,-3.15246 -0.39542,-0.39542 -3.13056,-0.56036 -3.54794,-0.21396 -0.19494,0.16178 -0.56497,1.03971 -0.82228,1.95095 -0.25732,0.91125 -0.69849,2.4662 -0.98037,3.45546 -0.49905,1.75141 -1.04346,2.3835 -1.58577,1.84119 -0.31834,-0.31834 -1.53587,-6.32699 -2.59632,-12.8132 -0.42042,-2.5715004 -0.88244,-4.8932204 -1.02671,-5.1593804 -0.14427,-0.26616 -0.62606,-0.83009 -1.07065,-1.25319 l -0.80833,-0.76927 -3.95209,0.17106 c -2.17365,0.0941 -4.24632,0.28292 -4.60592,0.41965 -1.1045,0.41992 -1.6038,2.66136 -0.88893,3.99054 5.38003,10.0032404 7.0454,15.1336204 8.24507,25.4000004 0.21256,1.81901 0.38766,3.92313 0.38911,4.67583 0.003,1.31132 0.0386,1.37984 0.86254,1.63877 0.47294,0.14862 1.51654,0.34667 2.31911,0.44011 2.73182,0.31806 4.48821,-0.91846 6.34633,-4.4679 1.64686,-3.14588 2.07663,-3.27538 2.62927,-0.79222 0.43924,1.9736 1.64521,4.37693 2.55569,5.09311 0.63459,0.49917 1.053,0.55604 4.09062,0.55604 1.86104,0 3.98466,-0.13871 4.71915,-0.30825 z m -25.4383,-0.88316 c 1.09944,-0.44345 1.12423,-0.4809 1.11294,-1.68159 -0.0165,-1.74976 -0.63919,-6.79594 -1.27802,-10.35617 -0.54069,-3.01331 -2.08518,-7.97775 -3.39548,-10.91406 l -0.67889,-1.52136 h -1.30418 c -0.71729,0 -1.56424,0.14285 -1.88209,0.31745 -0.31786,0.17459 -1.31485,0.39659 -2.21555,0.49334 -1.43206,0.15382 -1.7515,0.29664 -2.54478,1.13777 -0.49894,0.52902 -1.09295,0.96186 -1.32004,0.96186 -0.78852,0 -1.24443,0.78381 -1.24443,2.13945 0,1.11721 -0.13047,1.45028 -0.89486,2.28437 l -0.89487,0.97647 0.74278,0.93788 c 1.0105,1.27593 1.08338,1.89119 0.2532,2.1378 -3.51469,1.04407 -4.84168,1.34026 -5.05391,1.12804 -0.28606,-0.28606 0.30591,-2.43605 0.93515,-3.39638 0.26717,-0.40776 0.86373,-0.75685 1.6179,-0.94676 1.67409,-0.42154 2.76545,-1.76734 2.76545,-3.4102 0,-1.32105 0.56905,-2.37984 1.27905,-2.37984 0.84351,0 1.55629,-0.7472 1.72616,-1.80954 0.0911,-0.56945 0.58323,-1.64254 1.09372,-2.38465 0.51048,-0.74212 0.92815,-1.44365 0.92815,-1.55896 0,-0.11532 0.47625,-0.786 1.05833,-1.4904 0.6185,-0.74847 1.05834,-1.5589904 1.05834,-1.9502604 0,-1.46472 -4.24357,-5.78458 -6.68414,-6.80432 -1.11009,-0.46382 -3.26593,-0.53311 -4.30427,-0.13833 -2.08284,0.79189 -4.25257,3.47411 -5.9837,7.39705 -1.16888,2.6488404 -1.16994,2.7085104 -0.0933,5.2679804 0.62988,1.49745 0.6998,1.96029 0.6195,4.10105 -0.10973,2.92513 -0.91096,4.80938 -2.97481,6.9958 l -1.32879,1.40771 -0.23361,4.39723 c -0.19368,3.64575 -0.16813,4.53558 0.1495,5.20687 0.21071,0.44531 0.54215,1.43473 0.73652,2.19871 l 0.35342,1.38906 1.33904,-0.005 c 0.73647,-0.002 2.23201,-0.23538 3.32342,-0.51753 1.53349,-0.39644 2.15763,-0.70583 2.74689,-1.36164 0.73248,-0.8152 0.75669,-0.92581 0.61439,-2.80733 l -0.14814,-1.9587 1.2377,-0.53081 c 1.60452,-0.68812 3.97728,-1.47877 4.78075,-1.59303 0.56843,-0.0808 0.79737,0.23757 2.25563,3.13696 0.89264,1.77481 1.91764,3.54716 2.27778,3.93855 1.80899,1.96597 6.52294,2.74646 9.45218,1.56499 z M 84.229217,39.936217 c 3.063581,-0.21675 5.690981,-0.52256 5.886979,-0.68523 0.527846,-0.43807 0.460145,-0.92234 -0.829368,-5.93236 -1.481685,-5.75664 -1.698932,-6.28201 -2.78343,-6.73123 -0.765818,-0.31721 -0.884745,-0.30512 -1.119177,0.11379 -0.144269,0.25779 -0.874649,0.75015 -1.62307,1.09412 -1.718226,0.78969 -2.100221,1.1011 -2.64576,2.15687 -0.55047,1.06532 -1.157993,1.39691 -2.55937,1.39691 -1.029975,0 -2.092325,0.51507 -3.119845,1.51264 -0.192293,0.18669 -0.482277,0.33944 -0.644405,0.33944 -0.162127,0 -0.570342,0.25888 -0.907143,0.57529 -0.562885,0.5288 -0.612365,0.79451 -0.612365,3.28839 0,3.58221 0.08783,3.6777 3.162652,3.43863 1.243719,-0.0967 4.751155,-0.35197 7.794302,-0.56726 z m 98.020073,-7.59495 c 0.0352,-0.81748 -0.13827,-0.88278 -0.87135,-0.32802 -0.49782,0.37672 -0.49783,0.40037 -7.9e-4,1.50258 l 0.50497,1.11984 0.16794,-0.7834 c 0.0924,-0.43086 0.18202,-1.11081 0.19924,-1.511 z M 74.26271,32.132447 c -0.409967,-0.65646 -0.725863,-0.397 -0.725863,0.59617 0,0.79446 0.0155,0.80512 0.514236,0.35377 0.415499,-0.37602 0.456133,-0.55842 0.211627,-0.94994 z m 2.07578,-0.65107 c 0.61967,-0.47265 1.197682,-0.66146 2.024925,-0.66146 1.286534,0 1.616043,-0.20467 2.689302,-1.67047 0.406339,-0.55495 1.173451,-1.20652 1.704694,-1.44794 0.531241,-0.24141 1.382612,-0.75194 1.891935,-1.1345 0.509323,-0.38256 1.253464,-0.77505 1.653646,-0.8722 0.904311,-0.21954 0.911008,-0.50138 0.08523,-3.58705 l -0.642374,-2.40034 1.369978,-7.9e-4 c 1.964661,-0.001 7.285032,-0.513 8.417252,-0.80956 0.648,-0.16973 1.0168,-0.44553 1.13023,-0.84522 0.353038,-1.24406 0.492438,-8.7798304 0.183278,-9.9078104 -0.406368,-1.48262 -1.392788,-2.60129 -3.037438,-3.44466 l -1.35459,-0.69475 -10.944289,-0.24319 c -12.191865,-0.27092 -15.172793,-0.11253 -15.950189,0.84752 -0.249444,0.30805 -0.538329,1.23875 -0.641967,2.06823 -0.26444,2.11651 0.03419,12.0510204 0.381781,12.7004904 0.411395,0.76871 1.521957,0.88206 5.987994,0.61122 2.182813,-0.13237 4.071133,-0.14152 4.196271,-0.0204 0.126566,0.12258 0.03775,1.25817 -0.200176,2.55929 -0.235233,1.28642 -0.667192,3.66586 -0.959914,5.28765 l -0.532217,2.94871 0.600101,0.68453 c 0.744855,0.84965 0.872567,0.85179 1.946537,0.0326 z m 82.54967,-2.14058 c 0.25511,-0.66799 0.47332,-1.70979 0.48491,-2.3151 0.0194,-1.01539 -0.0301,-1.09684 -0.64039,-1.0524 -0.3638,0.0265 -1.28923,-0.13948 -2.05652,-0.36883 -0.76728,-0.22935 -1.45475,-0.35731 -1.52771,-0.28435 -0.073,0.073 0.40599,0.86435 1.06433,1.75864 0.65834,0.89429 1.19698,1.81207 1.19698,2.03951 0,0.54399 0.48547,1.43707 0.78118,1.43707 0.12836,0 0.44211,-0.54654 0.69722,-1.21454 z m -71.59298,-3.28338 c 0,-0.14552 -0.0525,-0.26458 -0.116676,-0.26458 -0.06417,0 -0.190262,0.11906 -0.280199,0.26458 -0.08994,0.14552 -0.03743,0.26458 0.116675,0.26458 0.15411,0 0.2802,-0.11906 0.2802,-0.26458 z m 42.0472,-2.05052 c -0.12673,-0.5457 -0.24512,-1.11125 -0.2631,-1.25677 -0.0498,-0.40342 -0.45274,0.97678 -0.48273,1.65364 -0.0185,0.41718 0.12364,0.59532 0.47493,0.59532 0.44386,0 0.4749,-0.1137 0.2709,-0.99219 z m 13.08274,-0.0854 c 0.38343,-0.3016 0.69714,-0.64523 0.69714,-0.7636 0,-0.22199 -1.84152,-1.18408 -1.96334,-1.02574 -0.15411,0.2003 0.18231,2.33771 0.36795,2.33771 0.11061,0 0.51483,-0.24677 0.89825,-0.54837 z m -15.04925,-0.57606 c 0.0839,-0.47294 0.24787,-2.05052 0.36434,-3.50573 0.24165,-3.01922 -0.009,-3.67878 -1.41899,-3.73686 -0.43656,-0.018 -1.53792,-0.17954 -2.44746,-0.35901 -2.27816,-0.44954 -2.52415,-0.31592 -2.30061,1.24963 0.23688,1.65898 1.33144,3.66091 2.34634,4.2914 0.44783,0.27821 1.26664,1.04912 1.81959,1.71315 0.55294,0.66402 1.1131,1.20732 1.24478,1.20732 0.13168,0 0.30808,-0.38696 0.39201,-0.8599 z m 118.2528,-1.19063 c 0.6446,-1.91659 0.66003,-2.0722 0.23622,-2.38249 -0.24937,-0.18258 -0.63826,-0.28121 -0.86416,-0.21917 -0.22592,0.062 -1.45256,0.19235 -2.72587,0.28958 -2.15554,0.16459 -2.96862,0.53708 -1.82511,0.83611 0.2695,0.0705 0.68531,0.53772 0.92403,1.03833 0.23872,0.50059 0.76237,1.05144 1.16365,1.2241 0.40129,0.17266 0.94262,0.52771 1.20295,0.789 0.83615,0.83923 1.16979,0.56087 1.88829,-1.57546 z m -76.53755,0.33073 c 0,-0.13824 -0.128,-0.29401 -0.28443,-0.34616 -0.15644,-0.0521 -0.28443,0.10363 -0.28443,0.34616 0,0.24254 0.12799,0.39831 0.28443,0.34617 0.15643,-0.0521 0.28443,-0.20792 0.28443,-0.34617 z m 74.86379,-3.51956 c 0.96042,-0.14065 1.97284,-0.37704 2.24989,-0.5253 0.7425,-0.39738 2.22208,-5.9971 2.22014,-8.40256 -0.003,-2.3048704 -0.31816,-3.4619804 -1.25071,-4.5752304 -0.66519,-0.79408 -0.92461,-0.89783 -2.83538,-1.13393 -2.80408,-0.34646 -7.26539,0.0736 -7.74479,0.72922 -0.72982,0.99808 -4.04263,10.6323804 -4.04263,11.7567304 0,0.17903 0.39869,0.71272 0.88598,1.18597 l 0.88598,0.86045 2.80626,-0.0387 c 2.01211,-0.0277 2.90323,0.0598 3.14891,0.30929 0.20124,0.20435 0.67025,0.29468 1.13641,0.21887 0.43656,-0.071 1.57954,-0.24418 2.53994,-0.38484 z m -39.36123,-3.20836 c 0.65467,-0.28062 1.41699,-0.45094 1.69407,-0.37849 0.27707,0.0725 0.6504,-0.0449 0.82962,-0.26088 0.26677,-0.32144 0.10316,-0.80448 -0.90239,-2.66423 -0.67553,-1.24938 -1.31656,-2.2716 -1.42453,-2.2716 -0.38186,0 -3.40561,4.07918 -3.81546,5.14724 -0.0964,0.25122 -0.10834,0.56508 -0.0265,0.69747 0.25913,0.41928 2.40917,0.26032 3.64521,-0.26951 z m -77.01569,-0.27992 c 0.42572,-0.003 0.46302,-0.43827 0.46302,-5.39826 0,-6.1098304 -0.067,-6.3386704 -1.98437,-6.7829304 -0.58209,-0.13487 -3.21517,-0.24806 -5.8513,-0.25153 -4.4332,-0.006 -4.84461,0.0343 -5.48099,0.53489 -0.8242,0.64832 -1.17332,1.7505 -1.50471,4.75047 -0.20519,1.8575904 -0.18217,2.2987504 0.13232,2.5351004 0.20941,0.15738 0.50155,0.60386 0.64919,0.99219 0.16998,0.44709 0.46673,0.70604 0.80912,0.70604 0.72626,0 4.08082,1.18498 4.81978,1.70257 0.32516,0.22775 1.13026,0.42222 1.78911,0.43215 0.65884,0.01 1.9718,0.23395 2.91769,0.49783 0.94588,0.26388 1.95791,0.43597 2.24895,0.38243 0.29105,-0.0535 0.73753,-0.099 0.99219,-0.10095 z m -14.08906,-3.57549 c 0,-0.2011 -0.11906,-0.43923 -0.26458,-0.52916 -0.15066,-0.0931 -0.26459,0.13474 -0.26459,0.52916 0,0.39442 0.11393,0.62228 0.26459,0.52917 0.14552,-0.0899 0.26458,-0.32806 0.26458,-0.52917 z m -87.309033,35.39152 c -1.199848,-0.22406 -2.092671,-1.13017 -3.013297,-3.05813 -0.50066,-1.04847 -0.988952,-2.14443 -1.085091,-2.43547 -0.153484,-0.46464 -0.25029,-0.40011 -0.793834,0.52916 -1.278525,2.18584 -2.031982,3.08095 -3.25016,3.86123 -1.205913,0.77241 -1.34978,0.79974 -3.767334,0.71553 -2.910538,-0.10138 -3.900329,-0.48459 -5.5468282,-2.14755 -2.0510342,-2.07154 -2.6858882,-3.9783 -4.5086912,-13.5417 C 1.5654378,17.317527 0.98193478,13.579587 0.94482478,10.270067 0.88923478,5.3127566 1.0752378,5.1801466 8.2268968,5.0782866 c 3.5681182,-0.0508 3.9387592,-0.0109 4.6302082,0.49825 1.763049,1.29832 1.783935,1.36846 3.691316,12.3970404 0.502015,2.90269 0.960864,5.32572 1.019662,5.38452 0.0588,0.0588 0.2403,-0.41113 0.403341,-1.04429 0.686763,-2.66696 1.40026,-4.47968 1.86009,-4.72578 0.269113,-0.14402 1.431171,-0.26186 2.582349,-0.26186 1.663134,0 2.176015,0.0951 2.496944,0.46302 0.41143,0.47167 1.081961,2.38031 1.410375,4.01458 l 0.182007,0.90572 0.332139,-0.78993 c 0.182676,-0.43446 0.961057,-2.92563 1.729732,-5.53593 1.330272,-4.51739 2.786457,-8.6590004 3.597428,-10.2316304 0.689962,-1.33797 1.556745,-1.55638 6.115156,-1.54092 3.640611,0.0124 4.270563,0.0803 5.281139,0.5695 0.631097,0.30551 1.260507,0.75223 1.398688,0.99272 0.691272,1.20306 0.704644,1.2037 1.718111,0.0819 1.518582,-1.68089 3.47226,-2.50862 6.202376,-2.6278 2.185837,-0.0954 2.324161,-0.0664 3.716054,0.78055 2.24518,1.36611 2.947678,2.72046 3.238871,6.2441904 0.128966,1.56066 0.164764,3.40783 0.07955,4.10483 l -0.154935,1.26728 1.293191,-0.17155 1.293193,-0.17155 0.439457,1.09832 c 1.049843,2.62381 1.246508,12.92389 0.324374,16.98853 -0.886134,3.90595 -3.051307,9.01438 -4.886208,11.52834 -1.289024,1.76607 -1.946071,1.98383 -5.680348,1.88257 -3.463186,-0.0939 -4.91354,-0.52548 -5.521433,-1.64298 -0.167791,-0.30845 -0.333685,-1.68976 -0.368649,-3.06958 -0.06043,-2.38477 -0.0071,-2.65974 1.079394,-5.56422 0.628634,-1.6805 1.463048,-4.33379 1.854253,-5.89619 0.614547,-2.45437 0.696754,-3.24262 0.604451,-5.7958 l -0.106831,-2.95508 -0.845728,-0.28475 c -0.465151,-0.15661 -1.442908,-0.72853 -2.172795,-1.27092 -0.86477,-0.64263 -1.36475,-0.87197 -1.435248,-0.65835 -0.0595,0.1803 -0.476486,1.69704 -0.926637,3.37053 -0.450149,1.67349 -1.221753,4.29286 -1.714675,5.82083 -0.492924,1.52797 -1.448906,4.68313 -2.124403,7.01146 -2.419995,8.34132 -2.995012,9.70252 -4.380177,10.36888 -1.487231,0.71547 -7.861826,1.1368 -10.302782,0.68097 z m 29.919088,-4.45906 c 1.093348,-0.30559 3.813095,-5.24183 5.092462,-9.24265 1.21471,-3.79863 1.587306,-6.728 1.425191,-11.2049 -0.143854,-3.97262 -0.489799,-5.58894 -1.196914,-5.59219 -0.449125,-0.002 -4.675227,1.46195 -8.606171,2.98138 l -2.070169,0.80018 0.218086,1.3514 c 0.680236,4.21519 -0.126513,9.32336 -2.432331,15.40098 -0.652324,1.71937 -1.186042,3.33285 -1.186042,3.58551 0,0.25265 0.267891,0.76964 0.595313,1.14886 0.515585,0.59716 0.896506,0.71933 2.84427,0.91222 2.073397,0.20534 4.287684,0.1467 5.316305,-0.14079 z m -21.62099,-0.1473 c 2.297835,-0.46147 2.085477,-0.0249 5.579761,-11.47057 1.467664,-4.8074 1.499406,-4.39243 -0.448043,-5.85751 -1.555618,-1.17031 -2.65371,-2.37344 -3.643699,-3.99224 -0.360667,-0.58975 -0.523274,-0.63649 -1.782366,-0.51232 -0.762018,0.0752 -1.443786,0.0423 -1.515038,-0.073 -0.07125,-0.11528 -0.414769,-0.15509 -0.763368,-0.0884 -0.348599,0.0666 -0.976519,-0.0447 -1.395378,-0.24754 -1.481122,-0.71707 -1.772555,-0.44271 -2.753431,2.59216 -0.776891,2.40373 -0.969688,2.76675 -1.433873,2.69988 -0.444733,-0.0641 -0.613714,-0.45142 -0.989761,-2.26881 -0.249404,-1.20535 -0.610745,-2.74842 -0.802981,-3.42904 -0.38431,-1.36069 -0.760844,-1.58147 -2.778363,-1.62907 -0.987134,-0.0233 -1.165799,0.0667 -1.52962,0.77022 -0.226562,0.43812 -0.70907,1.94021 -1.07224,3.33797 -0.775279,2.98389 -1.062826,3.59931 -1.629796,3.48817 -0.64289,-0.12603 -0.958646,-1.36121 -2.320906,-9.07893 C 13.614343,7.9512466 13.596192,7.8802566 12.641687,6.9257466 l -0.791832,-0.79183 -4.5399142,0.16102 c -5.0064162,0.17757 -5.0388542,0.18946 -5.3727482,1.96927 -0.1669298,0.88981 0.458028,4.7363704 2.418038,14.8828204 0.491934,2.54662 1.087654,5.70177 1.323821,7.01146 0.583766,3.23735 1.6760912,7.49554 2.1712872,8.46432 1.294668,2.53282 3.0253632,3.7 5.9197832,3.99227 3.145353,0.31762 4.565737,-0.63805 6.621504,-4.45507 1.647479,-3.05895 2.149118,-3.27704 2.443036,-1.06214 0.210362,1.58525 1.510617,4.36945 2.444998,5.23541 0.681051,0.63117 0.849162,0.6575 4.19857,0.6575 1.919012,0 4.168904,-0.13652 4.999765,-0.30338 z m 7.8013,-18.63787 c 1.075388,-2.81016 0.782966,-3.29827 -1.754235,-2.92815 -0.979506,0.14289 -2.227405,0.26436 -2.773109,0.26994 -1.090321,0.0111 -1.23762,0.22133 -0.524568,0.74852 0.257191,0.19015 0.669602,0.66239 0.916472,1.04942 0.517221,0.81088 2.514267,2.28244 3.143253,2.31616 0.28226,0.0151 0.617505,-0.47678 0.992187,-1.45589 z m -1.607928,-3.54419 c 2.511496,-0.3318 2.759262,-0.58668 3.647148,-3.75189 0.986486,-3.51671 1.095997,-7.4823004 0.246457,-8.9245904 -0.94066,-1.59699 -1.663671,-1.93725 -4.410466,-2.07559 -2.831246,-0.14259 -6.214602,0.25648 -6.754874,0.79675 -0.516966,0.51697 -2.08662,4.7365604 -3.237378,8.7028304 l -0.972134,3.35061 1.070054,0.94887 c 1.174467,1.04146 1.272844,1.07434 2.019067,0.67498 0.333695,-0.17859 0.511773,-0.18205 0.511773,-0.01 0,0.1619 0.639305,0.21129 1.653646,0.12777 1.194776,-0.0984 1.837192,-0.0265 2.315104,0.25886 0.387382,0.23134 0.990351,0.33825 1.455208,0.25801 0.436563,-0.0753 1.541939,-0.23585 2.456395,-0.35666 z m -11.319936,-1.06247 c 0,-0.14552 -0.119063,-0.26459 -0.264583,-0.26459 -0.145521,0 -0.264584,0.11907 -0.264584,0.26459 0,0.14552 0.119063,0.26458 0.264584,0.26458 0.14552,0 0.264583,-0.11906 0.264583,-0.26458 z m 23.018749,-1.73293 c 0,-0.22551 -0.162192,-0.73153 -0.360426,-1.12448 -0.198233,-0.39296 -0.422624,-1.20256 -0.498644,-1.79911 -0.0789,-0.61911 -0.491995,-1.573 -0.962493,-2.22251 -0.453348,-0.62583 -0.827154,-1.3879 -0.830681,-1.69348 -0.0048,-0.41488 -0.396327,-0.73993 -1.545709,-1.2832204 -0.846611,-0.40018 -1.61921,-0.72761 -1.716886,-0.72761 -0.09767,0 -0.146246,0.80368 -0.107937,1.7859404 0.03831,0.98227 -0.02936,2.47974 -0.150376,3.32772 l -0.22003,1.54178 1.038272,0.98769 c 1.179677,1.1222 2.285529,1.55132 4.09814,1.59028 0.970261,0.0209 1.25677,-0.0665 1.25677,-0.383 z m 2.46479,-0.41464 c 0.606293,-0.30999 2.827615,-2.35682 2.825856,-2.60388 -5.3e-4,-0.0788 -0.863764,-0.16647 -1.91823,-0.19474 -1.054465,-0.0283 -2.30416,-0.12296 -2.777103,-0.21043 -0.790083,-0.14612 -0.859896,-0.10328 -0.859896,0.52756 0,0.74136 0.684673,2.25908 1.161396,2.57449 0.417598,0.27628 0.901912,0.24755 1.567977,-0.093 z m 3.645519,-3.98436 c 0.45974,-0.85903 0.605377,-3.6344204 0.258066,-4.9179004 -0.382516,-1.41357 -1.676135,-2.90984 -3.058813,-3.53798 -1.47773,-0.67132 -4.142052,-0.64418 -5.690812,0.058 -1.827006,0.82828 -2.38125,1.47077 -2.38125,2.76035 0,0.98134 0.09473,1.14929 0.859896,1.52451 0.472943,0.23193 1.068255,0.48506 1.322917,0.56253 0.263689,0.0802 0.463772,0.4007104 0.464764,0.7444704 0.0031,1.09311 1.578497,2.99266 2.64409,3.18826 0.363802,0.0668 1.699067,0.13763 2.967254,0.15745 2.116156,0.0331 2.331133,-0.0113 2.613888,-0.53965 z M 46.894546,7.7860466 c 0.116301,-0.44473 0.07408,-0.48764 -0.230809,-0.2346 -0.205232,0.17032 -0.307901,0.41525 -0.228153,0.54428 0.215868,0.34929 0.301802,0.2913 0.458962,-0.30968 z"
       id="path836" />
  </g>
</svg>
