<?xml version="1.0" encoding="UTF-8" standalone="no"?>
<!-- Created with Inkscape (http://www.inkscape.org/) -->

<svg
   width="83mm"
   height="113mm"
   viewBox="0 0 82.999997 112.99999"
   version="1.1"
   id="svg5"
   inkscape:version="1.1.2 (0a00cf5339, 2022-02-04)"
   sodipodi:docname="Bunny.svg"
   xmlns:inkscape="http://www.inkscape.org/namespaces/inkscape"
   xmlns:sodipodi="http://sodipodi.sourceforge.net/DTD/sodipodi-0.dtd"
   xmlns="http://www.w3.org/2000/svg"
   xmlns:svg="http://www.w3.org/2000/svg">
  <sodipodi:namedview
     id="namedview7"
     pagecolor="#ffffff"
     bordercolor="#666666"
     borderopacity="1.0"
     inkscape:pageshadow="2"
     inkscape:pageopacity="0.0"
     inkscape:pagecheckerboard="0"
     inkscape:document-units="mm"
     showgrid="false"
     inkscape:zoom="1.8207738"
     inkscape:cx="145.81712"
     inkscape:cy="209.80091"
     inkscape:window-width="1920"
     inkscape:window-height="1013"
     inkscape:window-x="0"
     inkscape:window-y="0"
     inkscape:window-maximized="1"
     inkscape:current-layer="layer1"
     width="209mm"
     scale-x="1" />
  <defs
     id="defs2" />
  <g
     inkscape:label="Layer 1"
     inkscape:groupmode="layer"
     id="layer1">
    <path
       style="fill:#000000;stroke-width:0.211667"
       d="m 38.716035,111.97927 c -1.43546,-0.36001 -2.58412,-0.87126 -3.46204,-1.54088 -0.71219,-0.54321 -0.76701,-0.55148 -1.91639,-0.28896 -3.06994,0.70118 -5.88768,0.31843 -8.10697,-1.10124 -1.20854,-0.77309 -2.90238,-2.53359 -3.6019,-3.74365 -0.34753,-0.60116 -0.87838,-0.96889 -2.67971,-1.85626 -2.69678,-1.32851 -4.51571,-2.6607 -7.28376,-5.334675 -7.2681896,-7.02116 -11.37737965,-16.76697 -11.36177965,-26.94687 0.0105,-6.81831 2.16665005,-13.80009 6.09641005,-19.7402 2.61872,-3.958378 7.6427096,-8.913503 11.2030596,-11.049505 2.22742,-1.336313 5.00725,-2.866891 5.55132,-3.056555 0.63393,-0.220989 0.83576,-0.739786 0.44525,-1.144518 -0.32703,-0.338933 -1.27547,-2.219811 -2.12936,-4.222749 -1.75973,-4.127786 -3.12261,-8.702891 -4.04519,-13.579502 -0.56295,-2.975671 -0.78229,-8.9227415 -0.41417,-11.2298295 0.32966,-2.066116 1.28435,-4.584519 2.12336,-5.601296 l 0.6414,-0.77729702 1.32107,0.51607802 c 5.43789,2.12432 10.97225,9.4159605 14.20294,18.7126805 1.04917,3.019099 1.91611,7.397061 2.35773,11.906249 l 0.13993,1.42875 h 3.76278 3.76278 l 0.14424,-1.957917 c 0.75402,-10.235545 4.94071,-20.239146 11.01379,-26.3161855 2.08788,-2.08924 3.63441,-3.161645 5.79066,-4.015389 0.86714,-0.34333802 0.92646,-0.34169702 1.34627,0.03725 0.72669,0.655957 1.80077,3.040447 2.18079,4.841411 0.19651,0.931333 0.40774,2.788708 0.46939,4.1274985 0.2951,6.408409 -2.22954,16.967176 -5.77905,24.169618 -0.62444,1.267079 -1.13534,2.392754 -1.13534,2.501504 0,0.108748 0.73735,0.538402 1.63856,0.954786 9.47202,4.376341 16.64937,12.442648 19.81474,22.268908 3.13903,9.74449 2.57478,19.16249 -1.67208,27.90929 -1.82604,3.7609 -4.87027,7.89635 -7.78519,10.57582 -2.03618,1.871725 -5.22272,4.295155 -6.9432,5.280465 -1.02487,0.58693 -1.64824,1.14024 -2.3129,2.05297 -1.06193,1.45826 -3.44122,3.15896 -5.13103,3.66763 -2.01262,0.60584 -3.54956,0.63432 -5.74127,0.10638 l -1.99458,-0.48044 -1.02194,0.85082 c -2.54227,2.11657 -6.16556,2.90923 -9.48862,2.07581 z m 6.18107,-2.54066 c 0.90819,-0.41043 1.71054,-1.00751 2.60359,-1.93753 l 1.29084,-1.34428 1.20642,0.63053 c 1.62715,0.85044 3.52405,1.17183 5.08685,0.86186 2.75596,-0.54663 5.00625,-2.24156 6.0959,-4.59147 1.04669,-2.25725 1.06851,-4.288395 0.0745,-6.934675 l -0.46395,-1.23516 1.15997,-1.03387 c 3.51814,-3.13567 4.10469,-7.82026 1.42337,-11.36792 -1.70046,-2.24988 -3.93264,-3.31927 -6.95903,-3.33393 l -1.77381,-0.009 -0.0548,-0.69666 c -0.2198,-2.79413 -2.00435,-5.00222 -4.99563,-6.18127 -2.43831,-0.96109 -5.48075,-0.69537 -7.69574,0.67213 -0.82774,0.51103 -1.12287,0.59948 -1.37584,0.41233 -0.17712,-0.13104 -0.94117,-0.54545 -1.69788,-0.92091 -1.27474,-0.63249 -1.53208,-0.68265 -3.50229,-0.68265 -2.03263,0 -2.19778,0.0352 -3.74325,0.79848 -2.86269,1.41377 -4.21478,3.44997 -4.35483,6.5582 -0.0815,1.80862 -0.0971,1.85606 -0.64449,1.96553 -3.52073,0.70408 -5.91914,2.42016 -7.19986,5.15155 -0.48612,1.03674 -0.55777,1.46152 -0.55774,3.30624 4e-5,1.90537 0.0616,2.24345 0.61614,3.38667 0.39644,0.81723 1.13593,1.77731 2.07423,2.69299 1.28039,1.24951 1.43008,1.47544 1.22788,1.85325 -0.37042,0.69214 -0.50794,3.052945 -0.23985,4.117605 0.68306,2.71268 2.40195,4.88802 4.79215,6.06471 1.26706,0.62377 1.61732,0.70106 3.14513,0.69396 1.39021,-0.006 1.978,-0.11867 3.07102,-0.58631 l 1.35174,-0.57833 0.76493,0.71415 c 1.16495,1.08762 1.37208,1.21332 2.92312,1.77398 1.99963,0.72281 4.45211,0.63762 6.35121,-0.2206 z m -24.97188,-8.86525 c -0.0625,-0.38537 -0.0284,-1.157105 0.0758,-1.714965 0.1891,-1.01221 0.18735,-1.0167 -0.84915,-2.17963 -1.48023,-1.66077 -2.27498,-3.27279 -2.63426,-5.34314 -0.96233,-5.54539 2.33135,-10.6713 7.83083,-12.18701 0.13057,-0.036 0.35524,-0.68997 0.49927,-1.45331 0.39452,-2.09085 1.29289,-3.78473 2.80929,-5.29688 1.58644,-1.58202 3.35213,-2.49137 5.84797,-3.01181 1.69196,-0.35281 1.85804,-0.35259 3.5946,0.005 1.00137,0.20612 2.27479,0.57012 2.82983,0.80889 l 1.00915,0.43413 1.00541,-0.42614 c 3.70478,-1.57026 8.23366,-1.02147 11.37203,1.378 1.30979,1.0014 2.53258,2.58819 3.04566,3.95223 l 0.39133,1.0404 1.8534,0.37523 c 1.01936,0.20638 2.3903,0.63612 3.04653,0.95498 1.44634,0.70279 3.72374,2.93677 4.52275,4.43651 2.10369,3.94861 1.45144,9.00134 -1.58755,12.29825 l -0.83955,0.91081 0.34249,1.69976 c 0.18838,0.93487 0.3425,2.12751 0.3425,2.65032 v 0.950565 l 1.53458,-1.102555 c 2.61672,-1.88003 6.8742,-6.30423 8.61882,-8.95633 2.53608,-3.85523 4.14767,-7.62469 5.12381,-11.98446 0.43542,-1.94469 0.49097,-2.73237 0.48336,-6.85387 -0.007,-4.01719 -0.0743,-4.96188 -0.48697,-6.87917 -2.45826,-11.42121 -9.03854,-19.89702 -19.4011,-24.989959 -6.67746,-3.281801 -14.7476,-4.848227 -21.86308,-4.243654 -6.34128,0.538791 -11.00121,1.877426 -16.13109,4.633891 -7.45865,4.007796 -12.8207296,9.468332 -16.2285496,16.526572 -4.70069,9.73598 -4.54141,19.98831 0.46578,29.98052 0.75839,1.51342 2.0197,3.65332 2.80291,4.75534 1.5635096,2.19994 4.9401196,5.721 6.9273596,7.2237 1.08895,0.82344 3.42989,2.289365 3.67894,2.303795 0.0443,0.003 0.0294,-0.31063 -0.0331,-0.69601 z m 8.02199,-65.40733 c 0.92913,-0.293512 2.87087,-0.783126 4.31498,-1.08803 1.4441,-0.304906 2.66778,-0.596502 2.71927,-0.647994 0.17124,-0.171238 -0.63813,-4.611171 -1.38368,-7.590417 -1.85713,-7.421143 -5.00778,-13.794174 -8.56156,-17.3180415 -1.21396,-1.203745 -3.05304,-2.477462 -3.24536,-2.247687 -0.26051,0.311244 -0.54593,1.168761 -0.85611,2.572073 -0.5092,2.3037065 -0.35127,8.5145965 0.30498,11.9947755 1.19151,6.318677 4.03283,15.237086 4.76489,14.956168 0.1393,-0.05345 1.01347,-0.337335 1.94259,-0.630847 z m 29.68255,-0.09074 c 1.00382,-1.984574 2.72571,-7.496069 3.63111,-11.622605 1.44587,-6.589903 1.63728,-12.697729 0.50232,-16.0286545 -0.18294,-0.536889 -0.41615,-1.02779 -0.51825,-1.090891 -0.65805,-0.406699 -4.33663,3.01304 -5.99924,5.5771175 -3.30164,5.091778 -5.55811,11.314698 -6.8955,19.016504 -0.23594,1.358779 -0.40418,2.495319 -0.37385,2.525645 0.0303,0.03032 1.24633,0.300541 2.70224,0.600479 1.99132,0.410241 5.66309,1.423847 6.50106,1.794643 0.0267,0.01183 0.22929,-0.335676 0.45011,-0.772238 z"
       id="path938" />
  </g>
</svg>
